if (_typeface_js && _typeface_js.loadFace) _typeface_js.loadFace({"glyphs":{"0":{"ha":446,"x_min":61,"x_max":378,"o":"m 229 4 q 61 785 61 4 l 61 829 q 85 992 61 933 q 120 1042 96 1025 q 179 1060 144 1060 q 378 353 378 1060 q 229 4 378 4 m 242 68 q 278 110 264 68 q 311 314 301 171 q 314 385 314 344 q 306 632 314 478 q 263 896 296 778 q 222 990 247 956 q 164 1029 196 1025 q 135 994 143 1013 q 128 946 128 976 q 131 810 128 869 l 133 671 q 140 604 133 653 q 147 536 147 553 q 151 383 147 503 q 178 174 157 269 q 204 97 188 125 q 242 68 221 68 z "},"1":{"ha":374,"x_min":10,"x_max":346,"o":"m 146 -6 q 113 1 122 -6 q 103 32 103 8 q 110 53 103 47 q 139 58 117 58 q 169 82 169 58 q 149 488 169 219 q 128 888 128 757 q 129 911 128 900 l 129 938 q 82 1003 129 1003 l 67 1003 l 50 1001 q 10 1032 10 1001 q 122 1068 10 1068 q 193 1044 182 1068 q 185 986 185 1007 q 196 860 185 949 q 206 732 206 781 q 221 404 206 633 q 236 74 236 201 l 236 65 q 251 67 242 65 q 271 68 261 68 q 288 69 276 69 q 346 35 346 69 q 188 -6 346 -6 l 165 -6 l 146 -6 z "},"2":{"ha":476,"x_min":68,"x_max":368,"o":"m 118 -10 q 83 2 97 -10 q 68 32 68 14 l 68 38 q 124 149 96 71 q 144 203 136 186 q 264 531 226 385 q 301 839 301 676 q 235 1017 301 1013 q 204 951 213 1006 q 190 915 201 929 q 163 900 179 900 q 129 943 129 900 q 168 1053 129 1008 q 218 1075 189 1075 l 218 1076 q 297 1056 265 1076 q 342 1003 321 1042 q 363 929 353 981 q 366 883 365 904 q 368 851 367 861 l 368 814 q 345 609 368 719 q 290 413 322 499 q 218 225 254 314 q 156 58 175 117 q 319 72 235 72 q 349 33 349 51 q 331 3 349 17 q 256 -1 304 3 l 225 -3 q 118 -10 167 -10 z "},"3":{"ha":464,"x_min":40,"x_max":369,"o":"m 225 -14 q 142 14 174 -14 q 122 51 122 29 q 126 70 122 65 q 146 75 131 75 q 165 67 157 75 q 187 49 176 56 q 214 43 197 43 q 299 200 299 43 q 297 307 299 272 q 289 393 296 342 q 214 576 272 504 q 200 575 211 575 q 169 582 182 575 q 157 603 157 589 q 203 672 157 626 q 233 722 221 692 q 246 781 246 751 q 233 907 246 838 q 210 975 226 949 q 174 1001 194 1001 q 147 990 158 1001 q 129 963 135 979 q 113 934 125 946 q 82 922 100 922 q 55 933 67 922 q 40 960 43 943 q 95 1038 60 1008 q 176 1067 131 1067 q 235 1047 208 1067 q 276 993 261 1026 q 300 919 290 961 q 313 839 310 876 q 315 763 315 813 q 309 724 315 743 q 296 693 303 704 q 274 660 289 678 l 253 629 q 310 563 285 610 q 347 453 335 515 q 369 244 369 336 q 363 133 369 188 q 322 32 353 75 q 225 -14 293 -14 z "},"4":{"ha":421,"x_min":101,"x_max":374,"o":"m 281 -26 q 249 -6 261 -26 q 236 40 236 15 l 236 44 q 243 94 243 72 q 239 163 243 119 q 233 231 233 203 l 233 261 q 235 290 235 274 q 232 333 235 306 l 196 329 q 156 325 168 325 q 101 347 129 325 q 108 401 101 376 q 101 479 101 436 q 113 622 101 519 q 122 763 122 711 l 122 1019 q 132 1042 122 1038 q 149 1046 139 1046 q 178 1037 167 1046 q 190 1013 190 1028 q 188 958 190 982 l 185 904 l 185 892 q 183 879 183 886 q 186 854 183 868 l 186 849 q 190 775 190 814 q 181 599 190 707 q 171 422 171 490 q 174 390 171 413 q 224 399 206 393 q 231 594 224 449 q 236 786 236 711 q 248 809 236 800 q 272 818 260 818 l 294 793 l 294 726 q 292 404 294 546 q 297 405 293 404 q 308 406 300 406 q 332 407 318 407 q 374 378 374 407 q 318 344 374 344 q 294 332 294 344 q 299 197 294 274 q 310 106 303 119 q 307 79 307 94 q 313 51 307 61 l 313 26 q 305 -11 313 4 q 281 -26 297 -26 z "},"5":{"ha":458,"x_min":82,"x_max":383,"o":"m 242 -25 q 167 14 167 -25 q 179 38 167 29 q 208 46 192 46 q 244 33 231 46 q 296 106 275 44 q 317 222 317 168 q 315 340 317 292 q 301 453 311 403 q 289 501 296 482 q 268 544 282 521 q 204 597 249 579 q 158 604 181 604 q 115 631 126 604 q 108 683 108 651 q 113 719 108 694 l 115 754 q 108 872 115 818 l 90 988 l 82 1044 l 106 1069 l 218 1069 q 276 1033 276 1069 l 276 1026 l 250 1006 l 215 1006 l 215 1010 l 157 1010 q 183 679 158 940 l 211 676 q 269 667 242 674 q 296 654 285 663 q 347 562 325 633 q 376 414 369 490 q 383 294 383 340 q 381 189 383 231 q 375 142 379 160 q 361 96 371 125 q 341 54 353 72 q 310 15 329 36 q 265 -25 290 -4 l 256 -25 l 242 -25 z "},"6":{"ha":393,"x_min":68,"x_max":325,"o":"m 214 -10 q 117 75 149 -10 q 76 265 83 158 q 68 479 68 363 l 68 544 l 68 597 q 218 1075 68 1075 q 240 1067 229 1075 q 250 1047 250 1058 q 235 1017 250 1031 q 197 1000 219 1004 q 166 910 181 985 q 144 757 151 836 l 138 643 q 158 646 151 646 q 217 625 190 646 q 261 569 243 604 q 311 397 292 513 q 325 222 322 308 l 325 160 q 324 110 325 133 q 317 65 322 88 q 299 25 310 40 q 265 0 288 10 q 214 -10 242 -10 m 225 50 q 261 144 261 50 q 244 390 261 226 q 215 533 233 482 q 167 599 194 592 q 142 568 149 585 q 136 522 136 551 q 138 461 136 485 l 139 410 q 149 253 140 332 q 175 111 156 179 q 225 50 193 50 z "},"7":{"ha":417,"x_min":51,"x_max":322,"o":"m 101 17 q 117 90 101 42 l 126 124 q 215 563 182 329 q 251 1013 247 797 q 219 1015 238 1015 q 131 1007 206 1015 l 83 1003 q 60 1020 69 1010 q 51 1043 51 1031 q 226 1072 51 1072 l 251 1072 q 284 1070 274 1072 q 306 1060 294 1068 q 322 1033 314 1054 q 263 550 300 925 q 228 284 250 415 q 182 81 207 153 l 182 68 q 166 17 182 40 q 128 -7 150 -7 l 101 17 z "},"8":{"ha":436,"x_min":82,"x_max":356,"o":"m 222 -56 q 169 -36 192 -56 q 133 15 146 -17 q 113 135 113 71 q 144 368 113 218 q 176 585 176 515 q 163 672 176 622 q 129 769 149 722 q 96 870 110 818 q 82 964 82 922 q 107 1054 82 1018 q 178 1090 132 1090 l 207 1090 q 267 1038 251 1061 q 283 1009 278 1021 q 290 976 289 997 q 293 890 293 949 q 290 821 293 846 l 286 789 q 275 721 285 769 q 269 692 269 696 q 261 653 268 685 l 253 617 l 244 585 q 324 333 293 474 q 354 81 354 193 q 356 71 354 75 l 356 61 l 354 47 l 353 42 l 353 40 q 222 -56 311 -56 m 201 683 q 232 890 232 788 q 222 977 232 926 q 197 1028 211 1028 l 168 1028 q 149 958 149 1006 q 166 827 149 915 q 201 683 183 739 m 224 4 q 274 28 258 4 q 290 94 290 53 q 272 278 290 185 q 215 508 254 372 q 186 340 196 444 q 176 129 176 235 l 176 128 q 194 56 176 92 l 194 49 q 204 18 196 32 q 224 4 213 4 z "},"9":{"ha":390,"x_min":31,"x_max":282,"o":"m 189 3 q 210 465 210 68 q 208 556 210 518 l 207 632 q 80 708 129 650 q 31 843 31 765 q 44 968 31 910 q 69 1033 54 1007 q 107 1076 83 1058 q 165 1094 131 1094 q 257 1065 232 1094 q 282 963 282 1035 q 274 563 282 829 q 265 161 265 294 q 261 113 265 146 q 256 61 256 81 q 257 49 256 54 l 257 33 q 244 -8 257 8 q 210 -24 232 -24 l 189 3 m 208 685 q 215 968 215 800 q 205 1019 215 1003 q 165 1036 194 1036 q 133 1013 147 1036 q 111 956 118 990 q 99 846 99 888 q 103 790 99 814 q 110 769 106 776 l 117 753 q 128 739 119 746 l 140 726 q 157 715 147 721 q 171 706 167 708 q 176 702 172 704 q 189 696 181 700 l 208 685 z "},"\u0000":{"ha":0,"x_min":0,"x_max":0,"o":""},"\r":{"ha":254,"x_min":0,"x_max":0,"o":""}," ":{"ha":254,"x_min":0,"x_max":0,"o":""},"A":{"ha":486,"x_min":24,"x_max":404,"o":"m 358 0 q 326 8 336 0 q 315 36 315 17 l 315 218 q 247 240 297 231 q 153 253 197 250 q 131 182 138 224 l 125 154 q 117 111 124 144 q 101 53 110 78 q 85 15 93 29 q 24 43 32 15 q 58 174 39 65 l 104 428 q 160 736 135 608 q 215 950 186 864 q 276 1046 247 1046 q 321 1035 306 1046 q 347 767 321 979 q 375 482 375 558 q 390 271 375 408 q 404 47 404 131 q 358 0 404 0 m 286 299 q 314 303 297 299 q 300 454 310 364 q 268 839 268 768 l 268 850 q 230 724 254 836 q 185 485 206 613 q 163 315 164 357 q 286 299 221 299 z "},"Á":{"ha":486,"x_min":24,"x_max":475,"o":"m 358 0 q 326 8 336 0 q 315 36 315 17 l 315 218 q 247 240 297 231 q 153 253 197 250 q 131 182 138 224 l 125 154 q 117 111 124 144 q 101 53 110 78 q 85 15 93 29 q 24 43 32 15 q 58 174 39 65 l 104 428 q 160 736 135 608 q 215 950 186 864 q 276 1046 247 1046 q 321 1035 306 1046 q 347 767 321 979 q 375 482 375 558 q 390 271 375 408 q 404 47 404 131 q 358 0 404 0 m 286 299 q 314 303 297 299 q 300 454 310 364 q 268 839 268 768 l 268 850 q 230 724 254 836 q 185 485 206 613 q 163 315 164 357 q 286 299 221 299 m 251 1076 q 236 1081 243 1076 q 229 1094 229 1086 q 236 1108 229 1101 l 258 1128 q 336 1196 265 1135 l 418 1267 q 431 1269 424 1269 q 461 1253 447 1269 q 475 1218 475 1236 q 465 1196 475 1201 q 263 1079 415 1157 q 251 1076 260 1076 z "},"Ă":{"ha":486,"x_min":24,"x_max":422,"o":"m 358 0 q 326 8 336 0 q 315 36 315 17 l 315 218 q 247 240 297 231 q 153 253 197 250 q 131 182 138 224 l 125 154 q 117 111 124 144 q 101 53 110 78 q 85 15 93 29 q 24 43 32 15 q 58 174 39 65 l 104 428 q 160 736 135 608 q 215 950 186 864 q 276 1046 247 1046 q 321 1035 306 1046 q 347 767 321 979 q 375 482 375 558 q 390 271 375 408 q 404 47 404 131 q 358 0 404 0 m 286 299 q 314 303 297 299 q 300 454 310 364 q 268 839 268 768 l 268 850 q 230 724 254 836 q 185 485 206 613 q 163 315 164 357 q 286 299 221 299 m 303 1099 q 247 1113 271 1099 q 210 1154 222 1128 q 185 1264 185 1203 q 192 1278 185 1272 q 211 1285 200 1285 q 239 1267 226 1285 q 258 1224 251 1249 q 276 1181 265 1199 q 299 1163 288 1163 q 333 1183 321 1163 q 346 1226 346 1204 q 354 1267 346 1254 q 385 1279 363 1279 q 411 1269 400 1279 q 422 1244 422 1258 q 419 1210 422 1226 q 379 1129 408 1160 q 303 1099 350 1099 z "},"Ắ":{"ha":486,"x_min":24,"x_max":510,"o":"m 358 0 q 326 8 336 0 q 315 36 315 17 l 315 218 q 247 240 297 231 q 153 253 197 250 q 131 182 138 224 l 125 154 q 117 111 124 144 q 101 53 110 78 q 85 15 93 29 q 24 43 32 15 q 58 174 39 65 l 104 428 q 160 736 135 608 q 215 950 186 864 q 276 1046 247 1046 q 321 1035 306 1046 q 347 767 321 979 q 375 482 375 558 q 390 271 375 408 q 404 47 404 131 q 358 0 404 0 m 286 299 q 314 303 297 299 q 300 454 310 364 q 268 839 268 768 l 268 850 q 230 724 254 836 q 185 485 206 613 q 163 315 164 357 q 286 299 221 299 m 303 1099 q 247 1113 271 1099 q 210 1154 222 1128 q 185 1264 185 1203 q 192 1278 185 1272 q 211 1285 200 1285 q 239 1267 226 1285 q 258 1224 251 1249 q 276 1181 265 1199 q 299 1163 288 1163 q 333 1183 321 1163 q 346 1226 346 1204 q 354 1267 346 1254 q 385 1279 363 1279 q 411 1269 400 1279 q 422 1244 422 1258 q 419 1210 422 1226 q 379 1129 408 1160 q 303 1099 350 1099 m 286 1336 q 271 1341 278 1336 q 264 1354 264 1346 q 271 1368 264 1361 l 293 1388 q 371 1456 300 1394 l 453 1526 q 465 1529 458 1529 q 496 1513 482 1529 q 510 1478 510 1496 q 500 1456 510 1461 q 297 1339 450 1417 q 286 1336 294 1336 z "},"Ặ":{"ha":486,"x_min":24,"x_max":422,"o":"m 358 0 q 326 8 336 0 q 315 36 315 17 l 315 218 q 247 240 297 231 q 153 253 197 250 q 131 182 138 224 l 125 154 q 117 111 124 144 q 101 53 110 78 q 85 15 93 29 q 24 43 32 15 q 58 174 39 65 l 104 428 q 160 736 135 608 q 215 950 186 864 q 276 1046 247 1046 q 321 1035 306 1046 q 347 767 321 979 q 375 482 375 558 q 390 271 375 408 q 404 47 404 131 q 358 0 404 0 m 286 299 q 314 303 297 299 q 300 454 310 364 q 268 839 268 768 l 268 850 q 230 724 254 836 q 185 485 206 613 q 163 315 164 357 q 286 299 221 299 m 303 1099 q 247 1113 271 1099 q 210 1154 222 1128 q 185 1264 185 1203 q 192 1278 185 1272 q 211 1285 200 1285 q 239 1267 226 1285 q 258 1224 251 1249 q 276 1181 265 1199 q 299 1163 288 1163 q 333 1183 321 1163 q 346 1226 346 1204 q 354 1267 346 1254 q 385 1279 363 1279 q 411 1269 400 1279 q 422 1244 422 1258 q 419 1210 422 1226 q 379 1129 408 1160 q 303 1099 350 1099 m 239 -233 q 206 -218 221 -233 q 192 -183 192 -203 q 208 -147 192 -162 q 244 -131 224 -131 q 278 -147 264 -131 q 293 -183 293 -162 q 278 -219 293 -206 q 239 -233 263 -233 z "},"Ằ":{"ha":486,"x_min":24,"x_max":422,"o":"m 358 0 q 326 8 336 0 q 315 36 315 17 l 315 218 q 247 240 297 231 q 153 253 197 250 q 131 182 138 224 l 125 154 q 117 111 124 144 q 101 53 110 78 q 85 15 93 29 q 24 43 32 15 q 58 174 39 65 l 104 428 q 160 736 135 608 q 215 950 186 864 q 276 1046 247 1046 q 321 1035 306 1046 q 347 767 321 979 q 375 482 375 558 q 390 271 375 408 q 404 47 404 131 q 358 0 404 0 m 286 299 q 314 303 297 299 q 300 454 310 364 q 268 839 268 768 l 268 850 q 230 724 254 836 q 185 485 206 613 q 163 315 164 357 q 286 299 221 299 m 303 1099 q 247 1113 271 1099 q 210 1154 222 1128 q 185 1264 185 1203 q 192 1278 185 1272 q 211 1285 200 1285 q 239 1267 226 1285 q 258 1224 251 1249 q 276 1181 265 1199 q 299 1163 288 1163 q 333 1183 321 1163 q 346 1226 346 1204 q 354 1267 346 1254 q 385 1279 363 1279 q 411 1269 400 1279 q 422 1244 422 1258 q 419 1210 422 1226 q 379 1129 408 1160 q 303 1099 350 1099 m 365 1342 q 285 1360 350 1342 q 165 1400 221 1379 q 110 1429 110 1421 q 125 1465 110 1446 q 156 1483 140 1483 q 221 1454 164 1483 q 326 1394 278 1425 q 375 1351 375 1363 q 365 1342 375 1342 z "},"Ẳ":{"ha":486,"x_min":24,"x_max":465,"o":"m 358 0 q 326 8 336 0 q 315 36 315 17 l 315 218 q 247 240 297 231 q 153 253 197 250 q 131 182 138 224 l 125 154 q 117 111 124 144 q 101 53 110 78 q 85 15 93 29 q 24 43 32 15 q 58 174 39 65 l 104 428 q 160 736 135 608 q 215 950 186 864 q 276 1046 247 1046 q 321 1035 306 1046 q 347 767 321 979 q 375 482 375 558 q 390 271 375 408 q 404 47 404 131 q 358 0 404 0 m 286 299 q 314 303 297 299 q 300 454 310 364 q 268 839 268 768 l 268 850 q 230 724 254 836 q 185 485 206 613 q 163 315 164 357 q 286 299 221 299 m 303 1099 q 247 1113 271 1099 q 210 1154 222 1128 q 185 1264 185 1203 q 192 1278 185 1272 q 211 1285 200 1285 q 239 1267 226 1285 q 258 1224 251 1249 q 276 1181 265 1199 q 299 1163 288 1163 q 333 1183 321 1163 q 346 1226 346 1204 q 354 1267 346 1254 q 385 1279 363 1279 q 411 1269 400 1279 q 422 1244 422 1258 q 419 1210 422 1226 q 379 1129 408 1160 q 303 1099 350 1099 m 307 1343 q 275 1365 283 1343 q 296 1426 275 1410 q 353 1449 317 1442 q 383 1458 374 1453 q 393 1474 393 1463 q 374 1508 393 1494 q 318 1522 354 1522 q 268 1511 286 1522 q 250 1482 250 1500 q 258 1468 250 1481 q 244 1453 258 1465 q 221 1440 231 1440 q 192 1450 203 1440 q 182 1471 182 1460 l 182 1483 q 216 1556 182 1531 q 315 1582 250 1582 q 434 1549 403 1582 q 465 1474 465 1517 q 445 1423 465 1436 q 388 1400 425 1410 q 353 1390 364 1396 q 342 1372 342 1385 l 342 1347 q 314 1346 315 1347 q 307 1343 308 1343 z "},"Ẵ":{"ha":486,"x_min":24,"x_max":465,"o":"m 358 0 q 326 8 336 0 q 315 36 315 17 l 315 218 q 247 240 297 231 q 153 253 197 250 q 131 182 138 224 l 125 154 q 117 111 124 144 q 101 53 110 78 q 85 15 93 29 q 24 43 32 15 q 58 174 39 65 l 104 428 q 160 736 135 608 q 215 950 186 864 q 276 1046 247 1046 q 321 1035 306 1046 q 347 767 321 979 q 375 482 375 558 q 390 271 375 408 q 404 47 404 131 q 358 0 404 0 m 286 299 q 314 303 297 299 q 300 454 310 364 q 268 839 268 768 l 268 850 q 230 724 254 836 q 185 485 206 613 q 163 315 164 357 q 286 299 221 299 m 303 1099 q 247 1113 271 1099 q 210 1154 222 1128 q 185 1264 185 1203 q 192 1278 185 1272 q 211 1285 200 1285 q 239 1267 226 1285 q 258 1224 251 1249 q 276 1181 265 1199 q 299 1163 288 1163 q 333 1183 321 1163 q 346 1226 346 1204 q 354 1267 346 1254 q 385 1279 363 1279 q 411 1269 400 1279 q 422 1244 422 1258 q 419 1210 422 1226 q 379 1129 408 1160 q 303 1099 350 1099 m 376 1340 q 317 1349 342 1340 q 282 1371 292 1358 q 258 1392 272 1383 q 228 1400 244 1400 q 214 1389 218 1396 q 213 1374 210 1382 l 213 1371 q 192 1346 213 1353 q 156 1356 169 1346 q 142 1386 142 1367 q 169 1444 142 1421 q 243 1467 197 1467 q 303 1439 258 1467 q 360 1411 347 1411 q 380 1419 372 1411 q 389 1439 388 1428 q 399 1458 392 1450 q 419 1467 407 1467 q 453 1456 442 1467 q 465 1431 465 1446 q 439 1367 465 1394 q 376 1340 413 1340 z "},"Ǎ":{"ha":486,"x_min":24,"x_max":404,"o":"m 358 0 q 326 8 336 0 q 315 36 315 17 l 315 218 q 247 240 297 231 q 153 253 197 250 q 131 182 138 224 l 125 154 q 117 111 124 144 q 101 53 110 78 q 85 15 93 29 q 24 43 32 15 q 58 174 39 65 l 104 428 q 160 736 135 608 q 215 950 186 864 q 276 1046 247 1046 q 321 1035 306 1046 q 347 767 321 979 q 375 482 375 558 q 390 271 375 408 q 404 47 404 131 q 358 0 404 0 m 286 299 q 314 303 297 299 q 300 454 310 364 q 268 839 268 768 l 268 850 q 230 724 254 836 q 185 485 206 613 q 163 315 164 357 q 286 299 221 299 m 290 1088 q 243 1141 274 1088 q 188 1260 213 1194 q 164 1350 164 1325 q 174 1369 164 1361 q 197 1378 185 1378 q 232 1338 213 1378 q 267 1235 246 1306 l 285 1171 q 290 1217 289 1204 q 296 1263 292 1229 q 307 1325 300 1297 q 346 1382 318 1382 q 367 1374 358 1382 q 375 1353 375 1365 q 369 1342 375 1349 l 364 1332 l 364 1307 l 344 1231 q 325 1132 325 1150 q 290 1088 325 1088 z "},"Â":{"ha":486,"x_min":24,"x_max":417,"o":"m 358 0 q 326 8 336 0 q 315 36 315 17 l 315 218 q 247 240 297 231 q 153 253 197 250 q 131 182 138 224 l 125 154 q 117 111 124 144 q 101 53 110 78 q 85 15 93 29 q 24 43 32 15 q 58 174 39 65 l 104 428 q 160 736 135 608 q 215 950 186 864 q 276 1046 247 1046 q 321 1035 306 1046 q 347 767 321 979 q 375 482 375 558 q 390 271 375 408 q 404 47 404 131 q 358 0 404 0 m 286 299 q 314 303 297 299 q 300 454 310 364 q 268 839 268 768 l 268 850 q 230 724 254 836 q 185 485 206 613 q 163 315 164 357 q 286 299 221 299 m 385 1075 q 368 1085 371 1075 l 314 1272 l 243 1094 q 224 1085 239 1085 q 199 1092 210 1085 q 189 1113 189 1100 q 192 1125 189 1121 l 240 1247 q 257 1285 246 1258 q 274 1321 268 1311 q 306 1354 289 1346 q 325 1357 317 1357 q 344 1344 336 1357 q 379 1250 364 1314 l 397 1183 q 415 1117 410 1133 q 417 1104 417 1113 q 407 1083 417 1092 q 385 1075 397 1075 z "},"Ấ":{"ha":486,"x_min":24,"x_max":613,"o":"m 358 0 q 326 8 336 0 q 315 36 315 17 l 315 218 q 247 240 297 231 q 153 253 197 250 q 131 182 138 224 l 125 154 q 117 111 124 144 q 101 53 110 78 q 85 15 93 29 q 24 43 32 15 q 58 174 39 65 l 104 428 q 160 736 135 608 q 215 950 186 864 q 276 1046 247 1046 q 321 1035 306 1046 q 347 767 321 979 q 375 482 375 558 q 390 271 375 408 q 404 47 404 131 q 358 0 404 0 m 286 299 q 314 303 297 299 q 300 454 310 364 q 268 839 268 768 l 268 850 q 230 724 254 836 q 185 485 206 613 q 163 315 164 357 q 286 299 221 299 m 350 1068 q 333 1078 336 1068 l 279 1265 l 208 1088 q 189 1078 204 1078 q 165 1085 175 1078 q 154 1106 154 1093 q 157 1118 154 1114 l 206 1240 q 222 1278 211 1251 q 239 1314 233 1304 q 271 1347 254 1339 q 290 1350 282 1350 q 310 1338 301 1350 q 344 1243 329 1307 l 363 1176 q 381 1110 375 1126 q 382 1097 382 1106 q 372 1076 382 1085 q 350 1068 363 1068 m 389 1218 q 374 1223 381 1218 q 367 1236 367 1228 q 374 1250 367 1243 l 396 1269 q 474 1338 403 1276 l 556 1408 q 568 1411 561 1411 q 599 1394 585 1411 q 613 1360 613 1378 q 603 1338 613 1343 q 400 1221 553 1299 q 389 1218 397 1218 z "},"Ậ":{"ha":486,"x_min":24,"x_max":417,"o":"m 358 0 q 326 8 336 0 q 315 36 315 17 l 315 218 q 247 240 297 231 q 153 253 197 250 q 131 182 138 224 l 125 154 q 117 111 124 144 q 101 53 110 78 q 85 15 93 29 q 24 43 32 15 q 58 174 39 65 l 104 428 q 160 736 135 608 q 215 950 186 864 q 276 1046 247 1046 q 321 1035 306 1046 q 347 767 321 979 q 375 482 375 558 q 390 271 375 408 q 404 47 404 131 q 358 0 404 0 m 286 299 q 314 303 297 299 q 300 454 310 364 q 268 839 268 768 l 268 850 q 230 724 254 836 q 185 485 206 613 q 163 315 164 357 q 286 299 221 299 m 385 1075 q 368 1085 371 1075 l 314 1272 l 243 1094 q 224 1085 239 1085 q 199 1092 210 1085 q 189 1113 189 1100 q 192 1125 189 1121 l 240 1247 q 257 1285 246 1258 q 274 1321 268 1311 q 306 1354 289 1346 q 325 1357 317 1357 q 344 1344 336 1357 q 379 1250 364 1314 l 397 1183 q 415 1117 410 1133 q 417 1104 417 1113 q 407 1083 417 1092 q 385 1075 397 1075 m 239 -233 q 206 -218 221 -233 q 192 -183 192 -203 q 208 -147 192 -162 q 244 -131 224 -131 q 278 -147 264 -131 q 293 -183 293 -162 q 278 -219 293 -206 q 239 -233 263 -233 z "},"Ầ":{"ha":486,"x_min":-51,"x_max":404,"o":"m 358 0 q 326 8 336 0 q 315 36 315 17 l 315 218 q 247 240 297 231 q 153 253 197 250 q 131 182 138 224 l 125 154 q 117 111 124 144 q 101 53 110 78 q 85 15 93 29 q 24 43 32 15 q 58 174 39 65 l 104 428 q 160 736 135 608 q 215 950 186 864 q 276 1046 247 1046 q 321 1035 306 1046 q 347 767 321 979 q 375 482 375 558 q 390 271 375 408 q 404 47 404 131 q 358 0 404 0 m 286 299 q 314 303 297 299 q 300 454 310 364 q 268 839 268 768 l 268 850 q 230 724 254 836 q 185 485 206 613 q 163 315 164 357 q 286 299 221 299 m 353 1068 q 336 1078 339 1068 l 282 1265 l 211 1088 q 192 1078 207 1078 q 167 1085 178 1078 q 157 1106 157 1093 q 160 1118 157 1114 l 208 1240 q 225 1278 214 1251 q 242 1314 236 1304 q 274 1347 257 1339 q 293 1350 285 1350 q 313 1338 304 1350 q 347 1243 332 1307 l 365 1176 q 383 1110 378 1126 q 385 1097 385 1106 q 375 1076 385 1085 q 353 1068 365 1068 m -481 1486 q -562 1476 -495 1481 q -689 1473 -629 1472 q -751 1481 -748 1473 q -749 1519 -757 1497 q -726 1548 -741 1542 q -655 1542 -718 1550 q -535 1522 -591 1535 q -475 1499 -479 1509 q -481 1486 -472 1489 z "},"Ẩ":{"ha":486,"x_min":24,"x_max":646,"o":"m 358 0 q 326 8 336 0 q 315 36 315 17 l 315 218 q 247 240 297 231 q 153 253 197 250 q 131 182 138 224 l 125 154 q 117 111 124 144 q 101 53 110 78 q 85 15 93 29 q 24 43 32 15 q 58 174 39 65 l 104 428 q 160 736 135 608 q 215 950 186 864 q 276 1046 247 1046 q 321 1035 306 1046 q 347 767 321 979 q 375 482 375 558 q 390 271 375 408 q 404 47 404 131 q 358 0 404 0 m 286 299 q 314 303 297 299 q 300 454 310 364 q 268 839 268 768 l 268 850 q 230 724 254 836 q 185 485 206 613 q 163 315 164 357 q 286 299 221 299 m 364 1068 q 347 1078 350 1068 l 293 1265 l 222 1088 q 203 1078 218 1078 q 178 1085 189 1078 q 168 1106 168 1093 q 171 1118 168 1114 l 219 1240 q 236 1278 225 1251 q 253 1314 247 1304 q 285 1347 268 1339 q 304 1350 296 1350 q 324 1338 315 1350 q 358 1243 343 1307 l 376 1176 q 394 1110 389 1126 q 396 1097 396 1106 q 386 1076 396 1085 q 364 1068 376 1068 m 488 1207 q 456 1229 464 1207 q 476 1290 456 1274 q 533 1313 497 1306 q 564 1322 554 1317 q 574 1338 574 1326 q 554 1372 574 1358 q 499 1386 535 1386 q 449 1375 467 1386 q 431 1346 431 1364 q 439 1332 431 1344 q 425 1317 439 1329 q 401 1304 411 1304 q 373 1314 383 1304 q 363 1335 363 1324 l 363 1347 q 397 1420 363 1394 q 496 1446 431 1446 q 615 1413 583 1446 q 646 1338 646 1381 q 626 1287 646 1300 q 568 1264 606 1274 q 533 1254 544 1260 q 522 1236 522 1249 l 522 1211 q 494 1210 496 1211 q 488 1207 489 1207 z "},"Ẫ":{"ha":486,"x_min":24,"x_max":464,"o":"m 358 0 q 326 8 336 0 q 315 36 315 17 l 315 218 q 247 240 297 231 q 153 253 197 250 q 131 182 138 224 l 125 154 q 117 111 124 144 q 101 53 110 78 q 85 15 93 29 q 24 43 32 15 q 58 174 39 65 l 104 428 q 160 736 135 608 q 215 950 186 864 q 276 1046 247 1046 q 321 1035 306 1046 q 347 767 321 979 q 375 482 375 558 q 390 271 375 408 q 404 47 404 131 q 358 0 404 0 m 286 299 q 314 303 297 299 q 300 454 310 364 q 268 839 268 768 l 268 850 q 230 724 254 836 q 185 485 206 613 q 163 315 164 357 q 286 299 221 299 m 385 1075 q 368 1085 371 1075 l 314 1272 l 243 1094 q 224 1085 239 1085 q 199 1092 210 1085 q 189 1113 189 1100 q 192 1125 189 1121 l 240 1247 q 257 1285 246 1258 q 274 1321 268 1311 q 306 1354 289 1346 q 325 1357 317 1357 q 344 1344 336 1357 q 379 1250 364 1314 l 397 1183 q 415 1117 410 1133 q 417 1104 417 1113 q 407 1083 417 1092 q 385 1075 397 1075 m 375 1385 q 315 1394 340 1385 q 281 1415 290 1403 q 257 1436 271 1428 q 226 1444 243 1444 q 213 1433 217 1440 q 211 1418 208 1426 l 211 1415 q 190 1390 211 1397 q 154 1401 168 1390 q 140 1431 140 1411 q 168 1488 140 1465 q 242 1511 196 1511 q 301 1483 257 1511 q 358 1456 346 1456 q 378 1464 371 1456 q 388 1483 386 1472 q 398 1503 390 1494 q 418 1511 406 1511 q 452 1501 440 1511 q 464 1475 464 1490 q 438 1412 464 1439 q 375 1385 411 1385 z "},"Ȁ":{"ha":486,"x_min":24,"x_max":471,"o":"m 358 0 q 326 8 336 0 q 315 36 315 17 l 315 218 q 247 240 297 231 q 153 253 197 250 q 131 182 138 224 l 125 154 q 117 111 124 144 q 101 53 110 78 q 85 15 93 29 q 24 43 32 15 q 58 174 39 65 l 104 428 q 160 736 135 608 q 215 950 186 864 q 276 1046 247 1046 q 321 1035 306 1046 q 347 767 321 979 q 375 482 375 558 q 390 271 375 408 q 404 47 404 131 q 358 0 404 0 m 286 299 q 314 303 297 299 q 300 454 310 364 q 268 839 268 768 l 268 850 q 230 724 254 836 q 185 485 206 613 q 163 315 164 357 q 286 299 221 299 m 296 1089 q 82 1290 85 1286 l 69 1313 q 85 1338 74 1328 q 110 1349 96 1349 q 171 1294 121 1349 q 267 1178 224 1236 q 310 1106 310 1119 q 296 1089 310 1089 m 461 1078 q 325 1232 388 1149 q 285 1308 285 1285 q 297 1322 285 1315 q 319 1328 308 1328 q 366 1276 329 1328 q 436 1167 403 1225 q 471 1093 469 1110 l 461 1078 z "},"Ä":{"ha":486,"x_min":24,"x_max":467,"o":"m 358 0 q 326 8 336 0 q 315 36 315 17 l 315 218 q 247 240 297 231 q 153 253 197 250 q 131 182 138 224 l 125 154 q 117 111 124 144 q 101 53 110 78 q 85 15 93 29 q 24 43 32 15 q 58 174 39 65 l 104 428 q 160 736 135 608 q 215 950 186 864 q 276 1046 247 1046 q 321 1035 306 1046 q 347 767 321 979 q 375 482 375 558 q 390 271 375 408 q 404 47 404 131 q 358 0 404 0 m 286 299 q 314 303 297 299 q 300 454 310 364 q 268 839 268 768 l 268 850 q 230 724 254 836 q 185 485 206 613 q 163 315 164 357 q 286 299 221 299 m 188 1089 q 155 1104 169 1089 q 140 1139 140 1119 q 156 1176 140 1160 q 193 1192 172 1192 q 227 1176 213 1192 q 242 1140 242 1160 q 226 1103 242 1118 q 188 1089 211 1089 m 411 1082 q 378 1097 393 1082 q 364 1132 364 1113 q 380 1169 364 1153 q 417 1185 396 1185 q 451 1169 436 1185 q 467 1133 467 1153 q 451 1097 467 1111 q 411 1082 435 1082 z "},"Ȧ":{"ha":486,"x_min":24,"x_max":404,"o":"m 358 0 q 326 8 336 0 q 315 36 315 17 l 315 218 q 247 240 297 231 q 153 253 197 250 q 131 182 138 224 l 125 154 q 117 111 124 144 q 101 53 110 78 q 85 15 93 29 q 24 43 32 15 q 58 174 39 65 l 104 428 q 160 736 135 608 q 215 950 186 864 q 276 1046 247 1046 q 321 1035 306 1046 q 347 767 321 979 q 375 482 375 558 q 390 271 375 408 q 404 47 404 131 q 358 0 404 0 m 286 299 q 314 303 297 299 q 300 454 310 364 q 268 839 268 768 l 268 850 q 230 724 254 836 q 185 485 206 613 q 163 315 164 357 q 286 299 221 299 m 265 1110 q 233 1125 247 1110 q 219 1160 219 1140 q 235 1197 219 1181 q 271 1213 250 1213 q 306 1197 290 1213 q 321 1161 321 1181 q 305 1124 321 1139 q 265 1110 289 1110 z "},"Ạ":{"ha":486,"x_min":24,"x_max":404,"o":"m 358 0 q 326 8 336 0 q 315 36 315 17 l 315 218 q 247 240 297 231 q 153 253 197 250 q 131 182 138 224 l 125 154 q 117 111 124 144 q 101 53 110 78 q 85 15 93 29 q 24 43 32 15 q 58 174 39 65 l 104 428 q 160 736 135 608 q 215 950 186 864 q 276 1046 247 1046 q 321 1035 306 1046 q 347 767 321 979 q 375 482 375 558 q 390 271 375 408 q 404 47 404 131 q 358 0 404 0 m 286 299 q 314 303 297 299 q 300 454 310 364 q 268 839 268 768 l 268 850 q 230 724 254 836 q 185 485 206 613 q 163 315 164 357 q 286 299 221 299 m 239 -233 q 206 -218 221 -233 q 192 -183 192 -203 q 208 -147 192 -162 q 244 -131 224 -131 q 278 -147 264 -131 q 293 -183 293 -162 q 278 -219 293 -206 q 239 -233 263 -233 z "},"À":{"ha":486,"x_min":24,"x_max":404,"o":"m 358 0 q 326 8 336 0 q 315 36 315 17 l 315 218 q 247 240 297 231 q 153 253 197 250 q 131 182 138 224 l 125 154 q 117 111 124 144 q 101 53 110 78 q 85 15 93 29 q 24 43 32 15 q 58 174 39 65 l 104 428 q 160 736 135 608 q 215 950 186 864 q 276 1046 247 1046 q 321 1035 306 1046 q 347 767 321 979 q 375 482 375 558 q 390 271 375 408 q 404 47 404 131 q 358 0 404 0 m 286 299 q 314 303 297 299 q 300 454 310 364 q 268 839 268 768 l 268 850 q 230 724 254 836 q 185 485 206 613 q 163 315 164 357 q 286 299 221 299 m 331 1082 q 251 1101 315 1082 q 131 1140 186 1119 q 75 1169 75 1161 q 90 1205 75 1186 q 121 1224 106 1224 q 186 1194 129 1224 q 292 1134 243 1165 q 340 1092 340 1103 q 331 1082 340 1082 z "},"Ả":{"ha":486,"x_min":24,"x_max":431,"o":"m 358 0 q 326 8 336 0 q 315 36 315 17 l 315 218 q 247 240 297 231 q 153 253 197 250 q 131 182 138 224 l 125 154 q 117 111 124 144 q 101 53 110 78 q 85 15 93 29 q 24 43 32 15 q 58 174 39 65 l 104 428 q 160 736 135 608 q 215 950 186 864 q 276 1046 247 1046 q 321 1035 306 1046 q 347 767 321 979 q 375 482 375 558 q 390 271 375 408 q 404 47 404 131 q 358 0 404 0 m 286 299 q 314 303 297 299 q 300 454 310 364 q 268 839 268 768 l 268 850 q 230 724 254 836 q 185 485 206 613 q 163 315 164 357 q 286 299 221 299 m 272 1083 q 240 1106 249 1083 q 261 1166 240 1150 q 318 1189 282 1182 q 349 1198 339 1193 q 358 1214 358 1203 q 339 1249 358 1235 q 283 1263 319 1263 q 233 1251 251 1263 q 215 1222 215 1240 q 224 1208 215 1221 q 210 1193 224 1206 q 186 1181 196 1181 q 158 1190 168 1181 q 147 1211 147 1200 l 147 1224 q 181 1297 147 1271 q 281 1322 215 1322 q 399 1290 368 1322 q 431 1214 431 1257 q 410 1163 431 1176 q 353 1140 390 1150 q 318 1131 329 1136 q 307 1113 307 1125 l 307 1088 q 279 1086 281 1088 q 272 1083 274 1083 z "},"Ȃ":{"ha":486,"x_min":24,"x_max":404,"o":"m 358 0 q 326 8 336 0 q 315 36 315 17 l 315 218 q 247 240 297 231 q 153 253 197 250 q 131 182 138 224 l 125 154 q 117 111 124 144 q 101 53 110 78 q 85 15 93 29 q 24 43 32 15 q 58 174 39 65 l 104 428 q 160 736 135 608 q 215 950 186 864 q 276 1046 247 1046 q 321 1035 306 1046 q 347 767 321 979 q 375 482 375 558 q 390 271 375 408 q 404 47 404 131 q 358 0 404 0 m 286 299 q 314 303 297 299 q 300 454 310 364 q 268 839 268 768 l 268 850 q 230 724 254 836 q 185 485 206 613 q 163 315 164 357 q 286 299 221 299 m 150 1096 q 175 1206 150 1156 q 212 1245 188 1231 q 268 1260 236 1260 q 312 1253 294 1260 q 342 1229 329 1246 q 363 1197 356 1211 q 379 1160 369 1183 l 382 1154 l 385 1149 l 382 1143 q 381 1138 382 1138 l 388 1115 q 376 1090 388 1101 q 350 1079 365 1079 q 319 1092 328 1079 q 311 1132 311 1104 q 301 1172 311 1149 q 279 1196 290 1196 l 250 1196 q 217 1125 229 1182 q 202 1088 213 1103 q 176 1074 192 1074 l 150 1096 z "},"Ā":{"ha":486,"x_min":24,"x_max":463,"o":"m 358 0 q 326 8 336 0 q 315 36 315 17 l 315 218 q 247 240 297 231 q 153 253 197 250 q 131 182 138 224 l 125 154 q 117 111 124 144 q 101 53 110 78 q 85 15 93 29 q 24 43 32 15 q 58 174 39 65 l 104 428 q 160 736 135 608 q 215 950 186 864 q 276 1046 247 1046 q 321 1035 306 1046 q 347 767 321 979 q 375 482 375 558 q 390 271 375 408 q 404 47 404 131 q 358 0 404 0 m 286 299 q 314 303 297 299 q 300 454 310 364 q 268 839 268 768 l 268 850 q 230 724 254 836 q 185 485 206 613 q 163 315 164 357 q 286 299 221 299 m 131 1114 q 75 1158 75 1114 q 84 1181 75 1172 q 107 1189 93 1189 l 311 1189 l 353 1192 q 396 1193 372 1193 q 463 1153 463 1193 q 452 1129 463 1138 q 424 1121 442 1121 q 278 1117 376 1121 l 131 1114 z "},"Ą":{"ha":486,"x_min":24,"x_max":404,"o":"m 358 0 q 326 8 336 0 q 315 36 315 17 l 315 218 q 247 240 297 231 q 153 253 197 250 q 131 182 138 224 l 125 154 q 117 111 124 144 q 101 53 110 78 q 85 15 93 29 q 24 43 32 15 q 58 174 39 65 l 104 428 q 160 736 135 608 q 215 950 186 864 q 276 1046 247 1046 q 321 1035 306 1046 q 347 767 321 979 q 375 482 375 558 q 390 271 375 408 q 404 47 404 131 q 358 0 404 0 m 286 299 q 314 303 297 299 q 300 454 310 364 q 268 839 268 768 l 268 850 q 230 724 254 836 q 185 485 206 613 q 163 315 164 357 q 286 299 221 299 m 275 -249 q 219 -223 239 -249 q 200 -165 200 -197 q 235 -69 200 -114 q 325 8 269 -24 l 382 8 q 261 -156 261 -85 q 286 -190 261 -190 q 338 -168 307 -190 l 353 -208 q 319 -235 343 -222 q 275 -249 294 -249 z "},"Å":{"ha":486,"x_min":24,"x_max":408,"o":"m 358 0 q 326 8 336 0 q 315 36 315 17 l 315 218 q 247 240 297 231 q 153 253 197 250 q 131 182 138 224 l 125 154 q 117 111 124 144 q 101 53 110 78 q 85 15 93 29 q 24 43 32 15 q 58 174 39 65 l 104 428 q 160 736 135 608 q 215 950 186 864 q 276 1046 247 1046 q 321 1035 306 1046 q 347 767 321 979 q 375 482 375 558 q 390 271 375 408 q 404 47 404 131 q 358 0 404 0 m 286 299 q 314 303 297 299 q 300 454 310 364 q 268 839 268 768 l 268 850 q 230 724 254 836 q 185 485 206 613 q 163 315 164 357 q 286 299 221 299 m 269 1053 q 215 1066 238 1053 q 181 1101 192 1079 q 158 1192 158 1146 q 190 1272 158 1240 q 269 1304 221 1304 q 367 1278 333 1304 q 406 1219 396 1254 q 408 1192 408 1200 q 393 1126 408 1158 q 328 1063 374 1082 q 269 1053 304 1053 m 275 1106 q 317 1115 299 1106 q 344 1139 335 1124 q 358 1189 358 1161 q 338 1235 358 1215 q 276 1254 317 1254 q 228 1229 244 1254 q 213 1164 213 1204 q 232 1125 213 1144 q 275 1106 251 1106 z "},"Ǻ":{"ha":486,"x_min":24,"x_max":489,"o":"m 358 0 q 326 8 336 0 q 315 36 315 17 l 315 218 q 247 240 297 231 q 153 253 197 250 q 131 182 138 224 l 125 154 q 117 111 124 144 q 101 53 110 78 q 85 15 93 29 q 24 43 32 15 q 58 174 39 65 l 104 428 q 160 736 135 608 q 215 950 186 864 q 276 1046 247 1046 q 321 1035 306 1046 q 347 767 321 979 q 375 482 375 558 q 390 271 375 408 q 404 47 404 131 q 358 0 404 0 m 286 299 q 314 303 297 299 q 300 454 310 364 q 268 839 268 768 l 268 850 q 230 724 254 836 q 185 485 206 613 q 163 315 164 357 q 286 299 221 299 m 269 1053 q 215 1066 238 1053 q 181 1101 192 1079 q 158 1192 158 1146 q 190 1272 158 1240 q 269 1304 221 1304 q 367 1278 333 1304 q 406 1219 396 1254 q 408 1192 408 1200 q 393 1126 408 1158 q 328 1063 374 1082 q 269 1053 304 1053 m 275 1106 q 317 1115 299 1106 q 344 1139 335 1124 q 358 1189 358 1161 q 338 1235 358 1215 q 276 1254 317 1254 q 228 1229 244 1254 q 213 1164 213 1204 q 232 1125 213 1144 q 275 1106 251 1106 m 265 1328 q 250 1333 257 1328 q 243 1346 243 1338 q 250 1360 243 1353 l 272 1379 q 350 1447 279 1386 l 432 1518 q 444 1521 438 1521 q 475 1504 461 1521 q 489 1469 489 1488 q 479 1447 489 1453 q 276 1331 429 1408 q 265 1328 274 1328 z "},"Ã":{"ha":486,"x_min":24,"x_max":431,"o":"m 358 0 q 326 8 336 0 q 315 36 315 17 l 315 218 q 247 240 297 231 q 153 253 197 250 q 131 182 138 224 l 125 154 q 117 111 124 144 q 101 53 110 78 q 85 15 93 29 q 24 43 32 15 q 58 174 39 65 l 104 428 q 160 736 135 608 q 215 950 186 864 q 276 1046 247 1046 q 321 1035 306 1046 q 347 767 321 979 q 375 482 375 558 q 390 271 375 408 q 404 47 404 131 q 358 0 404 0 m 286 299 q 314 303 297 299 q 300 454 310 364 q 268 839 268 768 l 268 850 q 230 724 254 836 q 185 485 206 613 q 163 315 164 357 q 286 299 221 299 m 342 1081 q 282 1090 307 1081 q 247 1111 257 1099 q 224 1132 238 1124 q 193 1140 210 1140 q 179 1129 183 1136 q 178 1114 175 1122 l 178 1111 q 157 1086 178 1093 q 121 1097 135 1086 q 107 1126 107 1107 q 135 1184 107 1161 q 208 1207 163 1207 q 268 1179 224 1207 q 325 1151 313 1151 q 345 1160 338 1151 q 354 1179 353 1168 q 365 1199 357 1190 q 385 1207 372 1207 q 419 1197 407 1207 q 431 1171 431 1186 q 404 1108 431 1135 q 342 1081 378 1081 z "},"Æ":{"ha":682,"x_min":74,"x_max":619,"o":"m 347 1 l 349 1 q 360 172 360 131 l 357 300 q 353 429 353 388 q 324 428 338 429 q 264 422 296 426 q 249 419 260 421 q 233 414 239 417 l 165 153 q 158 117 161 142 q 146 64 153 89 q 129 21 139 39 q 100 0 115 0 q 82 10 90 0 q 74 32 74 21 q 111 253 74 103 q 194 556 149 399 l 235 689 q 281 838 269 801 q 313 936 304 913 q 317 954 314 942 q 324 976 321 967 q 331 996 328 985 q 342 1015 338 1011 q 348 1024 344 1019 q 354 1032 351 1028 q 390 1047 368 1047 l 444 1050 q 497 1054 479 1054 q 557 1015 557 1054 l 557 1013 l 543 983 q 411 976 464 983 q 417 888 411 942 q 421 790 421 825 l 418 638 q 417 486 417 571 q 464 493 426 486 q 517 499 508 499 l 524 499 l 551 465 q 475 421 551 421 l 469 421 l 415 422 l 418 246 q 419 56 419 164 q 496 63 440 56 q 574 69 539 69 q 606 60 592 69 q 619 36 619 51 q 454 -8 619 -8 l 433 -8 q 404 -18 419 -8 q 378 -29 386 -29 l 347 1 m 247 467 q 350 479 313 471 l 351 525 q 354 618 351 543 q 356 782 356 689 q 354 869 356 850 q 247 467 278 608 z "},"Ǽ":{"ha":682,"x_min":74,"x_max":621,"o":"m 347 1 l 349 1 q 360 172 360 131 l 357 300 q 353 429 353 388 q 324 428 338 429 q 264 422 296 426 q 249 419 260 421 q 233 414 239 417 l 165 153 q 158 117 161 142 q 146 64 153 89 q 129 21 139 39 q 100 0 115 0 q 82 10 90 0 q 74 32 74 21 q 111 253 74 103 q 194 556 149 399 l 235 689 q 281 838 269 801 q 313 936 304 913 q 317 954 314 942 q 324 976 321 967 q 331 996 328 985 q 342 1015 338 1011 q 348 1024 344 1019 q 354 1032 351 1028 q 390 1047 368 1047 l 444 1050 q 497 1054 479 1054 q 557 1015 557 1054 l 557 1013 l 543 983 q 411 976 464 983 q 417 888 411 942 q 421 790 421 825 l 418 638 q 417 486 417 571 q 464 493 426 486 q 517 499 508 499 l 524 499 l 551 465 q 475 421 551 421 l 469 421 l 415 422 l 418 246 q 419 56 419 164 q 496 63 440 56 q 574 69 539 69 q 606 60 592 69 q 619 36 619 51 q 454 -8 619 -8 l 433 -8 q 404 -18 419 -8 q 378 -29 386 -29 l 347 1 m 247 467 q 350 479 313 471 l 351 525 q 354 618 351 543 q 356 782 356 689 q 354 869 356 850 q 247 467 278 608 m 397 1076 q 382 1081 389 1076 q 375 1094 375 1086 q 382 1108 375 1101 l 404 1128 q 482 1196 411 1135 l 564 1267 q 576 1269 569 1269 q 607 1253 593 1269 q 621 1218 621 1236 q 611 1196 621 1201 q 408 1079 561 1157 q 397 1076 406 1076 z "},"Ǣ":{"ha":682,"x_min":74,"x_max":619,"o":"m 347 1 l 349 1 q 360 172 360 131 l 357 300 q 353 429 353 388 q 324 428 338 429 q 264 422 296 426 q 249 419 260 421 q 233 414 239 417 l 165 153 q 158 117 161 142 q 146 64 153 89 q 129 21 139 39 q 100 0 115 0 q 82 10 90 0 q 74 32 74 21 q 111 253 74 103 q 194 556 149 399 l 235 689 q 281 838 269 801 q 313 936 304 913 q 317 954 314 942 q 324 976 321 967 q 331 996 328 985 q 342 1015 338 1011 q 348 1024 344 1019 q 354 1032 351 1028 q 390 1047 368 1047 l 444 1050 q 497 1054 479 1054 q 557 1015 557 1054 l 557 1013 l 543 983 q 411 976 464 983 q 417 888 411 942 q 421 790 421 825 l 418 638 q 417 486 417 571 q 464 493 426 486 q 517 499 508 499 l 524 499 l 551 465 q 475 421 551 421 l 469 421 l 415 422 l 418 246 q 419 56 419 164 q 496 63 440 56 q 574 69 539 69 q 606 60 592 69 q 619 36 619 51 q 454 -8 619 -8 l 433 -8 q 404 -18 419 -8 q 378 -29 386 -29 l 347 1 m 247 467 q 350 479 313 471 l 351 525 q 354 618 351 543 q 356 782 356 689 q 354 869 356 850 q 247 467 278 608 m 276 1114 q 221 1158 221 1114 q 230 1181 221 1172 q 253 1189 239 1189 l 457 1189 l 499 1192 q 542 1193 518 1193 q 608 1153 608 1193 q 598 1129 608 1138 q 569 1121 588 1121 q 424 1117 522 1121 l 276 1114 z "},"B":{"ha":436,"x_min":82,"x_max":389,"o":"m 149 -11 q 85 24 85 -11 l 88 194 l 90 365 q 86 647 90 458 q 82 929 82 835 l 82 938 q 89 1004 82 974 q 133 1042 97 1042 q 288 979 231 1042 q 344 814 344 917 q 311 683 344 751 q 232 582 278 615 q 351 442 313 528 q 389 254 389 357 q 356 133 389 206 q 246 10 315 47 q 154 -11 204 -11 l 149 -11 m 163 603 q 224 663 199 611 q 263 757 244 701 q 276 796 267 772 l 276 844 q 246 925 276 886 q 176 964 215 964 q 157 921 157 964 q 160 757 157 829 l 163 603 m 168 61 q 276 124 236 71 q 317 250 317 176 q 306 367 317 314 q 279 449 296 421 q 249 493 264 475 q 222 517 233 511 l 211 521 l 161 521 q 168 61 168 361 z "},"Ḃ":{"ha":436,"x_min":82,"x_max":389,"o":"m 149 -11 q 85 24 85 -11 l 88 194 l 90 365 q 86 647 90 458 q 82 929 82 835 l 82 938 q 89 1004 82 974 q 133 1042 97 1042 q 288 979 231 1042 q 344 814 344 917 q 311 683 344 751 q 232 582 278 615 q 351 442 313 528 q 389 254 389 357 q 356 133 389 206 q 246 10 315 47 q 154 -11 204 -11 l 149 -11 m 163 603 q 224 663 199 611 q 263 757 244 701 q 276 796 267 772 l 276 844 q 246 925 276 886 q 176 964 215 964 q 157 921 157 964 q 160 757 157 829 l 163 603 m 168 61 q 276 124 236 71 q 317 250 317 176 q 306 367 317 314 q 279 449 296 421 q 249 493 264 475 q 222 517 233 511 l 211 521 l 161 521 q 168 61 168 361 m 181 1110 q 149 1125 163 1110 q 135 1160 135 1140 q 150 1197 135 1181 q 186 1213 165 1213 q 221 1197 206 1213 q 236 1161 236 1181 q 220 1124 236 1139 q 181 1110 204 1110 z "},"C":{"ha":468,"x_min":61,"x_max":444,"o":"m 275 -22 q 203 -4 236 -22 q 147 44 171 14 q 110 119 126 74 q 85 213 93 164 q 63 428 68 294 q 61 538 61 460 l 61 625 q 63 703 63 663 q 72 832 63 785 q 68 875 68 853 q 131 1010 68 958 q 289 1061 193 1061 q 356 1042 325 1061 q 386 993 386 1022 q 375 971 386 979 q 347 963 364 963 q 317 967 333 963 q 297 979 301 971 l 279 979 l 279 982 q 193 960 228 982 q 154 900 168 942 q 146 861 149 885 q 143 818 143 838 q 142 774 142 807 l 144 725 l 146 678 q 140 629 146 657 q 133 581 133 594 l 133 547 q 138 399 133 493 q 156 240 139 319 q 203 115 168 167 q 293 63 236 63 q 351 88 317 63 q 404 113 389 113 q 444 92 424 113 q 406 13 444 40 q 319 -19 369 -12 q 275 -22 292 -22 z "},"Ć":{"ha":468,"x_min":61,"x_max":444,"o":"m 275 -22 q 203 -4 236 -22 q 147 44 171 14 q 110 119 126 74 q 85 213 93 164 q 63 428 68 294 q 61 538 61 460 l 61 625 q 63 703 63 663 q 72 832 63 785 q 68 875 68 853 q 131 1010 68 958 q 289 1061 193 1061 q 356 1042 325 1061 q 386 993 386 1022 q 375 971 386 979 q 347 963 364 963 q 317 967 333 963 q 297 979 301 971 l 279 979 l 279 982 q 193 960 228 982 q 154 900 168 942 q 146 861 149 885 q 143 818 143 838 q 142 774 142 807 l 144 725 l 146 678 q 140 629 146 657 q 133 581 133 594 l 133 547 q 138 399 133 493 q 156 240 139 319 q 203 115 168 167 q 293 63 236 63 q 351 88 317 63 q 404 113 389 113 q 444 92 424 113 q 406 13 444 40 q 319 -19 369 -12 q 275 -22 292 -22 m 217 1076 q 201 1081 208 1076 q 194 1094 194 1086 q 201 1108 194 1101 l 224 1128 q 301 1196 231 1135 l 383 1267 q 396 1269 389 1269 q 426 1253 413 1269 q 440 1218 440 1236 q 431 1196 440 1201 q 228 1079 381 1157 q 217 1076 225 1076 z "},"Č":{"ha":468,"x_min":61,"x_max":444,"o":"m 275 -22 q 203 -4 236 -22 q 147 44 171 14 q 110 119 126 74 q 85 213 93 164 q 63 428 68 294 q 61 538 61 460 l 61 625 q 63 703 63 663 q 72 832 63 785 q 68 875 68 853 q 131 1010 68 958 q 289 1061 193 1061 q 356 1042 325 1061 q 386 993 386 1022 q 375 971 386 979 q 347 963 364 963 q 317 967 333 963 q 297 979 301 971 l 279 979 l 279 982 q 193 960 228 982 q 154 900 168 942 q 146 861 149 885 q 143 818 143 838 q 142 774 142 807 l 144 725 l 146 678 q 140 629 146 657 q 133 581 133 594 l 133 547 q 138 399 133 493 q 156 240 139 319 q 203 115 168 167 q 293 63 236 63 q 351 88 317 63 q 404 113 389 113 q 444 92 424 113 q 406 13 444 40 q 319 -19 369 -12 q 275 -22 292 -22 m 256 1088 q 208 1141 239 1088 q 153 1260 178 1194 q 129 1350 129 1325 q 140 1369 129 1361 q 163 1378 150 1378 q 197 1338 178 1378 q 232 1235 211 1306 l 250 1171 q 256 1217 254 1204 q 261 1263 257 1229 q 272 1325 265 1297 q 311 1382 283 1382 q 332 1374 324 1382 q 340 1353 340 1365 q 335 1342 340 1349 l 329 1332 l 329 1307 l 310 1231 q 290 1132 290 1150 q 256 1088 290 1088 z "},"Ç":{"ha":468,"x_min":61,"x_max":444,"o":"m 275 -22 q 203 -4 236 -22 q 147 44 171 14 q 110 119 126 74 q 85 213 93 164 q 63 428 68 294 q 61 538 61 460 l 61 625 q 63 703 63 663 q 72 832 63 785 q 68 875 68 853 q 131 1010 68 958 q 289 1061 193 1061 q 356 1042 325 1061 q 386 993 386 1022 q 375 971 386 979 q 347 963 364 963 q 317 967 333 963 q 297 979 301 971 l 279 979 l 279 982 q 193 960 228 982 q 154 900 168 942 q 146 861 149 885 q 143 818 143 838 q 142 774 142 807 l 144 725 l 146 678 q 140 629 146 657 q 133 581 133 594 l 133 547 q 138 399 133 493 q 156 240 139 319 q 203 115 168 167 q 293 63 236 63 q 351 88 317 63 q 404 113 389 113 q 444 92 424 113 q 406 13 444 40 q 319 -19 369 -12 q 275 -22 292 -22 m 246 -304 q 205 -294 224 -304 q 186 -267 186 -283 q 201 -253 186 -253 q 224 -260 207 -253 q 246 -267 240 -267 q 285 -238 269 -267 q 300 -171 300 -210 q 279 -108 300 -125 l 261 -111 l 242 -114 q 204 -86 221 -114 q 215 -6 215 -57 l 215 10 l 256 15 q 250 -56 250 -26 q 351 -194 351 -61 q 337 -242 351 -217 q 297 -286 322 -268 q 246 -304 272 -304 z "},"Ĉ":{"ha":468,"x_min":61,"x_max":444,"o":"m 275 -22 q 203 -4 236 -22 q 147 44 171 14 q 110 119 126 74 q 85 213 93 164 q 63 428 68 294 q 61 538 61 460 l 61 625 q 63 703 63 663 q 72 832 63 785 q 68 875 68 853 q 131 1010 68 958 q 289 1061 193 1061 q 356 1042 325 1061 q 386 993 386 1022 q 375 971 386 979 q 347 963 364 963 q 317 967 333 963 q 297 979 301 971 l 279 979 l 279 982 q 193 960 228 982 q 154 900 168 942 q 146 861 149 885 q 143 818 143 838 q 142 774 142 807 l 144 725 l 146 678 q 140 629 146 657 q 133 581 133 594 l 133 547 q 138 399 133 493 q 156 240 139 319 q 203 115 168 167 q 293 63 236 63 q 351 88 317 63 q 404 113 389 113 q 444 92 424 113 q 406 13 444 40 q 319 -19 369 -12 q 275 -22 292 -22 m 350 1075 q 333 1085 336 1075 l 279 1272 l 208 1094 q 189 1085 204 1085 q 165 1092 175 1085 q 154 1113 154 1100 q 157 1125 154 1121 l 206 1247 q 222 1285 211 1258 q 239 1321 233 1311 q 271 1354 254 1346 q 290 1357 282 1357 q 310 1344 301 1357 q 344 1250 329 1314 l 363 1183 q 381 1117 375 1133 q 382 1104 382 1113 q 372 1083 382 1092 q 350 1075 363 1075 z "},"Ċ":{"ha":468,"x_min":61,"x_max":444,"o":"m 275 -22 q 203 -4 236 -22 q 147 44 171 14 q 110 119 126 74 q 85 213 93 164 q 63 428 68 294 q 61 538 61 460 l 61 625 q 63 703 63 663 q 72 832 63 785 q 68 875 68 853 q 131 1010 68 958 q 289 1061 193 1061 q 356 1042 325 1061 q 386 993 386 1022 q 375 971 386 979 q 347 963 364 963 q 317 967 333 963 q 297 979 301 971 l 279 979 l 279 982 q 193 960 228 982 q 154 900 168 942 q 146 861 149 885 q 143 818 143 838 q 142 774 142 807 l 144 725 l 146 678 q 140 629 146 657 q 133 581 133 594 l 133 547 q 138 399 133 493 q 156 240 139 319 q 203 115 168 167 q 293 63 236 63 q 351 88 317 63 q 404 113 389 113 q 444 92 424 113 q 406 13 444 40 q 319 -19 369 -12 q 275 -22 292 -22 m 231 1110 q 199 1125 213 1110 q 185 1160 185 1140 q 200 1197 185 1181 q 236 1213 215 1213 q 271 1197 256 1213 q 286 1161 286 1181 q 270 1124 286 1139 q 231 1110 254 1110 z "},"D":{"ha":526,"x_min":64,"x_max":442,"o":"m 154 -3 q 106 10 126 -3 q 86 44 86 22 q 117 207 117 75 q 104 438 117 286 q 90 665 90 582 l 93 742 q 94 818 94 775 q 81 917 94 857 q 64 1004 64 979 q 171 1053 64 1053 l 192 1053 q 322 1007 267 1053 q 397 894 367 968 q 433 756 418 844 q 442 633 442 678 l 442 589 l 442 524 q 439 513 439 518 q 440 496 439 501 q 442 482 442 490 q 428 376 442 438 q 390 250 415 314 q 250 33 328 97 q 154 -3 204 -3 m 183 78 q 274 170 235 110 q 333 304 313 231 q 371 579 371 440 q 357 743 371 654 q 292 899 342 829 q 232 951 268 932 q 150 969 196 969 l 150 968 q 167 590 150 843 q 183 210 183 339 l 183 78 z "},"Ǳ":{"ha":889,"x_min":64,"x_max":800,"o":"m 154 -3 q 106 10 126 -3 q 86 44 86 22 q 117 207 117 75 q 104 438 117 286 q 90 665 90 582 l 93 742 q 94 818 94 775 q 81 917 94 857 q 64 1004 64 979 q 171 1053 64 1053 l 192 1053 q 322 1007 267 1053 q 397 894 367 968 q 433 756 418 844 q 442 633 442 678 l 442 589 l 442 524 q 439 513 439 518 q 440 496 439 501 q 442 482 442 490 q 428 376 442 438 q 390 250 415 314 q 250 33 328 97 q 154 -3 204 -3 m 183 78 q 274 170 235 110 q 333 304 313 231 q 371 579 371 440 q 357 743 371 654 q 292 899 342 829 q 232 951 268 932 q 150 969 196 969 l 150 968 q 167 590 150 843 q 183 210 183 339 l 183 78 m 600 -12 q 560 21 575 -12 q 630 273 590 68 q 697 697 669 478 q 728 983 725 913 l 678 979 q 649 978 668 978 q 574 1021 574 978 l 574 1028 l 592 1050 l 592 1051 q 632 1046 608 1046 q 697 1054 654 1046 q 763 1061 746 1061 q 790 1049 779 1061 q 800 1021 800 1038 q 646 58 800 656 l 676 60 q 719 63 694 63 q 793 21 793 63 l 793 14 l 771 -7 l 686 -10 q 600 -12 647 -12 z "},"Ǆ":{"ha":889,"x_min":64,"x_max":813,"o":"m 154 -3 q 106 10 126 -3 q 86 44 86 22 q 117 207 117 75 q 104 438 117 286 q 90 665 90 582 l 93 742 q 94 818 94 775 q 81 917 94 857 q 64 1004 64 979 q 171 1053 64 1053 l 192 1053 q 322 1007 267 1053 q 397 894 367 968 q 433 756 418 844 q 442 633 442 678 l 442 589 l 442 524 q 439 513 439 518 q 440 496 439 501 q 442 482 442 490 q 428 376 442 438 q 390 250 415 314 q 250 33 328 97 q 154 -3 204 -3 m 183 78 q 274 170 235 110 q 333 304 313 231 q 371 579 371 440 q 357 743 371 654 q 292 899 342 829 q 232 951 268 932 q 150 969 196 969 l 150 968 q 167 590 150 843 q 183 210 183 339 l 183 78 m 600 -12 q 560 21 575 -12 q 630 273 590 68 q 697 697 669 478 q 728 983 725 913 l 678 979 q 649 978 668 978 q 574 1021 574 978 l 574 1028 l 592 1050 l 592 1051 q 632 1046 608 1046 q 697 1054 654 1046 q 763 1061 746 1061 q 790 1049 779 1061 q 800 1021 800 1038 q 646 58 800 656 l 676 60 q 719 63 694 63 q 793 21 793 63 l 793 14 l 771 -7 l 686 -10 q 600 -12 647 -12 m 728 1088 q 681 1141 711 1088 q 626 1260 650 1194 q 601 1350 601 1325 q 612 1369 601 1361 q 635 1378 622 1378 q 669 1338 650 1378 q 704 1235 683 1306 l 722 1171 q 728 1217 726 1204 q 733 1263 729 1229 q 744 1325 738 1297 q 783 1382 756 1382 q 804 1374 796 1382 q 813 1353 813 1365 q 807 1342 813 1349 l 801 1332 l 801 1307 l 782 1231 q 763 1132 763 1150 q 728 1088 763 1088 z "},"Ð":{"ha":585,"x_min":1,"x_max":467,"o":"m 458 756 q 467 633 467 678 l 467 589 l 467 524 q 464 513 464 518 q 465 496 464 501 q 467 482 467 490 q 453 376 467 438 q 415 250 440 314 q 275 33 353 97 q 179 -3 229 -3 q 131 10 151 -3 q 111 44 111 22 q 142 207 142 75 q 129 438 142 286 q 124 504 126 460 l 106 503 q 47 500 58 500 q 15 512 29 500 q 1 540 1 524 q 35 569 1 557 q 118 588 63 581 q 115 665 115 649 l 118 742 q 119 818 119 775 q 106 917 119 857 q 89 1004 89 979 q 196 1053 89 1053 l 217 1053 q 290 1040 256 1053 q 347 1007 324 1028 q 422 894 392 968 q 458 756 443 844 m 358 304 q 396 579 396 440 q 382 743 396 654 q 318 899 367 826 q 258 951 294 932 q 175 969 221 969 l 175 968 q 192 594 175 843 l 199 594 q 256 597 246 597 q 288 585 274 597 q 301 557 301 574 q 269 528 301 540 q 197 511 243 518 q 208 210 208 304 l 208 78 q 299 170 260 110 q 358 304 338 231 z "},"Ď":{"ha":526,"x_min":64,"x_max":442,"o":"m 154 -3 q 106 10 126 -3 q 86 44 86 22 q 117 207 117 75 q 104 438 117 286 q 90 665 90 582 l 93 742 q 94 818 94 775 q 81 917 94 857 q 64 1004 64 979 q 171 1053 64 1053 l 192 1053 q 322 1007 267 1053 q 397 894 367 968 q 433 756 418 844 q 442 633 442 678 l 442 589 l 442 524 q 439 513 439 518 q 440 496 439 501 q 442 482 442 490 q 428 376 442 438 q 390 250 415 314 q 250 33 328 97 q 154 -3 204 -3 m 183 78 q 274 170 235 110 q 333 304 313 231 q 371 579 371 440 q 357 743 371 654 q 292 899 342 829 q 232 951 268 932 q 150 969 196 969 l 150 968 q 167 590 150 843 q 183 210 183 339 l 183 78 m 244 1088 q 197 1141 228 1088 q 142 1260 167 1194 q 118 1350 118 1325 q 128 1369 118 1361 q 151 1378 139 1378 q 186 1338 167 1378 q 221 1235 200 1306 l 239 1171 q 244 1217 243 1204 q 250 1263 246 1229 q 261 1325 254 1297 q 300 1382 272 1382 q 321 1374 313 1382 q 329 1353 329 1365 q 324 1342 329 1349 l 318 1332 l 318 1307 l 299 1231 q 279 1132 279 1150 q 244 1088 279 1088 z "},"Đ":{"ha":585,"x_min":1,"x_max":467,"o":"m 458 756 q 467 633 467 678 l 467 589 l 467 524 q 464 513 464 518 q 465 496 464 501 q 467 482 467 490 q 453 376 467 438 q 415 250 440 314 q 275 33 353 97 q 179 -3 229 -3 q 131 10 151 -3 q 111 44 111 22 q 142 207 142 75 q 129 438 142 286 q 124 504 126 460 l 106 503 q 47 500 58 500 q 15 512 29 500 q 1 540 1 524 q 35 569 1 557 q 118 588 63 581 q 115 665 115 649 l 118 742 q 119 818 119 775 q 106 917 119 857 q 89 1004 89 979 q 196 1053 89 1053 l 217 1053 q 290 1040 256 1053 q 347 1007 324 1028 q 422 894 392 968 q 458 756 443 844 m 358 304 q 396 579 396 440 q 382 743 396 654 q 318 899 367 826 q 258 951 294 932 q 175 969 221 969 l 175 968 q 192 594 175 843 l 199 594 q 256 597 246 597 q 288 585 274 597 q 301 557 301 574 q 269 528 301 540 q 197 511 243 518 q 208 210 208 304 l 208 78 q 299 170 260 110 q 358 304 338 231 z "},"Ḋ":{"ha":526,"x_min":64,"x_max":442,"o":"m 154 -3 q 106 10 126 -3 q 86 44 86 22 q 117 207 117 75 q 104 438 117 286 q 90 665 90 582 l 93 742 q 94 818 94 775 q 81 917 94 857 q 64 1004 64 979 q 171 1053 64 1053 l 192 1053 q 322 1007 267 1053 q 397 894 367 968 q 433 756 418 844 q 442 633 442 678 l 442 589 l 442 524 q 439 513 439 518 q 440 496 439 501 q 442 482 442 490 q 428 376 442 438 q 390 250 415 314 q 250 33 328 97 q 154 -3 204 -3 m 183 78 q 274 170 235 110 q 333 304 313 231 q 371 579 371 440 q 357 743 371 654 q 292 899 342 829 q 232 951 268 932 q 150 969 196 969 l 150 968 q 167 590 150 843 q 183 210 183 339 l 183 78 m 219 1110 q 188 1125 201 1110 q 174 1160 174 1140 q 189 1197 174 1181 q 225 1213 204 1213 q 260 1197 244 1213 q 275 1161 275 1181 q 259 1124 275 1139 q 219 1110 243 1110 z "},"ǲ":{"ha":932,"x_min":64,"x_max":872,"o":"m 154 -3 q 106 10 126 -3 q 86 44 86 22 q 117 207 117 75 q 104 438 117 286 q 90 665 90 582 l 93 742 q 94 818 94 775 q 81 917 94 857 q 64 1004 64 979 q 171 1053 64 1053 l 192 1053 q 322 1007 267 1053 q 397 894 367 968 q 433 756 418 844 q 442 633 442 678 l 442 589 l 442 524 q 439 513 439 518 q 440 496 439 501 q 442 482 442 490 q 428 376 442 438 q 390 250 415 314 q 250 33 328 97 q 154 -3 204 -3 m 183 78 q 274 170 235 110 q 333 304 313 231 q 371 579 371 440 q 357 743 371 654 q 292 899 342 829 q 232 951 268 932 q 150 969 196 969 l 150 968 q 167 590 150 843 q 183 210 183 339 l 183 78 m 632 -3 q 606 6 617 -3 q 594 29 594 15 q 627 249 594 113 q 722 585 660 385 q 800 851 785 792 q 746 847 783 851 q 686 843 708 843 q 661 855 672 843 q 650 882 650 867 q 803 922 650 922 q 872 883 872 922 q 842 751 872 839 q 806 633 813 674 q 733 311 792 535 l 672 71 l 697 71 l 726 74 q 756 75 739 75 l 756 76 q 811 42 811 76 q 797 17 811 26 q 763 8 783 8 q 722 10 740 8 l 681 13 q 657 4 672 13 q 632 -3 639 -3 z "},"ǅ":{"ha":932,"x_min":64,"x_max":876,"o":"m 154 -3 q 106 10 126 -3 q 86 44 86 22 q 117 207 117 75 q 104 438 117 286 q 90 665 90 582 l 93 742 q 94 818 94 775 q 81 917 94 857 q 64 1004 64 979 q 171 1053 64 1053 l 192 1053 q 322 1007 267 1053 q 397 894 367 968 q 433 756 418 844 q 442 633 442 678 l 442 589 l 442 524 q 439 513 439 518 q 440 496 439 501 q 442 482 442 490 q 428 376 442 438 q 390 250 415 314 q 250 33 328 97 q 154 -3 204 -3 m 183 78 q 274 170 235 110 q 333 304 313 231 q 371 579 371 440 q 357 743 371 654 q 292 899 342 829 q 232 951 268 932 q 150 969 196 969 l 150 968 q 167 590 150 843 q 183 210 183 339 l 183 78 m 632 -3 q 606 6 617 -3 q 594 29 594 15 q 627 249 594 113 q 722 585 660 385 q 800 851 785 792 q 746 847 783 851 q 686 843 708 843 q 661 855 672 843 q 650 882 650 867 q 803 922 650 922 q 872 883 872 922 q 842 751 872 839 q 806 633 813 674 q 733 311 792 535 l 672 71 l 697 71 l 726 74 q 756 75 739 75 l 756 76 q 811 42 811 76 q 797 17 811 26 q 763 8 783 8 q 722 10 740 8 l 681 13 q 657 4 672 13 q 632 -3 639 -3 m 792 961 q 744 1015 775 961 q 690 1133 714 1068 q 665 1224 665 1199 q 676 1243 665 1235 q 699 1251 686 1251 q 733 1211 714 1251 q 768 1108 747 1179 l 786 1044 q 792 1090 790 1078 q 797 1137 793 1103 q 808 1199 801 1171 q 847 1256 819 1256 q 868 1247 860 1256 q 876 1226 876 1239 q 871 1215 876 1222 l 865 1206 l 865 1181 l 846 1104 q 826 1006 826 1024 q 792 961 826 961 z "},"E":{"ha":386,"x_min":75,"x_max":325,"o":"m 163 -8 q 117 -1 136 -8 q 93 38 93 6 l 93 844 q 85 915 93 868 q 75 986 75 958 l 75 990 q 110 1040 99 1029 q 161 1046 129 1040 q 213 1051 190 1051 q 256 1038 235 1051 q 276 1007 276 1025 q 213 965 276 965 l 193 965 q 174 967 185 967 q 158 965 161 967 q 164 851 158 918 l 167 813 l 169 736 q 165 656 169 710 l 163 578 l 182 582 q 228 590 210 590 q 256 578 243 590 q 268 551 268 567 q 258 522 268 535 q 232 508 247 508 l 215 510 l 197 510 q 168 500 176 510 l 168 71 l 246 75 q 325 39 325 75 l 325 33 q 294 6 317 17 q 251 -7 272 -4 l 206 -8 l 163 -8 z "},"É":{"ha":386,"x_min":75,"x_max":372,"o":"m 163 -8 q 117 -1 136 -8 q 93 38 93 6 l 93 844 q 85 915 93 868 q 75 986 75 958 l 75 990 q 110 1040 99 1029 q 161 1046 129 1040 q 213 1051 190 1051 q 256 1038 235 1051 q 276 1007 276 1025 q 213 965 276 965 l 193 965 q 174 967 185 967 q 158 965 161 967 q 164 851 158 918 l 167 813 l 169 736 q 165 656 169 710 l 163 578 l 182 582 q 228 590 210 590 q 256 578 243 590 q 268 551 268 567 q 258 522 268 535 q 232 508 247 508 l 215 510 l 197 510 q 168 500 176 510 l 168 71 l 246 75 q 325 39 325 75 l 325 33 q 294 6 317 17 q 251 -7 272 -4 l 206 -8 l 163 -8 m 149 1096 q 133 1101 140 1096 q 126 1114 126 1106 q 133 1128 126 1121 l 156 1147 q 233 1215 163 1154 l 315 1286 q 328 1289 321 1289 q 358 1272 344 1289 q 372 1238 372 1256 q 363 1215 372 1221 q 160 1099 313 1176 q 149 1096 157 1096 z "},"Ĕ":{"ha":386,"x_min":75,"x_max":325,"o":"m 163 -8 q 117 -1 136 -8 q 93 38 93 6 l 93 844 q 85 915 93 868 q 75 986 75 958 l 75 990 q 110 1040 99 1029 q 161 1046 129 1040 q 213 1051 190 1051 q 256 1038 235 1051 q 276 1007 276 1025 q 213 965 276 965 l 193 965 q 174 967 185 967 q 158 965 161 967 q 164 851 158 918 l 167 813 l 169 736 q 165 656 169 710 l 163 578 l 182 582 q 228 590 210 590 q 256 578 243 590 q 268 551 268 567 q 258 522 268 535 q 232 508 247 508 l 215 510 l 197 510 q 168 500 176 510 l 168 71 l 246 75 q 325 39 325 75 l 325 33 q 294 6 317 17 q 251 -7 272 -4 l 206 -8 l 163 -8 m 200 1118 q 144 1133 168 1118 q 107 1174 119 1147 q 82 1283 82 1222 q 90 1298 82 1292 q 108 1304 97 1304 q 136 1286 124 1304 q 156 1243 149 1268 q 174 1200 163 1218 q 196 1182 185 1182 q 231 1203 218 1182 q 243 1246 243 1224 q 251 1286 243 1274 q 282 1299 260 1299 q 308 1288 297 1299 q 319 1264 319 1278 q 317 1229 319 1246 q 276 1149 306 1179 q 200 1118 247 1118 z "},"Ě":{"ha":386,"x_min":61,"x_max":325,"o":"m 163 -8 q 117 -1 136 -8 q 93 38 93 6 l 93 844 q 85 915 93 868 q 75 986 75 958 l 75 990 q 110 1040 99 1029 q 161 1046 129 1040 q 213 1051 190 1051 q 256 1038 235 1051 q 276 1007 276 1025 q 213 965 276 965 l 193 965 q 174 967 185 967 q 158 965 161 967 q 164 851 158 918 l 167 813 l 169 736 q 165 656 169 710 l 163 578 l 182 582 q 228 590 210 590 q 256 578 243 590 q 268 551 268 567 q 258 522 268 535 q 232 508 247 508 l 215 510 l 197 510 q 168 500 176 510 l 168 71 l 246 75 q 325 39 325 75 l 325 33 q 294 6 317 17 q 251 -7 272 -4 l 206 -8 l 163 -8 m 188 1107 q 140 1160 171 1107 q 85 1279 110 1214 q 61 1369 61 1344 q 72 1389 61 1381 q 94 1397 82 1397 q 129 1357 110 1397 q 164 1254 143 1325 l 182 1190 q 188 1236 186 1224 q 193 1283 189 1249 q 204 1344 197 1317 q 243 1401 215 1401 q 264 1393 256 1401 q 272 1372 272 1385 q 267 1361 272 1368 l 261 1351 l 261 1326 l 242 1250 q 222 1151 222 1169 q 188 1107 222 1107 z "},"Ȩ":{"ha":386,"x_min":75,"x_max":325,"o":"m 163 -8 q 117 -1 136 -8 q 93 38 93 6 l 93 844 q 85 915 93 868 q 75 986 75 958 l 75 990 q 110 1040 99 1029 q 161 1046 129 1040 q 213 1051 190 1051 q 256 1038 235 1051 q 276 1007 276 1025 q 213 965 276 965 l 193 965 q 174 967 185 967 q 158 965 161 967 q 164 851 158 918 l 167 813 l 169 736 q 165 656 169 710 l 163 578 l 182 582 q 228 590 210 590 q 256 578 243 590 q 268 551 268 567 q 258 522 268 535 q 232 508 247 508 l 215 510 l 197 510 q 168 500 176 510 l 168 71 l 246 75 q 325 39 325 75 l 325 33 q 294 6 317 17 q 251 -7 272 -4 l 206 -8 l 163 -8 m 204 -304 q 163 -294 182 -304 q 144 -267 144 -283 q 160 -253 144 -253 q 182 -260 165 -253 q 204 -267 199 -267 q 243 -238 228 -267 q 258 -171 258 -210 q 238 -108 258 -125 l 219 -111 l 200 -114 q 163 -86 179 -114 q 174 -6 174 -57 l 174 10 l 214 15 q 208 -56 208 -26 q 310 -194 310 -61 q 295 -242 310 -217 q 256 -286 281 -268 q 204 -304 231 -304 z "},"Ê":{"ha":386,"x_min":75,"x_max":325,"o":"m 163 -8 q 117 -1 136 -8 q 93 38 93 6 l 93 844 q 85 915 93 868 q 75 986 75 958 l 75 990 q 110 1040 99 1029 q 161 1046 129 1040 q 213 1051 190 1051 q 256 1038 235 1051 q 276 1007 276 1025 q 213 965 276 965 l 193 965 q 174 967 185 967 q 158 965 161 967 q 164 851 158 918 l 167 813 l 169 736 q 165 656 169 710 l 163 578 l 182 582 q 228 590 210 590 q 256 578 243 590 q 268 551 268 567 q 258 522 268 535 q 232 508 247 508 l 215 510 l 197 510 q 168 500 176 510 l 168 71 l 246 75 q 325 39 325 75 l 325 33 q 294 6 317 17 q 251 -7 272 -4 l 206 -8 l 163 -8 m 282 1094 q 265 1104 268 1094 l 211 1292 l 140 1114 q 121 1104 136 1104 q 97 1112 107 1104 q 86 1132 86 1119 q 89 1144 86 1140 l 138 1267 q 154 1304 143 1278 q 171 1340 165 1331 q 203 1374 186 1365 q 222 1376 214 1376 q 242 1364 233 1376 q 276 1269 261 1333 l 294 1203 q 313 1136 307 1153 q 314 1124 314 1132 q 304 1103 314 1111 q 282 1094 294 1094 z "},"Ế":{"ha":386,"x_min":51,"x_max":510,"o":"m 163 -8 q 117 -1 136 -8 q 93 38 93 6 l 93 844 q 85 915 93 868 q 75 986 75 958 l 75 990 q 110 1040 99 1029 q 161 1046 129 1040 q 213 1051 190 1051 q 256 1038 235 1051 q 276 1007 276 1025 q 213 965 276 965 l 193 965 q 174 967 185 967 q 158 965 161 967 q 164 851 158 918 l 167 813 l 169 736 q 165 656 169 710 l 163 578 l 182 582 q 228 590 210 590 q 256 578 243 590 q 268 551 268 567 q 258 522 268 535 q 232 508 247 508 l 215 510 l 197 510 q 168 500 176 510 l 168 71 l 246 75 q 325 39 325 75 l 325 33 q 294 6 317 17 q 251 -7 272 -4 l 206 -8 l 163 -8 m 247 1088 q 231 1097 233 1088 l 176 1285 l 106 1107 q 86 1097 101 1097 q 62 1105 72 1097 q 51 1125 51 1113 q 54 1138 51 1133 l 103 1260 q 119 1297 108 1271 q 136 1333 131 1324 q 168 1367 151 1358 q 188 1369 179 1369 q 207 1357 199 1369 q 242 1263 226 1326 l 260 1196 q 278 1129 272 1146 q 279 1117 279 1125 q 269 1096 279 1104 q 247 1088 260 1088 m 286 1238 q 271 1242 278 1238 q 264 1256 264 1247 q 271 1269 264 1263 l 293 1289 q 371 1357 300 1296 l 453 1428 q 465 1431 458 1431 q 496 1414 482 1431 q 510 1379 510 1397 q 500 1357 510 1363 q 297 1240 450 1318 q 286 1238 294 1238 z "},"Ệ":{"ha":386,"x_min":75,"x_max":325,"o":"m 163 -8 q 117 -1 136 -8 q 93 38 93 6 l 93 844 q 85 915 93 868 q 75 986 75 958 l 75 990 q 110 1040 99 1029 q 161 1046 129 1040 q 213 1051 190 1051 q 256 1038 235 1051 q 276 1007 276 1025 q 213 965 276 965 l 193 965 q 174 967 185 967 q 158 965 161 967 q 164 851 158 918 l 167 813 l 169 736 q 165 656 169 710 l 163 578 l 182 582 q 228 590 210 590 q 256 578 243 590 q 268 551 268 567 q 258 522 268 535 q 232 508 247 508 l 215 510 l 197 510 q 168 500 176 510 l 168 71 l 246 75 q 325 39 325 75 l 325 33 q 294 6 317 17 q 251 -7 272 -4 l 206 -8 l 163 -8 m 282 1094 q 265 1104 268 1094 l 211 1292 l 140 1114 q 121 1104 136 1104 q 97 1112 107 1104 q 86 1132 86 1119 q 89 1144 86 1140 l 138 1267 q 154 1304 143 1278 q 171 1340 165 1331 q 203 1374 186 1365 q 222 1376 214 1376 q 242 1364 233 1376 q 276 1269 261 1333 l 294 1203 q 313 1136 307 1153 q 314 1124 314 1132 q 304 1103 314 1111 q 282 1094 294 1094 m 189 -233 q 156 -218 171 -233 q 142 -183 142 -203 q 158 -147 142 -162 q 194 -131 174 -131 q 228 -147 214 -131 q 243 -183 243 -162 q 228 -219 243 -206 q 189 -233 213 -233 z "},"Ề":{"ha":386,"x_min":-154,"x_max":325,"o":"m 163 -8 q 117 -1 136 -8 q 93 38 93 6 l 93 844 q 85 915 93 868 q 75 986 75 958 l 75 990 q 110 1040 99 1029 q 161 1046 129 1040 q 213 1051 190 1051 q 256 1038 235 1051 q 276 1007 276 1025 q 213 965 276 965 l 193 965 q 174 967 185 967 q 158 965 161 967 q 164 851 158 918 l 167 813 l 169 736 q 165 656 169 710 l 163 578 l 182 582 q 228 590 210 590 q 256 578 243 590 q 268 551 268 567 q 258 522 268 535 q 232 508 247 508 l 215 510 l 197 510 q 168 500 176 510 l 168 71 l 246 75 q 325 39 325 75 l 325 33 q 294 6 317 17 q 251 -7 272 -4 l 206 -8 l 163 -8 m 250 1088 q 233 1097 236 1088 l 179 1285 l 108 1107 q 89 1097 104 1097 q 65 1105 75 1097 q 54 1125 54 1113 q 57 1138 54 1133 l 106 1260 q 122 1297 111 1271 q 139 1333 133 1324 q 171 1367 154 1358 q 190 1369 182 1369 q 210 1357 201 1369 q 244 1263 229 1326 l 263 1196 q 281 1129 275 1146 q 282 1117 282 1125 q 272 1096 282 1104 q 250 1088 263 1088 m -584 1506 q -665 1496 -598 1500 q -791 1492 -732 1491 q -854 1500 -851 1493 q -851 1539 -859 1516 q -829 1567 -843 1562 q -758 1562 -821 1570 q -638 1541 -694 1554 q -578 1518 -581 1528 q -584 1506 -574 1509 z "},"Ể":{"ha":386,"x_min":65,"x_max":543,"o":"m 163 -8 q 117 -1 136 -8 q 93 38 93 6 l 93 844 q 85 915 93 868 q 75 986 75 958 l 75 990 q 110 1040 99 1029 q 161 1046 129 1040 q 213 1051 190 1051 q 256 1038 235 1051 q 276 1007 276 1025 q 213 965 276 965 l 193 965 q 174 967 185 967 q 158 965 161 967 q 164 851 158 918 l 167 813 l 169 736 q 165 656 169 710 l 163 578 l 182 582 q 228 590 210 590 q 256 578 243 590 q 268 551 268 567 q 258 522 268 535 q 232 508 247 508 l 215 510 l 197 510 q 168 500 176 510 l 168 71 l 246 75 q 325 39 325 75 l 325 33 q 294 6 317 17 q 251 -7 272 -4 l 206 -8 l 163 -8 m 261 1088 q 244 1097 247 1088 l 190 1285 l 119 1107 q 100 1097 115 1097 q 76 1105 86 1097 q 65 1125 65 1113 q 68 1138 65 1133 l 117 1260 q 133 1297 122 1271 q 150 1333 144 1324 q 182 1367 165 1358 q 201 1369 193 1369 q 221 1357 213 1369 q 256 1263 240 1326 l 274 1196 q 292 1129 286 1146 q 293 1117 293 1125 q 283 1096 293 1104 q 261 1088 274 1088 m 385 1226 q 353 1249 361 1226 q 374 1309 353 1293 q 431 1332 394 1325 q 461 1341 451 1336 q 471 1357 471 1346 q 451 1392 471 1378 q 396 1406 432 1406 q 346 1394 364 1406 q 328 1365 328 1383 q 336 1351 328 1364 q 322 1336 336 1349 q 299 1324 308 1324 q 270 1333 281 1324 q 260 1354 260 1343 l 260 1367 q 294 1440 260 1414 q 393 1465 328 1465 q 512 1433 481 1465 q 543 1357 543 1400 q 523 1306 543 1319 q 465 1283 503 1293 q 431 1274 442 1279 q 419 1256 419 1268 l 419 1231 q 392 1229 393 1231 q 385 1226 386 1226 z "},"Ễ":{"ha":386,"x_min":38,"x_max":361,"o":"m 163 -8 q 117 -1 136 -8 q 93 38 93 6 l 93 844 q 85 915 93 868 q 75 986 75 958 l 75 990 q 110 1040 99 1029 q 161 1046 129 1040 q 213 1051 190 1051 q 256 1038 235 1051 q 276 1007 276 1025 q 213 965 276 965 l 193 965 q 174 967 185 967 q 158 965 161 967 q 164 851 158 918 l 167 813 l 169 736 q 165 656 169 710 l 163 578 l 182 582 q 228 590 210 590 q 256 578 243 590 q 268 551 268 567 q 258 522 268 535 q 232 508 247 508 l 215 510 l 197 510 q 168 500 176 510 l 168 71 l 246 75 q 325 39 325 75 l 325 33 q 294 6 317 17 q 251 -7 272 -4 l 206 -8 l 163 -8 m 282 1094 q 265 1104 268 1094 l 211 1292 l 140 1114 q 121 1104 136 1104 q 97 1112 107 1104 q 86 1132 86 1119 q 89 1144 86 1140 l 138 1267 q 154 1304 143 1278 q 171 1340 165 1331 q 203 1374 186 1365 q 222 1376 214 1376 q 242 1364 233 1376 q 276 1269 261 1333 l 294 1203 q 313 1136 307 1153 q 314 1124 314 1132 q 304 1103 314 1111 q 282 1094 294 1094 m 272 1404 q 213 1413 238 1404 q 178 1435 188 1422 q 154 1456 168 1447 q 124 1464 140 1464 q 110 1453 114 1460 q 108 1438 106 1446 l 108 1435 q 88 1410 108 1417 q 51 1420 65 1410 q 38 1450 38 1431 q 65 1508 38 1485 q 139 1531 93 1531 q 199 1503 154 1531 q 256 1475 243 1475 q 276 1483 268 1475 q 285 1503 283 1492 q 295 1522 288 1514 q 315 1531 303 1531 q 349 1520 338 1531 q 361 1494 361 1510 q 335 1431 361 1458 q 272 1404 308 1404 z "},"Ȅ":{"ha":386,"x_min":-33,"x_max":368,"o":"m 163 -8 q 117 -1 136 -8 q 93 38 93 6 l 93 844 q 85 915 93 868 q 75 986 75 958 l 75 990 q 110 1040 99 1029 q 161 1046 129 1040 q 213 1051 190 1051 q 256 1038 235 1051 q 276 1007 276 1025 q 213 965 276 965 l 193 965 q 174 967 185 967 q 158 965 161 967 q 164 851 158 918 l 167 813 l 169 736 q 165 656 169 710 l 163 578 l 182 582 q 228 590 210 590 q 256 578 243 590 q 268 551 268 567 q 258 522 268 535 q 232 508 247 508 l 215 510 l 197 510 q 168 500 176 510 l 168 71 l 246 75 q 325 39 325 75 l 325 33 q 294 6 317 17 q 251 -7 272 -4 l 206 -8 l 163 -8 m 193 1108 q -21 1310 -18 1306 l -33 1332 q -18 1358 -29 1347 q 7 1368 -7 1368 q 68 1314 18 1368 q 164 1197 121 1256 q 207 1125 207 1139 q 193 1108 207 1108 m 358 1097 q 222 1251 285 1168 q 182 1328 182 1304 q 194 1341 182 1335 q 217 1347 206 1347 q 263 1296 226 1347 q 333 1187 300 1244 q 368 1113 367 1129 l 358 1097 z "},"Ë":{"ha":386,"x_min":38,"x_max":364,"o":"m 163 -8 q 117 -1 136 -8 q 93 38 93 6 l 93 844 q 85 915 93 868 q 75 986 75 958 l 75 990 q 110 1040 99 1029 q 161 1046 129 1040 q 213 1051 190 1051 q 256 1038 235 1051 q 276 1007 276 1025 q 213 965 276 965 l 193 965 q 174 967 185 967 q 158 965 161 967 q 164 851 158 918 l 167 813 l 169 736 q 165 656 169 710 l 163 578 l 182 582 q 228 590 210 590 q 256 578 243 590 q 268 551 268 567 q 258 522 268 535 q 232 508 247 508 l 215 510 l 197 510 q 168 500 176 510 l 168 71 l 246 75 q 325 39 325 75 l 325 33 q 294 6 317 17 q 251 -7 272 -4 l 206 -8 l 163 -8 m 85 1108 q 52 1124 67 1108 q 38 1158 38 1139 q 53 1195 38 1179 q 90 1211 69 1211 q 124 1195 110 1211 q 139 1160 139 1179 q 124 1123 139 1138 q 85 1108 108 1108 m 308 1101 q 276 1117 290 1101 q 261 1151 261 1132 q 277 1188 261 1172 q 314 1204 293 1204 q 349 1188 333 1204 q 364 1153 364 1172 q 348 1116 364 1131 q 308 1101 332 1101 z "},"Ė":{"ha":386,"x_min":75,"x_max":325,"o":"m 163 -8 q 117 -1 136 -8 q 93 38 93 6 l 93 844 q 85 915 93 868 q 75 986 75 958 l 75 990 q 110 1040 99 1029 q 161 1046 129 1040 q 213 1051 190 1051 q 256 1038 235 1051 q 276 1007 276 1025 q 213 965 276 965 l 193 965 q 174 967 185 967 q 158 965 161 967 q 164 851 158 918 l 167 813 l 169 736 q 165 656 169 710 l 163 578 l 182 582 q 228 590 210 590 q 256 578 243 590 q 268 551 268 567 q 258 522 268 535 q 232 508 247 508 l 215 510 l 197 510 q 168 500 176 510 l 168 71 l 246 75 q 325 39 325 75 l 325 33 q 294 6 317 17 q 251 -7 272 -4 l 206 -8 l 163 -8 m 163 1129 q 131 1144 144 1129 q 117 1179 117 1160 q 132 1216 117 1200 q 168 1232 147 1232 q 203 1216 188 1232 q 218 1181 218 1200 q 202 1144 218 1158 q 163 1129 186 1129 z "},"Ẹ":{"ha":386,"x_min":75,"x_max":325,"o":"m 163 -8 q 117 -1 136 -8 q 93 38 93 6 l 93 844 q 85 915 93 868 q 75 986 75 958 l 75 990 q 110 1040 99 1029 q 161 1046 129 1040 q 213 1051 190 1051 q 256 1038 235 1051 q 276 1007 276 1025 q 213 965 276 965 l 193 965 q 174 967 185 967 q 158 965 161 967 q 164 851 158 918 l 167 813 l 169 736 q 165 656 169 710 l 163 578 l 182 582 q 228 590 210 590 q 256 578 243 590 q 268 551 268 567 q 258 522 268 535 q 232 508 247 508 l 215 510 l 197 510 q 168 500 176 510 l 168 71 l 246 75 q 325 39 325 75 l 325 33 q 294 6 317 17 q 251 -7 272 -4 l 206 -8 l 163 -8 m 189 -233 q 156 -218 171 -233 q 142 -183 142 -203 q 158 -147 142 -162 q 194 -131 174 -131 q 228 -147 214 -131 q 243 -183 243 -162 q 228 -219 243 -206 q 189 -233 213 -233 z "},"È":{"ha":386,"x_min":-28,"x_max":325,"o":"m 163 -8 q 117 -1 136 -8 q 93 38 93 6 l 93 844 q 85 915 93 868 q 75 986 75 958 l 75 990 q 110 1040 99 1029 q 161 1046 129 1040 q 213 1051 190 1051 q 256 1038 235 1051 q 276 1007 276 1025 q 213 965 276 965 l 193 965 q 174 967 185 967 q 158 965 161 967 q 164 851 158 918 l 167 813 l 169 736 q 165 656 169 710 l 163 578 l 182 582 q 228 590 210 590 q 256 578 243 590 q 268 551 268 567 q 258 522 268 535 q 232 508 247 508 l 215 510 l 197 510 q 168 500 176 510 l 168 71 l 246 75 q 325 39 325 75 l 325 33 q 294 6 317 17 q 251 -7 272 -4 l 206 -8 l 163 -8 m 228 1101 q 148 1120 213 1101 q 28 1160 83 1139 q -28 1189 -28 1181 q -12 1224 -28 1206 q 18 1243 3 1243 q 83 1214 26 1243 q 189 1153 140 1185 q 238 1111 238 1122 q 228 1101 238 1101 z "},"Ẻ":{"ha":386,"x_min":44,"x_max":328,"o":"m 163 -8 q 117 -1 136 -8 q 93 38 93 6 l 93 844 q 85 915 93 868 q 75 986 75 958 l 75 990 q 110 1040 99 1029 q 161 1046 129 1040 q 213 1051 190 1051 q 256 1038 235 1051 q 276 1007 276 1025 q 213 965 276 965 l 193 965 q 174 967 185 967 q 158 965 161 967 q 164 851 158 918 l 167 813 l 169 736 q 165 656 169 710 l 163 578 l 182 582 q 228 590 210 590 q 256 578 243 590 q 268 551 268 567 q 258 522 268 535 q 232 508 247 508 l 215 510 l 197 510 q 168 500 176 510 l 168 71 l 246 75 q 325 39 325 75 l 325 33 q 294 6 317 17 q 251 -7 272 -4 l 206 -8 l 163 -8 m 169 1103 q 138 1125 146 1103 q 158 1185 138 1169 q 215 1208 179 1201 q 246 1217 236 1213 q 256 1233 256 1222 q 236 1268 256 1254 q 181 1282 217 1282 q 131 1271 149 1282 q 113 1242 113 1260 q 121 1228 113 1240 q 107 1213 121 1225 q 83 1200 93 1200 q 55 1210 65 1200 q 44 1231 44 1219 l 44 1243 q 78 1316 44 1290 q 178 1342 113 1342 q 297 1309 265 1342 q 328 1233 328 1276 q 308 1183 328 1196 q 250 1160 288 1169 q 215 1150 226 1156 q 204 1132 204 1144 l 204 1107 q 176 1106 178 1107 q 169 1103 171 1103 z "},"Ȇ":{"ha":386,"x_min":47,"x_max":325,"o":"m 163 -8 q 117 -1 136 -8 q 93 38 93 6 l 93 844 q 85 915 93 868 q 75 986 75 958 l 75 990 q 110 1040 99 1029 q 161 1046 129 1040 q 213 1051 190 1051 q 256 1038 235 1051 q 276 1007 276 1025 q 213 965 276 965 l 193 965 q 174 967 185 967 q 158 965 161 967 q 164 851 158 918 l 167 813 l 169 736 q 165 656 169 710 l 163 578 l 182 582 q 228 590 210 590 q 256 578 243 590 q 268 551 268 567 q 258 522 268 535 q 232 508 247 508 l 215 510 l 197 510 q 168 500 176 510 l 168 71 l 246 75 q 325 39 325 75 l 325 33 q 294 6 317 17 q 251 -7 272 -4 l 206 -8 l 163 -8 m 47 1115 q 72 1225 47 1175 q 109 1265 85 1250 q 165 1279 133 1279 q 209 1272 192 1279 q 239 1249 226 1265 q 260 1217 253 1231 q 276 1179 267 1203 l 279 1174 l 282 1168 l 279 1163 q 278 1157 279 1157 l 285 1135 q 274 1110 285 1121 q 247 1099 263 1099 q 217 1111 225 1099 q 208 1151 208 1124 q 198 1192 208 1168 q 176 1215 188 1215 l 147 1215 q 114 1144 126 1201 q 99 1108 110 1122 q 74 1093 89 1093 l 47 1115 z "},"Ē":{"ha":386,"x_min":-28,"x_max":360,"o":"m 163 -8 q 117 -1 136 -8 q 93 38 93 6 l 93 844 q 85 915 93 868 q 75 986 75 958 l 75 990 q 110 1040 99 1029 q 161 1046 129 1040 q 213 1051 190 1051 q 256 1038 235 1051 q 276 1007 276 1025 q 213 965 276 965 l 193 965 q 174 967 185 967 q 158 965 161 967 q 164 851 158 918 l 167 813 l 169 736 q 165 656 169 710 l 163 578 l 182 582 q 228 590 210 590 q 256 578 243 590 q 268 551 268 567 q 258 522 268 535 q 232 508 247 508 l 215 510 l 197 510 q 168 500 176 510 l 168 71 l 246 75 q 325 39 325 75 l 325 33 q 294 6 317 17 q 251 -7 272 -4 l 206 -8 l 163 -8 m 28 1133 q -28 1178 -28 1133 q -19 1200 -28 1192 q 4 1208 -10 1208 l 208 1208 l 250 1211 q 293 1213 269 1213 q 360 1172 360 1213 q 349 1149 360 1157 q 321 1140 339 1140 q 175 1136 274 1140 l 28 1133 z "},"Ę":{"ha":386,"x_min":75,"x_max":347,"o":"m 163 -8 q 117 -1 136 -8 q 93 38 93 6 l 93 844 q 85 915 93 868 q 75 986 75 958 l 75 990 q 110 1040 99 1029 q 161 1046 129 1040 q 213 1051 190 1051 q 256 1038 235 1051 q 276 1007 276 1025 q 213 965 276 965 l 193 965 q 174 967 185 967 q 158 965 161 967 q 164 851 158 918 l 167 813 l 169 736 q 165 656 169 710 l 163 578 l 182 582 q 228 590 210 590 q 256 578 243 590 q 268 551 268 567 q 258 522 268 535 q 232 508 247 508 l 215 510 l 197 510 q 168 500 176 510 l 168 71 l 246 75 q 325 39 325 75 l 325 33 q 294 6 317 17 q 251 -7 272 -4 l 206 -8 l 163 -8 m 240 -249 q 185 -223 204 -249 q 165 -165 165 -197 q 200 -69 165 -114 q 290 8 235 -24 l 347 8 q 226 -156 226 -85 q 251 -190 226 -190 q 303 -168 272 -190 l 318 -208 q 284 -235 308 -222 q 240 -249 260 -249 z "},"Ẽ":{"ha":386,"x_min":4,"x_max":328,"o":"m 163 -8 q 117 -1 136 -8 q 93 38 93 6 l 93 844 q 85 915 93 868 q 75 986 75 958 l 75 990 q 110 1040 99 1029 q 161 1046 129 1040 q 213 1051 190 1051 q 256 1038 235 1051 q 276 1007 276 1025 q 213 965 276 965 l 193 965 q 174 967 185 967 q 158 965 161 967 q 164 851 158 918 l 167 813 l 169 736 q 165 656 169 710 l 163 578 l 182 582 q 228 590 210 590 q 256 578 243 590 q 268 551 268 567 q 258 522 268 535 q 232 508 247 508 l 215 510 l 197 510 q 168 500 176 510 l 168 71 l 246 75 q 325 39 325 75 l 325 33 q 294 6 317 17 q 251 -7 272 -4 l 206 -8 l 163 -8 m 239 1100 q 179 1109 204 1100 q 144 1131 154 1118 q 121 1151 135 1143 q 90 1160 107 1160 q 76 1149 81 1156 q 75 1133 72 1142 l 75 1131 q 54 1106 75 1113 q 18 1116 32 1106 q 4 1146 4 1126 q 32 1203 4 1181 q 106 1226 60 1226 q 165 1199 121 1226 q 222 1171 210 1171 q 242 1179 235 1171 q 251 1199 250 1188 q 262 1218 254 1210 q 282 1226 269 1226 q 316 1216 304 1226 q 328 1190 328 1206 q 301 1127 328 1154 q 239 1100 275 1100 z "},"F":{"ha":368,"x_min":75,"x_max":293,"o":"m 157 -1 q 117 88 117 -1 q 102 603 117 249 q 75 976 88 957 q 106 1036 75 1015 q 137 1048 117 1043 q 174 1053 157 1053 q 208 1054 182 1054 q 254 1044 240 1054 q 268 1007 268 1033 q 257 984 268 992 q 229 976 246 976 l 215 978 l 196 978 q 157 963 157 978 q 167 774 157 890 q 178 589 175 676 q 215 598 188 592 q 256 604 242 604 q 282 591 271 604 q 293 561 293 578 q 275 533 293 542 q 262 527 272 532 q 235 521 251 522 q 193 517 222 519 l 178 517 q 192 290 178 433 q 204 64 204 140 l 203 58 l 201 56 q 203 38 203 50 q 190 9 203 19 q 157 -1 178 -1 z "},"Ḟ":{"ha":368,"x_min":75,"x_max":293,"o":"m 157 -1 q 117 88 117 -1 q 102 603 117 249 q 75 976 88 957 q 106 1036 75 1015 q 137 1048 117 1043 q 174 1053 157 1053 q 208 1054 182 1054 q 254 1044 240 1054 q 268 1007 268 1033 q 257 984 268 992 q 229 976 246 976 l 215 978 l 196 978 q 157 963 157 978 q 167 774 157 890 q 178 589 175 676 q 215 598 188 592 q 256 604 242 604 q 282 591 271 604 q 293 561 293 578 q 275 533 293 542 q 262 527 272 532 q 235 521 251 522 q 193 517 222 519 l 178 517 q 192 290 178 433 q 204 64 204 140 l 203 58 l 201 56 q 203 38 203 50 q 190 9 203 19 q 157 -1 178 -1 m 179 1110 q 147 1125 161 1110 q 133 1160 133 1140 q 149 1197 133 1181 q 185 1213 164 1213 q 219 1197 204 1213 q 235 1161 235 1181 q 219 1124 235 1139 q 179 1110 203 1110 z "},"G":{"ha":515,"x_min":61,"x_max":488,"o":"m 306 -36 q 179 10 229 -36 q 106 124 139 43 q 72 272 85 176 q 63 419 63 350 q 61 482 61 438 l 61 529 l 61 585 q 65 728 61 644 q 88 872 71 799 q 140 994 106 944 q 233 1069 175 1047 q 299 1079 268 1079 q 357 1040 357 1079 q 347 1016 357 1025 q 319 1007 336 1007 q 300 1011 314 1007 l 281 1014 q 233 998 254 1014 q 199 951 213 982 q 156 806 167 885 q 139 636 140 708 q 136 504 136 574 l 136 467 q 135 418 135 447 q 142 279 135 347 q 172 140 147 199 q 244 49 194 75 q 303 35 268 35 q 406 93 364 35 q 399 188 404 142 q 382 251 393 235 q 376 251 381 251 q 361 249 371 250 l 328 246 q 281 286 281 246 q 294 308 281 299 q 332 322 308 318 q 401 332 371 332 q 444 311 429 332 q 460 258 460 290 q 474 133 460 213 q 488 10 488 56 q 478 -17 488 -6 q 454 -28 468 -28 q 407 1 419 -28 l 407 3 l 376 -12 q 306 -36 335 -36 z "},"Ǵ":{"ha":515,"x_min":61,"x_max":488,"o":"m 306 -36 q 179 10 229 -36 q 106 124 139 43 q 72 272 85 176 q 63 419 63 350 q 61 482 61 438 l 61 529 l 61 585 q 65 728 61 644 q 88 872 71 799 q 140 994 106 944 q 233 1069 175 1047 q 299 1079 268 1079 q 357 1040 357 1079 q 347 1016 357 1025 q 319 1007 336 1007 q 300 1011 314 1007 l 281 1014 q 233 998 254 1014 q 199 951 213 982 q 156 806 167 885 q 139 636 140 708 q 136 504 136 574 l 136 467 q 135 418 135 447 q 142 279 135 347 q 172 140 147 199 q 244 49 194 75 q 303 35 268 35 q 406 93 364 35 q 399 188 404 142 q 382 251 393 235 q 376 251 381 251 q 361 249 371 250 l 328 246 q 281 286 281 246 q 294 308 281 299 q 332 322 308 318 q 401 332 371 332 q 444 311 429 332 q 460 258 460 290 q 474 133 460 213 q 488 10 488 56 q 478 -17 488 -6 q 454 -28 468 -28 q 407 1 419 -28 l 407 3 l 376 -12 q 306 -36 335 -36 m 206 1090 q 190 1095 197 1090 q 183 1108 183 1100 q 190 1122 183 1115 l 213 1142 q 290 1210 219 1149 l 372 1281 q 385 1283 378 1283 q 415 1267 401 1283 q 429 1232 429 1250 q 419 1210 429 1215 q 217 1093 369 1171 q 206 1090 214 1090 z "},"Ğ":{"ha":515,"x_min":61,"x_max":488,"o":"m 306 -36 q 179 10 229 -36 q 106 124 139 43 q 72 272 85 176 q 63 419 63 350 q 61 482 61 438 l 61 529 l 61 585 q 65 728 61 644 q 88 872 71 799 q 140 994 106 944 q 233 1069 175 1047 q 299 1079 268 1079 q 357 1040 357 1079 q 347 1016 357 1025 q 319 1007 336 1007 q 300 1011 314 1007 l 281 1014 q 233 998 254 1014 q 199 951 213 982 q 156 806 167 885 q 139 636 140 708 q 136 504 136 574 l 136 467 q 135 418 135 447 q 142 279 135 347 q 172 140 147 199 q 244 49 194 75 q 303 35 268 35 q 406 93 364 35 q 399 188 404 142 q 382 251 393 235 q 376 251 381 251 q 361 249 371 250 l 328 246 q 281 286 281 246 q 294 308 281 299 q 332 322 308 318 q 401 332 371 332 q 444 311 429 332 q 460 258 460 290 q 474 133 460 213 q 488 10 488 56 q 478 -17 488 -6 q 454 -28 468 -28 q 407 1 419 -28 l 407 3 l 376 -12 q 306 -36 335 -36 m 257 1113 q 201 1127 225 1113 q 164 1168 176 1142 q 139 1278 139 1217 q 147 1292 139 1286 q 165 1299 154 1299 q 193 1281 181 1299 q 213 1238 206 1263 q 231 1194 219 1213 q 253 1176 242 1176 q 288 1197 275 1176 q 300 1240 300 1218 q 308 1281 300 1268 q 339 1293 317 1293 q 365 1283 354 1293 q 376 1258 376 1272 q 374 1224 376 1240 q 333 1143 363 1174 q 257 1113 304 1113 z "},"Ǧ":{"ha":515,"x_min":61,"x_max":488,"o":"m 306 -36 q 179 10 229 -36 q 106 124 139 43 q 72 272 85 176 q 63 419 63 350 q 61 482 61 438 l 61 529 l 61 585 q 65 728 61 644 q 88 872 71 799 q 140 994 106 944 q 233 1069 175 1047 q 299 1079 268 1079 q 357 1040 357 1079 q 347 1016 357 1025 q 319 1007 336 1007 q 300 1011 314 1007 l 281 1014 q 233 998 254 1014 q 199 951 213 982 q 156 806 167 885 q 139 636 140 708 q 136 504 136 574 l 136 467 q 135 418 135 447 q 142 279 135 347 q 172 140 147 199 q 244 49 194 75 q 303 35 268 35 q 406 93 364 35 q 399 188 404 142 q 382 251 393 235 q 376 251 381 251 q 361 249 371 250 l 328 246 q 281 286 281 246 q 294 308 281 299 q 332 322 308 318 q 401 332 371 332 q 444 311 429 332 q 460 258 460 290 q 474 133 460 213 q 488 10 488 56 q 478 -17 488 -6 q 454 -28 468 -28 q 407 1 419 -28 l 407 3 l 376 -12 q 306 -36 335 -36 m 244 1101 q 197 1155 228 1101 q 142 1274 167 1208 q 118 1364 118 1339 q 128 1383 118 1375 q 151 1392 139 1392 q 186 1351 167 1392 q 221 1249 200 1319 l 239 1185 q 244 1231 243 1218 q 250 1277 246 1243 q 261 1339 254 1311 q 300 1396 272 1396 q 321 1388 313 1396 q 329 1367 329 1379 q 324 1356 329 1363 l 318 1346 l 318 1321 l 299 1244 q 279 1146 279 1164 q 244 1101 279 1101 z "},"Ĝ":{"ha":515,"x_min":61,"x_max":488,"o":"m 306 -36 q 179 10 229 -36 q 106 124 139 43 q 72 272 85 176 q 63 419 63 350 q 61 482 61 438 l 61 529 l 61 585 q 65 728 61 644 q 88 872 71 799 q 140 994 106 944 q 233 1069 175 1047 q 299 1079 268 1079 q 357 1040 357 1079 q 347 1016 357 1025 q 319 1007 336 1007 q 300 1011 314 1007 l 281 1014 q 233 998 254 1014 q 199 951 213 982 q 156 806 167 885 q 139 636 140 708 q 136 504 136 574 l 136 467 q 135 418 135 447 q 142 279 135 347 q 172 140 147 199 q 244 49 194 75 q 303 35 268 35 q 406 93 364 35 q 399 188 404 142 q 382 251 393 235 q 376 251 381 251 q 361 249 371 250 l 328 246 q 281 286 281 246 q 294 308 281 299 q 332 322 308 318 q 401 332 371 332 q 444 311 429 332 q 460 258 460 290 q 474 133 460 213 q 488 10 488 56 q 478 -17 488 -6 q 454 -28 468 -28 q 407 1 419 -28 l 407 3 l 376 -12 q 306 -36 335 -36 m 339 1089 q 322 1099 325 1089 l 268 1286 l 197 1108 q 178 1099 193 1099 q 153 1106 164 1099 q 143 1126 143 1114 q 146 1139 143 1135 l 194 1261 q 211 1299 200 1272 q 228 1335 222 1325 q 260 1368 243 1360 q 279 1371 271 1371 q 299 1358 290 1371 q 333 1264 318 1328 l 351 1197 q 369 1131 364 1147 q 371 1118 371 1126 q 361 1097 371 1106 q 339 1089 351 1089 z "},"Ģ":{"ha":515,"x_min":61,"x_max":488,"o":"m 306 -36 q 179 10 229 -36 q 106 124 139 43 q 72 272 85 176 q 63 419 63 350 q 61 482 61 438 l 61 529 l 61 585 q 65 728 61 644 q 88 872 71 799 q 140 994 106 944 q 233 1069 175 1047 q 299 1079 268 1079 q 357 1040 357 1079 q 347 1016 357 1025 q 319 1007 336 1007 q 300 1011 314 1007 l 281 1014 q 233 998 254 1014 q 199 951 213 982 q 156 806 167 885 q 139 636 140 708 q 136 504 136 574 l 136 467 q 135 418 135 447 q 142 279 135 347 q 172 140 147 199 q 244 49 194 75 q 303 35 268 35 q 406 93 364 35 q 399 188 404 142 q 382 251 393 235 q 376 251 381 251 q 361 249 371 250 l 328 246 q 281 286 281 246 q 294 308 281 299 q 332 322 308 318 q 401 332 371 332 q 444 311 429 332 q 460 258 460 290 q 474 133 460 213 q 488 10 488 56 q 478 -17 488 -6 q 454 -28 468 -28 q 407 1 419 -28 l 407 3 l 376 -12 q 306 -36 335 -36 m 189 -368 q 178 -357 178 -368 q 223 -259 178 -347 q 301 -118 268 -171 q 308 -115 303 -115 q 329 -125 318 -115 q 340 -146 340 -135 q 315 -219 340 -174 q 256 -308 290 -265 q 200 -365 222 -350 q 192 -368 194 -368 l 189 -368 z "},"Ġ":{"ha":515,"x_min":61,"x_max":488,"o":"m 306 -36 q 179 10 229 -36 q 106 124 139 43 q 72 272 85 176 q 63 419 63 350 q 61 482 61 438 l 61 529 l 61 585 q 65 728 61 644 q 88 872 71 799 q 140 994 106 944 q 233 1069 175 1047 q 299 1079 268 1079 q 357 1040 357 1079 q 347 1016 357 1025 q 319 1007 336 1007 q 300 1011 314 1007 l 281 1014 q 233 998 254 1014 q 199 951 213 982 q 156 806 167 885 q 139 636 140 708 q 136 504 136 574 l 136 467 q 135 418 135 447 q 142 279 135 347 q 172 140 147 199 q 244 49 194 75 q 303 35 268 35 q 406 93 364 35 q 399 188 404 142 q 382 251 393 235 q 376 251 381 251 q 361 249 371 250 l 328 246 q 281 286 281 246 q 294 308 281 299 q 332 322 308 318 q 401 332 371 332 q 444 311 429 332 q 460 258 460 290 q 474 133 460 213 q 488 10 488 56 q 478 -17 488 -6 q 454 -28 468 -28 q 407 1 419 -28 l 407 3 l 376 -12 q 306 -36 335 -36 m 219 1124 q 188 1139 201 1124 q 174 1174 174 1154 q 189 1210 174 1194 q 225 1226 204 1226 q 260 1210 244 1226 q 275 1175 275 1194 q 259 1138 275 1153 q 219 1124 243 1124 z "},"H":{"ha":458,"x_min":64,"x_max":367,"o":"m 326 -21 q 299 -8 308 -21 q 290 25 290 6 q 279 515 290 315 q 232 521 246 521 q 150 511 175 521 q 163 276 150 433 q 174 40 174 110 q 165 15 174 26 q 144 3 157 3 q 111 67 126 3 q 75 463 89 161 q 65 901 65 667 q 64 1024 64 944 q 88 1049 64 1049 q 116 1042 101 1049 q 138 1026 131 1035 q 132 922 132 982 q 138 781 132 864 q 142 636 142 685 l 142 611 q 140 585 140 600 q 143 549 140 571 q 171 550 151 549 q 210 554 190 551 q 278 558 256 558 q 275 782 278 679 l 272 1014 l 272 1051 q 304 1045 290 1051 q 325 1029 318 1039 q 340 976 338 1014 l 340 944 q 354 488 340 825 q 367 29 367 182 q 355 -6 367 10 q 326 -21 343 -21 z "},"Ħ":{"ha":458,"x_min":58,"x_max":406,"o":"m 364 856 q 397 838 388 850 q 401 811 406 825 l 364 811 q 375 356 365 640 q 383 35 383 100 q 390 14 390 24 q 379 -17 390 -3 q 354 -32 368 -32 q 333 -22 340 -32 q 325 8 325 -11 l 325 25 q 326 40 326 32 q 313 506 326 218 l 286 508 l 261 513 q 174 499 200 513 q 185 265 174 403 q 197 25 197 99 q 190 3 197 11 q 172 -6 183 -6 q 142 15 146 -6 q 132 115 133 32 q 129 231 129 190 l 128 288 q 125 406 128 369 q 103 808 113 586 l 111 808 q 72 818 86 808 q 58 842 58 828 q 67 851 58 849 q 103 854 75 853 q 100 1044 100 911 l 133 1063 l 161 1039 q 154 932 154 979 q 157 856 154 914 q 232 857 172 857 l 306 858 q 301 1031 301 974 q 306 1060 301 1046 q 338 1051 325 1063 q 357 1015 351 1039 q 364 938 364 986 l 364 856 m 240 561 q 314 567 286 567 q 307 811 314 619 l 160 808 q 167 650 167 681 q 165 621 167 635 l 165 594 q 168 556 165 581 l 240 561 z "},"Ȟ":{"ha":458,"x_min":64,"x_max":367,"o":"m 326 -21 q 299 -8 308 -21 q 290 25 290 6 q 279 515 290 315 q 232 521 246 521 q 150 511 175 521 q 163 276 150 433 q 174 40 174 110 q 165 15 174 26 q 144 3 157 3 q 111 67 126 3 q 75 463 89 161 q 65 901 65 667 q 64 1024 64 944 q 88 1049 64 1049 q 116 1042 101 1049 q 138 1026 131 1035 q 132 922 132 982 q 138 781 132 864 q 142 636 142 685 l 142 611 q 140 585 140 600 q 143 549 140 571 q 171 550 151 549 q 210 554 190 551 q 278 558 256 558 q 275 782 278 679 l 272 1014 l 272 1051 q 304 1045 290 1051 q 325 1029 318 1039 q 340 976 338 1014 l 340 944 q 354 488 340 825 q 367 29 367 182 q 355 -6 367 10 q 326 -21 343 -21 m 224 1088 q 176 1141 207 1088 q 122 1260 146 1194 q 97 1350 97 1325 q 108 1369 97 1361 q 131 1378 118 1378 q 165 1338 146 1378 q 200 1235 179 1306 l 218 1171 q 224 1217 222 1204 q 229 1263 225 1229 q 240 1325 233 1297 q 279 1382 251 1382 q 300 1374 292 1382 q 308 1353 308 1365 q 303 1342 308 1349 l 297 1332 l 297 1307 l 278 1231 q 258 1132 258 1150 q 224 1088 258 1088 z "},"Ĥ":{"ha":458,"x_min":64,"x_max":367,"o":"m 326 -21 q 299 -8 308 -21 q 290 25 290 6 q 279 515 290 315 q 232 521 246 521 q 150 511 175 521 q 163 276 150 433 q 174 40 174 110 q 165 15 174 26 q 144 3 157 3 q 111 67 126 3 q 75 463 89 161 q 65 901 65 667 q 64 1024 64 944 q 88 1049 64 1049 q 116 1042 101 1049 q 138 1026 131 1035 q 132 922 132 982 q 138 781 132 864 q 142 636 142 685 l 142 611 q 140 585 140 600 q 143 549 140 571 q 171 550 151 549 q 210 554 190 551 q 278 558 256 558 q 275 782 278 679 l 272 1014 l 272 1051 q 304 1045 290 1051 q 325 1029 318 1039 q 340 976 338 1014 l 340 944 q 354 488 340 825 q 367 29 367 182 q 355 -6 367 10 q 326 -21 343 -21 m 318 1075 q 301 1085 304 1075 l 247 1272 l 176 1094 q 157 1085 172 1085 q 133 1092 143 1085 q 122 1113 122 1100 q 125 1125 122 1121 l 174 1247 q 190 1285 179 1258 q 207 1321 201 1311 q 239 1354 222 1346 q 258 1357 250 1357 q 278 1344 269 1357 q 313 1250 297 1314 l 331 1183 q 349 1117 343 1133 q 350 1104 350 1113 q 340 1083 350 1092 q 318 1075 331 1075 z "},"I":{"ha":357,"x_min":51,"x_max":300,"o":"m 171 1 q 51 43 51 1 q 93 76 51 76 l 110 76 q 122 75 115 75 q 138 82 133 75 q 143 107 143 89 q 129 429 143 225 q 117 750 117 642 q 118 821 117 789 l 119 892 q 115 968 119 938 q 83 963 100 963 q 51 996 51 963 q 72 1025 51 1013 q 124 1043 92 1038 q 222 1053 182 1053 q 251 1042 239 1053 q 263 1015 263 1031 q 253 989 263 1000 q 231 978 244 978 q 217 979 222 978 l 206 979 q 185 973 192 979 q 179 950 179 967 q 197 544 179 803 q 214 138 214 274 l 214 85 q 242 86 224 86 q 300 38 300 86 l 300 29 l 265 6 q 257 5 264 6 q 229 4 250 4 q 171 1 182 1 z "},"Ĳ":{"ha":729,"x_min":51,"x_max":631,"o":"m 171 1 q 51 43 51 1 q 93 76 51 76 l 110 76 q 122 75 115 75 q 138 82 133 75 q 143 107 143 89 q 129 429 143 225 q 117 750 117 642 q 118 821 117 789 l 119 892 q 115 968 119 938 q 83 963 100 963 q 51 996 51 963 q 72 1025 51 1013 q 124 1043 92 1038 q 222 1053 182 1053 q 251 1042 239 1053 q 263 1015 263 1031 q 253 989 263 1000 q 231 978 244 978 q 217 979 222 978 l 206 979 q 185 973 192 979 q 179 950 179 967 q 197 544 179 803 q 214 138 214 274 l 214 85 q 242 86 224 86 q 300 38 300 86 l 300 29 l 265 6 q 257 5 264 6 q 229 4 250 4 q 171 1 182 1 m 456 -132 q 419 -121 433 -132 q 406 -89 406 -110 q 422 -57 406 -74 q 460 -32 439 -40 q 498 50 481 -6 q 515 164 515 106 l 517 232 q 518 299 518 261 l 517 356 l 510 496 q 479 981 500 771 q 461 976 475 978 q 419 969 439 969 q 395 980 406 969 q 385 1004 385 990 q 550 1053 385 1053 l 568 1053 q 599 1051 588 1053 q 619 1040 610 1049 q 631 1015 631 1032 q 572 979 631 979 q 572 979 572 979 q 571 981 571 979 l 568 981 l 550 981 l 550 969 q 558 863 550 933 q 565 754 565 782 q 579 485 565 656 q 590 214 590 324 l 590 158 l 590 103 q 555 -45 590 19 q 456 -132 519 -110 z "},"Í":{"ha":357,"x_min":51,"x_max":338,"o":"m 171 1 q 51 43 51 1 q 93 76 51 76 l 110 76 q 122 75 115 75 q 138 82 133 75 q 143 107 143 89 q 129 429 143 225 q 117 750 117 642 q 118 821 117 789 l 119 892 q 115 968 119 938 q 83 963 100 963 q 51 996 51 963 q 72 1025 51 1013 q 124 1043 92 1038 q 222 1053 182 1053 q 251 1042 239 1053 q 263 1015 263 1031 q 253 989 263 1000 q 231 978 244 978 q 217 979 222 978 l 206 979 q 185 973 192 979 q 179 950 179 967 q 197 544 179 803 q 214 138 214 274 l 214 85 q 242 86 224 86 q 300 38 300 86 l 300 29 l 265 6 q 257 5 264 6 q 229 4 250 4 q 171 1 182 1 m 114 1090 q 99 1095 106 1090 q 92 1108 92 1100 q 99 1122 92 1115 l 121 1142 q 199 1210 128 1149 l 281 1281 q 293 1283 286 1283 q 324 1267 310 1283 q 338 1232 338 1250 q 328 1210 338 1215 q 125 1093 278 1171 q 114 1090 122 1090 z "},"Ĭ":{"ha":357,"x_min":47,"x_max":300,"o":"m 171 1 q 51 43 51 1 q 93 76 51 76 l 110 76 q 122 75 115 75 q 138 82 133 75 q 143 107 143 89 q 129 429 143 225 q 117 750 117 642 q 118 821 117 789 l 119 892 q 115 968 119 938 q 83 963 100 963 q 51 996 51 963 q 72 1025 51 1013 q 124 1043 92 1038 q 222 1053 182 1053 q 251 1042 239 1053 q 263 1015 263 1031 q 253 989 263 1000 q 231 978 244 978 q 217 979 222 978 l 206 979 q 185 973 192 979 q 179 950 179 967 q 197 544 179 803 q 214 138 214 274 l 214 85 q 242 86 224 86 q 300 38 300 86 l 300 29 l 265 6 q 257 5 264 6 q 229 4 250 4 q 171 1 182 1 m 165 1113 q 109 1127 133 1113 q 72 1168 85 1142 q 47 1278 47 1217 q 55 1292 47 1286 q 74 1299 63 1299 q 101 1281 89 1299 q 121 1238 114 1263 q 139 1194 128 1213 q 161 1176 150 1176 q 196 1197 183 1176 q 208 1240 208 1218 q 217 1281 208 1268 q 247 1293 225 1293 q 274 1283 263 1293 q 285 1258 285 1272 q 282 1224 285 1240 q 242 1143 271 1174 q 165 1113 213 1113 z "},"Ǐ":{"ha":357,"x_min":26,"x_max":300,"o":"m 171 1 q 51 43 51 1 q 93 76 51 76 l 110 76 q 122 75 115 75 q 138 82 133 75 q 143 107 143 89 q 129 429 143 225 q 117 750 117 642 q 118 821 117 789 l 119 892 q 115 968 119 938 q 83 963 100 963 q 51 996 51 963 q 72 1025 51 1013 q 124 1043 92 1038 q 222 1053 182 1053 q 251 1042 239 1053 q 263 1015 263 1031 q 253 989 263 1000 q 231 978 244 978 q 217 979 222 978 l 206 979 q 185 973 192 979 q 179 950 179 967 q 197 544 179 803 q 214 138 214 274 l 214 85 q 242 86 224 86 q 300 38 300 86 l 300 29 l 265 6 q 257 5 264 6 q 229 4 250 4 q 171 1 182 1 m 153 1101 q 106 1155 136 1101 q 51 1274 75 1208 q 26 1364 26 1339 q 37 1383 26 1375 q 60 1392 47 1392 q 94 1351 75 1392 q 129 1249 108 1319 l 147 1185 q 153 1231 151 1218 q 158 1277 154 1243 q 169 1339 163 1311 q 208 1396 181 1396 q 229 1388 221 1396 q 238 1367 238 1379 q 232 1356 238 1363 l 226 1346 l 226 1321 l 207 1244 q 188 1146 188 1164 q 153 1101 188 1101 z "},"Î":{"ha":357,"x_min":51,"x_max":300,"o":"m 171 1 q 51 43 51 1 q 93 76 51 76 l 110 76 q 122 75 115 75 q 138 82 133 75 q 143 107 143 89 q 129 429 143 225 q 117 750 117 642 q 118 821 117 789 l 119 892 q 115 968 119 938 q 83 963 100 963 q 51 996 51 963 q 72 1025 51 1013 q 124 1043 92 1038 q 222 1053 182 1053 q 251 1042 239 1053 q 263 1015 263 1031 q 253 989 263 1000 q 231 978 244 978 q 217 979 222 978 l 206 979 q 185 973 192 979 q 179 950 179 967 q 197 544 179 803 q 214 138 214 274 l 214 85 q 242 86 224 86 q 300 38 300 86 l 300 29 l 265 6 q 257 5 264 6 q 229 4 250 4 q 171 1 182 1 m 247 1089 q 231 1099 233 1089 l 176 1286 l 106 1108 q 86 1099 101 1099 q 62 1106 72 1099 q 51 1126 51 1114 q 54 1139 51 1135 l 103 1261 q 119 1299 108 1272 q 136 1335 131 1325 q 168 1368 151 1360 q 188 1371 179 1371 q 207 1358 199 1371 q 242 1264 226 1328 l 260 1197 q 278 1131 272 1147 q 279 1118 279 1126 q 269 1097 279 1106 q 247 1089 260 1089 z "},"Ȉ":{"ha":357,"x_min":-68,"x_max":333,"o":"m 171 1 q 51 43 51 1 q 93 76 51 76 l 110 76 q 122 75 115 75 q 138 82 133 75 q 143 107 143 89 q 129 429 143 225 q 117 750 117 642 q 118 821 117 789 l 119 892 q 115 968 119 938 q 83 963 100 963 q 51 996 51 963 q 72 1025 51 1013 q 124 1043 92 1038 q 222 1053 182 1053 q 251 1042 239 1053 q 263 1015 263 1031 q 253 989 263 1000 q 231 978 244 978 q 217 979 222 978 l 206 979 q 185 973 192 979 q 179 950 179 967 q 197 544 179 803 q 214 138 214 274 l 214 85 q 242 86 224 86 q 300 38 300 86 l 300 29 l 265 6 q 257 5 264 6 q 229 4 250 4 q 171 1 182 1 m 158 1103 q -56 1304 -53 1300 l -68 1326 q -53 1352 -64 1342 q -28 1363 -42 1363 q 33 1308 -17 1363 q 129 1192 86 1250 q 172 1119 172 1133 q 158 1103 172 1103 m 324 1092 q 188 1246 250 1163 q 147 1322 147 1299 q 159 1335 147 1329 q 182 1342 171 1342 q 228 1290 192 1342 q 299 1181 265 1239 q 333 1107 332 1124 l 324 1092 z "},"Ï":{"ha":357,"x_min":3,"x_max":329,"o":"m 171 1 q 51 43 51 1 q 93 76 51 76 l 110 76 q 122 75 115 75 q 138 82 133 75 q 143 107 143 89 q 129 429 143 225 q 117 750 117 642 q 118 821 117 789 l 119 892 q 115 968 119 938 q 83 963 100 963 q 51 996 51 963 q 72 1025 51 1013 q 124 1043 92 1038 q 222 1053 182 1053 q 251 1042 239 1053 q 263 1015 263 1031 q 253 989 263 1000 q 231 978 244 978 q 217 979 222 978 l 206 979 q 185 973 192 979 q 179 950 179 967 q 197 544 179 803 q 214 138 214 274 l 214 85 q 242 86 224 86 q 300 38 300 86 l 300 29 l 265 6 q 257 5 264 6 q 229 4 250 4 q 171 1 182 1 m 50 1103 q 17 1118 32 1103 q 3 1153 3 1133 q 19 1190 3 1174 q 56 1206 35 1206 q 90 1190 75 1206 q 104 1154 104 1174 q 89 1117 104 1132 q 50 1103 74 1103 m 274 1096 q 241 1111 256 1096 q 226 1146 226 1126 q 242 1183 226 1167 q 279 1199 258 1199 q 314 1183 299 1199 q 329 1147 329 1167 q 313 1110 329 1125 q 274 1096 297 1096 z "},"İ":{"ha":357,"x_min":51,"x_max":300,"o":"m 171 1 q 51 43 51 1 q 93 76 51 76 l 110 76 q 122 75 115 75 q 138 82 133 75 q 143 107 143 89 q 129 429 143 225 q 117 750 117 642 q 118 821 117 789 l 119 892 q 115 968 119 938 q 83 963 100 963 q 51 996 51 963 q 72 1025 51 1013 q 124 1043 92 1038 q 222 1053 182 1053 q 251 1042 239 1053 q 263 1015 263 1031 q 253 989 263 1000 q 231 978 244 978 q 217 979 222 978 l 206 979 q 185 973 192 979 q 179 950 179 967 q 197 544 179 803 q 214 138 214 274 l 214 85 q 242 86 224 86 q 300 38 300 86 l 300 29 l 265 6 q 257 5 264 6 q 229 4 250 4 q 171 1 182 1 m 128 1124 q 96 1139 110 1124 q 82 1174 82 1154 q 97 1210 82 1194 q 133 1226 113 1226 q 168 1210 153 1226 q 183 1175 183 1194 q 167 1138 183 1153 q 128 1124 151 1124 z "},"Ị":{"ha":357,"x_min":51,"x_max":300,"o":"m 171 1 q 51 43 51 1 q 93 76 51 76 l 110 76 q 122 75 115 75 q 138 82 133 75 q 143 107 143 89 q 129 429 143 225 q 117 750 117 642 q 118 821 117 789 l 119 892 q 115 968 119 938 q 83 963 100 963 q 51 996 51 963 q 72 1025 51 1013 q 124 1043 92 1038 q 222 1053 182 1053 q 251 1042 239 1053 q 263 1015 263 1031 q 253 989 263 1000 q 231 978 244 978 q 217 979 222 978 l 206 979 q 185 973 192 979 q 179 950 179 967 q 197 544 179 803 q 214 138 214 274 l 214 85 q 242 86 224 86 q 300 38 300 86 l 300 29 l 265 6 q 257 5 264 6 q 229 4 250 4 q 171 1 182 1 m 175 -233 q 142 -218 157 -233 q 128 -183 128 -203 q 144 -147 128 -162 q 181 -131 160 -131 q 215 -147 200 -131 q 229 -183 229 -162 q 214 -219 229 -206 q 175 -233 199 -233 z "},"Ì":{"ha":357,"x_min":-62,"x_max":300,"o":"m 171 1 q 51 43 51 1 q 93 76 51 76 l 110 76 q 122 75 115 75 q 138 82 133 75 q 143 107 143 89 q 129 429 143 225 q 117 750 117 642 q 118 821 117 789 l 119 892 q 115 968 119 938 q 83 963 100 963 q 51 996 51 963 q 72 1025 51 1013 q 124 1043 92 1038 q 222 1053 182 1053 q 251 1042 239 1053 q 263 1015 263 1031 q 253 989 263 1000 q 231 978 244 978 q 217 979 222 978 l 206 979 q 185 973 192 979 q 179 950 179 967 q 197 544 179 803 q 214 138 214 274 l 214 85 q 242 86 224 86 q 300 38 300 86 l 300 29 l 265 6 q 257 5 264 6 q 229 4 250 4 q 171 1 182 1 m 193 1096 q 113 1115 178 1096 q -7 1154 49 1133 q -62 1183 -62 1175 q -47 1219 -62 1200 q -17 1238 -32 1238 q 49 1208 -8 1238 q 154 1148 106 1179 q 203 1106 203 1117 q 193 1096 203 1096 z "},"Ỉ":{"ha":357,"x_min":10,"x_max":300,"o":"m 171 1 q 51 43 51 1 q 93 76 51 76 l 110 76 q 122 75 115 75 q 138 82 133 75 q 143 107 143 89 q 129 429 143 225 q 117 750 117 642 q 118 821 117 789 l 119 892 q 115 968 119 938 q 83 963 100 963 q 51 996 51 963 q 72 1025 51 1013 q 124 1043 92 1038 q 222 1053 182 1053 q 251 1042 239 1053 q 263 1015 263 1031 q 253 989 263 1000 q 231 978 244 978 q 217 979 222 978 l 206 979 q 185 973 192 979 q 179 950 179 967 q 197 544 179 803 q 214 138 214 274 l 214 85 q 242 86 224 86 q 300 38 300 86 l 300 29 l 265 6 q 257 5 264 6 q 229 4 250 4 q 171 1 182 1 m 135 1097 q 103 1119 111 1097 q 124 1180 103 1164 q 181 1203 144 1196 q 211 1212 201 1207 q 221 1228 221 1217 q 201 1263 221 1249 q 146 1276 182 1276 q 96 1265 114 1276 q 78 1236 78 1254 q 86 1222 78 1235 q 72 1207 86 1219 q 49 1194 58 1194 q 20 1204 31 1194 q 10 1225 10 1214 l 10 1238 q 44 1310 10 1285 q 143 1336 78 1336 q 262 1303 231 1336 q 293 1228 293 1271 q 273 1177 293 1190 q 215 1154 253 1164 q 181 1144 192 1150 q 169 1126 169 1139 l 169 1101 q 142 1100 143 1101 q 135 1097 136 1097 z "},"Ȋ":{"ha":357,"x_min":13,"x_max":300,"o":"m 171 1 q 51 43 51 1 q 93 76 51 76 l 110 76 q 122 75 115 75 q 138 82 133 75 q 143 107 143 89 q 129 429 143 225 q 117 750 117 642 q 118 821 117 789 l 119 892 q 115 968 119 938 q 83 963 100 963 q 51 996 51 963 q 72 1025 51 1013 q 124 1043 92 1038 q 222 1053 182 1053 q 251 1042 239 1053 q 263 1015 263 1031 q 253 989 263 1000 q 231 978 244 978 q 217 979 222 978 l 206 979 q 185 973 192 979 q 179 950 179 967 q 197 544 179 803 q 214 138 214 274 l 214 85 q 242 86 224 86 q 300 38 300 86 l 300 29 l 265 6 q 257 5 264 6 q 229 4 250 4 q 171 1 182 1 m 13 1110 q 38 1219 13 1169 q 74 1259 50 1244 q 131 1274 99 1274 q 174 1267 157 1274 q 204 1243 192 1260 q 225 1211 218 1225 q 242 1174 232 1197 l 244 1168 l 247 1163 l 244 1157 q 243 1151 244 1151 l 250 1129 q 239 1104 250 1115 q 213 1093 228 1093 q 182 1106 190 1093 q 174 1146 174 1118 q 163 1186 174 1163 q 142 1210 153 1210 l 113 1210 q 79 1139 92 1196 q 65 1102 75 1117 q 39 1088 54 1088 l 13 1110 z "},"Ī":{"ha":357,"x_min":-62,"x_max":325,"o":"m 171 1 q 51 43 51 1 q 93 76 51 76 l 110 76 q 122 75 115 75 q 138 82 133 75 q 143 107 143 89 q 129 429 143 225 q 117 750 117 642 q 118 821 117 789 l 119 892 q 115 968 119 938 q 83 963 100 963 q 51 996 51 963 q 72 1025 51 1013 q 124 1043 92 1038 q 222 1053 182 1053 q 251 1042 239 1053 q 263 1015 263 1031 q 253 989 263 1000 q 231 978 244 978 q 217 979 222 978 l 206 979 q 185 973 192 979 q 179 950 179 967 q 197 544 179 803 q 214 138 214 274 l 214 85 q 242 86 224 86 q 300 38 300 86 l 300 29 l 265 6 q 257 5 264 6 q 229 4 250 4 q 171 1 182 1 m -7 1128 q -62 1172 -62 1128 q -53 1194 -62 1186 q -31 1203 -44 1203 l 174 1203 l 215 1206 q 258 1207 235 1207 q 325 1167 325 1207 q 315 1143 325 1151 q 286 1135 304 1135 q 140 1131 239 1135 l -7 1128 z "},"Į":{"ha":357,"x_min":51,"x_max":300,"o":"m 171 1 q 51 43 51 1 q 93 76 51 76 l 110 76 q 122 75 115 75 q 138 82 133 75 q 143 107 143 89 q 129 429 143 225 q 117 750 117 642 q 118 821 117 789 l 119 892 q 115 968 119 938 q 83 963 100 963 q 51 996 51 963 q 72 1025 51 1013 q 124 1043 92 1038 q 222 1053 182 1053 q 251 1042 239 1053 q 263 1015 263 1031 q 253 989 263 1000 q 231 978 244 978 q 217 979 222 978 l 206 979 q 185 973 192 979 q 179 950 179 967 q 197 544 179 803 q 214 138 214 274 l 214 85 q 242 86 224 86 q 300 38 300 86 l 300 29 l 265 6 q 257 5 264 6 q 229 4 250 4 q 171 1 182 1 m 160 -249 q 104 -223 124 -249 q 85 -165 85 -197 q 119 -69 85 -114 q 210 8 154 -24 l 267 8 q 146 -156 146 -85 q 171 -190 146 -190 q 222 -168 192 -190 l 238 -208 q 203 -235 228 -222 q 160 -249 179 -249 z "},"Ĩ":{"ha":357,"x_min":-31,"x_max":300,"o":"m 171 1 q 51 43 51 1 q 93 76 51 76 l 110 76 q 122 75 115 75 q 138 82 133 75 q 143 107 143 89 q 129 429 143 225 q 117 750 117 642 q 118 821 117 789 l 119 892 q 115 968 119 938 q 83 963 100 963 q 51 996 51 963 q 72 1025 51 1013 q 124 1043 92 1038 q 222 1053 182 1053 q 251 1042 239 1053 q 263 1015 263 1031 q 253 989 263 1000 q 231 978 244 978 q 217 979 222 978 l 206 979 q 185 973 192 979 q 179 950 179 967 q 197 544 179 803 q 214 138 214 274 l 214 85 q 242 86 224 86 q 300 38 300 86 l 300 29 l 265 6 q 257 5 264 6 q 229 4 250 4 q 171 1 182 1 m 204 1094 q 144 1103 169 1094 q 110 1125 119 1113 q 86 1146 100 1138 q 56 1154 72 1154 q 42 1143 46 1150 q 40 1128 38 1136 l 40 1125 q 19 1100 40 1107 q -17 1110 -3 1100 q -31 1140 -31 1121 q -3 1198 -31 1175 q 71 1221 25 1221 q 131 1193 86 1221 q 188 1165 175 1165 q 208 1174 200 1165 q 217 1193 215 1182 q 227 1213 219 1204 q 247 1221 235 1221 q 281 1210 269 1221 q 293 1185 293 1200 q 267 1122 293 1149 q 204 1094 240 1094 z "},"J":{"ha":372,"x_min":28,"x_max":274,"o":"m 99 -132 q 63 -121 76 -132 q 49 -89 49 -110 q 65 -57 49 -74 q 103 -32 82 -40 q 141 50 124 -6 q 158 164 158 106 l 160 232 q 161 299 161 261 l 160 356 l 153 496 q 122 981 143 771 q 104 976 118 978 q 63 969 82 969 q 38 980 49 969 q 28 1004 28 990 q 193 1053 28 1053 l 211 1053 q 242 1051 231 1053 q 263 1040 253 1049 q 274 1015 274 1032 q 215 979 274 979 q 215 979 215 979 q 214 981 214 979 l 211 981 l 193 981 l 193 969 q 201 863 193 933 q 208 754 208 782 q 222 485 208 656 q 233 214 233 324 l 233 158 l 233 103 q 198 -45 233 19 q 99 -132 163 -110 z "},"Ĵ":{"ha":372,"x_min":28,"x_max":292,"o":"m 99 -132 q 63 -121 76 -132 q 49 -89 49 -110 q 65 -57 49 -74 q 103 -32 82 -40 q 141 50 124 -6 q 158 164 158 106 l 160 232 q 161 299 161 261 l 160 356 l 153 496 q 122 981 143 771 q 104 976 118 978 q 63 969 82 969 q 38 980 49 969 q 28 1004 28 990 q 193 1053 28 1053 l 211 1053 q 242 1051 231 1053 q 263 1040 253 1049 q 274 1015 274 1032 q 215 979 274 979 q 215 979 215 979 q 214 981 214 979 l 211 981 l 193 981 l 193 969 q 201 863 193 933 q 208 754 208 782 q 222 485 208 656 q 233 214 233 324 l 233 158 l 233 103 q 198 -45 233 19 q 99 -132 163 -110 m 260 1075 q 243 1085 246 1075 l 189 1272 l 118 1094 q 99 1085 114 1085 q 74 1092 85 1085 q 64 1113 64 1100 q 67 1125 64 1121 l 115 1247 q 132 1285 121 1258 q 149 1321 143 1311 q 181 1354 164 1346 q 200 1357 192 1357 q 219 1344 211 1357 q 254 1250 239 1314 l 272 1183 q 290 1117 285 1133 q 292 1104 292 1113 q 282 1083 292 1092 q 260 1075 272 1075 z "},"K":{"ha":494,"x_min":82,"x_max":454,"o":"m 410 -32 q 393 -29 401 -32 q 378 -28 386 -28 q 303 328 340 185 q 208 597 265 471 l 179 543 q 165 501 167 519 q 161 440 161 460 q 165 313 161 399 q 169 183 169 228 l 169 69 q 122 -4 169 -4 q 82 74 82 -4 q 90 261 82 135 q 100 447 100 378 l 101 567 l 101 711 q 92 871 101 788 q 82 1001 82 957 q 93 1032 82 1019 q 121 1044 104 1044 q 172 932 172 1044 l 167 647 l 193 715 q 288 946 239 832 q 338 1044 315 1008 q 375 1082 361 1082 q 402 1072 390 1082 q 414 1046 414 1061 q 339 874 414 1032 q 253 672 265 722 l 253 647 q 364 309 274 594 q 454 7 454 24 q 441 -21 454 -10 q 410 -32 428 -32 z "},"Ǩ":{"ha":494,"x_min":82,"x_max":454,"o":"m 410 -32 q 393 -29 401 -32 q 378 -28 386 -28 q 303 328 340 185 q 208 597 265 471 l 179 543 q 165 501 167 519 q 161 440 161 460 q 165 313 161 399 q 169 183 169 228 l 169 69 q 122 -4 169 -4 q 82 74 82 -4 q 90 261 82 135 q 100 447 100 378 l 101 567 l 101 711 q 92 871 101 788 q 82 1001 82 957 q 93 1032 82 1019 q 121 1044 104 1044 q 172 932 172 1044 l 167 647 l 193 715 q 288 946 239 832 q 338 1044 315 1008 q 375 1082 361 1082 q 402 1072 390 1082 q 414 1046 414 1061 q 339 874 414 1032 q 253 672 265 722 l 253 647 q 364 309 274 594 q 454 7 454 24 q 441 -21 454 -10 q 410 -32 428 -32 m 268 1088 q 221 1141 251 1088 q 166 1260 190 1194 q 142 1350 142 1325 q 152 1369 142 1361 q 175 1378 163 1378 q 210 1338 190 1378 q 244 1235 224 1306 l 263 1171 q 268 1217 267 1204 q 274 1263 269 1229 q 285 1325 278 1297 q 324 1382 296 1382 q 344 1374 336 1382 q 353 1353 353 1365 q 347 1342 353 1349 l 342 1332 l 342 1307 l 322 1231 q 303 1132 303 1150 q 268 1088 303 1088 z "},"Ķ":{"ha":494,"x_min":82,"x_max":454,"o":"m 410 -32 q 393 -29 401 -32 q 378 -28 386 -28 q 303 328 340 185 q 208 597 265 471 l 179 543 q 165 501 167 519 q 161 440 161 460 q 165 313 161 399 q 169 183 169 228 l 169 69 q 122 -4 169 -4 q 82 74 82 -4 q 90 261 82 135 q 100 447 100 378 l 101 567 l 101 711 q 92 871 101 788 q 82 1001 82 957 q 93 1032 82 1019 q 121 1044 104 1044 q 172 932 172 1044 l 167 647 l 193 715 q 288 946 239 832 q 338 1044 315 1008 q 375 1082 361 1082 q 402 1072 390 1082 q 414 1046 414 1061 q 339 874 414 1032 q 253 672 265 722 l 253 647 q 364 309 274 594 q 454 7 454 24 q 441 -21 454 -10 q 410 -32 428 -32 m 178 -368 q 167 -357 167 -368 q 212 -259 167 -347 q 290 -118 257 -171 q 297 -115 292 -115 q 318 -125 307 -115 q 329 -146 329 -135 q 304 -219 329 -174 q 245 -308 279 -265 q 189 -365 211 -350 q 181 -368 183 -368 l 178 -368 z "},"L":{"ha":347,"x_min":82,"x_max":314,"o":"m 147 -15 q 115 -2 129 -15 q 100 29 100 11 q 106 60 100 42 q 110 89 110 79 q 96 564 110 213 q 82 1038 82 864 q 92 1058 82 1050 q 115 1065 101 1065 q 144 1053 132 1065 q 157 1025 157 1042 q 165 775 157 942 q 172 525 172 590 l 174 508 l 174 492 l 174 482 l 174 475 q 178 114 178 354 l 178 78 l 285 78 q 314 36 314 57 q 303 9 314 21 q 279 -3 293 -3 q 264 0 275 -3 l 258 1 q 232 0 250 0 l 208 0 q 186 1 199 1 q 147 -15 172 -15 z "},"Ǉ":{"ha":719,"x_min":82,"x_max":621,"o":"m 147 -15 q 115 -2 129 -15 q 100 29 100 11 q 106 60 100 42 q 110 89 110 79 q 96 564 110 213 q 82 1038 82 864 q 92 1058 82 1050 q 115 1065 101 1065 q 144 1053 132 1065 q 157 1025 157 1042 q 165 775 157 942 q 172 525 172 590 l 174 508 l 174 492 l 174 482 l 174 475 q 178 114 178 354 l 178 78 l 285 78 q 314 36 314 57 q 303 9 314 21 q 279 -3 293 -3 q 264 0 275 -3 l 258 1 q 232 0 250 0 l 208 0 q 186 1 199 1 q 147 -15 172 -15 m 446 -132 q 410 -121 424 -132 q 396 -89 396 -110 q 413 -57 396 -74 q 450 -32 429 -40 q 488 50 471 -6 q 506 164 506 106 l 507 232 q 508 299 508 261 l 507 356 l 500 496 q 469 981 490 771 q 451 976 465 978 q 410 969 429 969 q 385 980 396 969 q 375 1004 375 990 q 540 1053 375 1053 l 558 1053 q 589 1051 578 1053 q 610 1040 600 1049 q 621 1015 621 1032 q 563 979 621 979 q 562 979 563 979 q 561 981 561 979 l 558 981 l 540 981 l 540 969 q 549 863 540 933 q 556 754 556 782 q 569 485 556 656 q 581 214 581 324 l 581 158 l 581 103 q 545 -45 581 19 q 446 -132 510 -110 z "},"Ĺ":{"ha":347,"x_min":74,"x_max":319,"o":"m 147 -15 q 115 -2 129 -15 q 100 29 100 11 q 106 60 100 42 q 110 89 110 79 q 96 564 110 213 q 82 1038 82 864 q 92 1058 82 1050 q 115 1065 101 1065 q 144 1053 132 1065 q 157 1025 157 1042 q 165 775 157 942 q 172 525 172 590 l 174 508 l 174 492 l 174 482 l 174 475 q 178 114 178 354 l 178 78 l 285 78 q 314 36 314 57 q 303 9 314 21 q 279 -3 293 -3 q 264 0 275 -3 l 258 1 q 232 0 250 0 l 208 0 q 186 1 199 1 q 147 -15 172 -15 m 96 1076 q 81 1081 88 1076 q 74 1094 74 1086 q 81 1108 74 1101 l 103 1128 q 181 1196 110 1135 l 263 1267 q 275 1269 268 1269 q 306 1253 292 1269 q 319 1218 319 1236 q 310 1196 319 1201 q 107 1079 260 1157 q 96 1076 104 1076 z "},"Ľ":{"ha":347,"x_min":8,"x_max":314,"o":"m 147 -15 q 115 -2 129 -15 q 100 29 100 11 q 106 60 100 42 q 110 89 110 79 q 96 564 110 213 q 82 1038 82 864 q 92 1058 82 1050 q 115 1065 101 1065 q 144 1053 132 1065 q 157 1025 157 1042 q 165 775 157 942 q 172 525 172 590 l 174 508 l 174 492 l 174 482 l 174 475 q 178 114 178 354 l 178 78 l 285 78 q 314 36 314 57 q 303 9 314 21 q 279 -3 293 -3 q 264 0 275 -3 l 258 1 q 232 0 250 0 l 208 0 q 186 1 199 1 q 147 -15 172 -15 m 135 1088 q 88 1141 118 1088 q 33 1260 57 1194 q 8 1350 8 1325 q 19 1369 8 1361 q 42 1378 29 1378 q 76 1338 57 1378 q 111 1235 90 1306 l 129 1171 q 135 1217 133 1204 q 140 1263 136 1229 q 151 1325 144 1297 q 190 1382 163 1382 q 211 1374 203 1382 q 219 1353 219 1365 q 214 1342 219 1349 l 208 1332 l 208 1307 l 189 1231 q 169 1132 169 1150 q 135 1088 169 1088 z "},"Ļ":{"ha":347,"x_min":82,"x_max":314,"o":"m 147 -15 q 115 -2 129 -15 q 100 29 100 11 q 106 60 100 42 q 110 89 110 79 q 96 564 110 213 q 82 1038 82 864 q 92 1058 82 1050 q 115 1065 101 1065 q 144 1053 132 1065 q 157 1025 157 1042 q 165 775 157 942 q 172 525 172 590 l 174 508 l 174 492 l 174 482 l 174 475 q 178 114 178 354 l 178 78 l 285 78 q 314 36 314 57 q 303 9 314 21 q 279 -3 293 -3 q 264 0 275 -3 l 258 1 q 232 0 250 0 l 208 0 q 186 1 199 1 q 147 -15 172 -15 m 104 -368 q 93 -357 93 -368 q 138 -259 93 -347 q 217 -118 183 -171 q 224 -115 218 -115 q 244 -125 233 -115 q 256 -146 256 -135 q 231 -219 256 -174 q 172 -308 206 -265 q 115 -365 138 -350 q 107 -368 110 -368 l 104 -368 z "},"Ŀ":{"ha":457,"x_min":82,"x_max":450,"o":"m 147 -15 q 115 -2 129 -15 q 100 29 100 11 q 106 60 100 42 q 110 89 110 79 q 96 564 110 213 q 82 1038 82 864 q 92 1058 82 1050 q 115 1065 101 1065 q 144 1053 132 1065 q 157 1025 157 1042 q 165 775 157 942 q 172 525 172 590 l 174 508 l 174 492 l 174 482 l 174 475 q 178 114 178 354 l 178 78 l 285 78 q 314 36 314 57 q 303 9 314 21 q 279 -3 293 -3 q 264 0 275 -3 l 258 1 q 232 0 250 0 l 208 0 q 186 1 199 1 q 147 -15 172 -15 m 394 429 q 363 444 376 429 q 349 479 349 460 q 364 516 349 500 q 400 532 379 532 q 435 516 419 532 q 450 481 450 500 q 434 444 450 458 q 394 429 418 429 z "},"ǈ":{"ha":700,"x_min":82,"x_max":665,"o":"m 147 -15 q 115 -2 129 -15 q 100 29 100 11 q 106 60 100 42 q 110 89 110 79 q 96 564 110 213 q 82 1038 82 864 q 92 1058 82 1050 q 115 1065 101 1065 q 144 1053 132 1065 q 157 1025 157 1042 q 165 775 157 942 q 172 525 172 590 l 174 508 l 174 492 l 174 482 l 174 475 q 178 114 178 354 l 178 78 l 285 78 q 314 36 314 57 q 303 9 314 21 q 279 -3 293 -3 q 264 0 275 -3 l 258 1 q 232 0 250 0 l 208 0 q 186 1 199 1 q 147 -15 172 -15 m 360 -131 q 344 -114 344 -131 l 344 -103 q 346 -90 346 -97 q 365 -76 346 -85 q 456 -31 432 -56 q 494 126 494 13 q 488 482 494 218 q 479 836 479 714 l 479 842 q 466 843 475 842 q 446 844 457 844 q 406 851 421 847 q 376 865 385 857 q 374 876 374 871 q 388 899 374 889 q 418 908 403 908 q 576 899 488 908 q 665 876 665 889 q 655 853 665 863 q 628 844 644 844 l 557 844 q 564 551 557 771 q 571 260 571 389 l 571 111 q 564 29 571 63 q 525 -60 554 -22 q 433 -121 494 -103 q 360 -131 403 -131 z "},"Ł":{"ha":388,"x_min":31,"x_max":331,"o":"m 293 -3 q 279 0 290 -3 q 275 1 276 0 q 272 1 274 1 q 246 0 264 0 l 224 0 l 201 1 l 179 3 l 154 3 q 127 11 139 3 q 115 29 115 19 q 119 60 115 46 q 124 89 124 79 q 111 521 124 233 q 76 511 88 511 q 44 521 58 511 q 31 544 31 531 q 108 592 31 575 q 96 1038 96 890 q 106 1058 96 1050 q 129 1065 115 1065 q 159 1053 146 1065 q 172 1025 172 1042 q 178 803 172 931 q 185 613 185 643 q 304 643 254 643 q 323 633 315 643 q 331 608 331 624 q 186 540 331 561 l 186 539 q 188 518 186 526 l 188 494 l 188 482 l 188 475 q 193 114 193 314 l 193 78 l 299 78 q 328 36 328 57 q 317 9 328 21 q 293 -3 307 -3 z "},"M":{"ha":629,"x_min":75,"x_max":538,"o":"m 483 -36 q 461 -22 469 -36 q 453 18 453 -8 l 451 224 q 450 311 450 250 q 447 603 447 440 l 447 674 q 404 486 435 607 q 361 281 374 361 l 361 272 l 357 246 q 343 183 354 215 q 300 150 329 150 q 250 281 250 150 q 235 435 250 353 q 189 639 221 518 l 147 794 l 144 628 q 151 342 144 553 l 154 247 l 157 57 q 136 4 157 28 q 88 26 101 4 q 75 89 75 47 l 78 203 q 82 315 82 278 l 79 583 l 76 853 q 79 1032 76 913 l 117 1054 q 139 1038 128 1053 q 164 992 150 1024 q 254 647 199 906 q 265 588 263 611 q 289 465 282 507 l 310 358 l 319 404 l 346 518 q 383 693 368 618 q 411 856 397 768 q 431 1029 426 960 l 431 1038 q 447 1066 433 1056 q 481 1076 461 1076 q 503 1065 493 1076 q 513 1042 513 1054 q 525 543 513 875 q 535 225 532 381 q 538 46 538 154 q 521 -11 538 14 q 483 -36 504 -36 z "},"Ṁ":{"ha":629,"x_min":75,"x_max":538,"o":"m 483 -36 q 461 -22 469 -36 q 453 18 453 -8 l 451 224 q 450 311 450 250 q 447 603 447 440 l 447 674 q 404 486 435 607 q 361 281 374 361 l 361 272 l 357 246 q 343 183 354 215 q 300 150 329 150 q 250 281 250 150 q 235 435 250 353 q 189 639 221 518 l 147 794 l 144 628 q 151 342 144 553 l 154 247 l 157 57 q 136 4 157 28 q 88 26 101 4 q 75 89 75 47 l 78 203 q 82 315 82 278 l 79 583 l 76 853 q 79 1032 76 913 l 117 1054 q 139 1038 128 1053 q 164 992 150 1024 q 254 647 199 906 q 265 588 263 611 q 289 465 282 507 l 310 358 l 319 404 l 346 518 q 383 693 368 618 q 411 856 397 768 q 431 1029 426 960 l 431 1038 q 447 1066 433 1056 q 481 1076 461 1076 q 503 1065 493 1076 q 513 1042 513 1054 q 525 543 513 875 q 535 225 532 381 q 538 46 538 154 q 521 -11 538 14 q 483 -36 504 -36 m 311 1110 q 279 1125 293 1110 q 265 1160 265 1140 q 281 1197 265 1181 q 317 1213 296 1213 q 351 1197 336 1213 q 367 1161 367 1181 q 351 1124 367 1139 q 311 1110 335 1110 z "},"N":{"ha":572,"x_min":75,"x_max":483,"o":"m 426 -21 q 313 265 399 -21 q 144 881 215 600 l 144 425 q 156 226 144 367 q 165 29 165 74 q 150 8 165 17 q 115 -1 135 -1 q 86 21 86 -1 l 89 61 q 92 119 92 106 q 83 353 92 193 q 75 550 75 515 l 75 728 q 79 856 75 771 q 85 983 85 929 l 85 992 q 115 1061 85 1061 q 161 1000 133 1061 q 278 642 207 900 q 372 256 318 492 q 394 160 371 261 l 396 153 q 399 394 396 288 l 401 636 l 401 1047 q 446 1082 407 1082 q 483 1028 483 1082 l 483 1019 q 475 979 475 1003 q 471 724 475 894 q 467 465 467 551 l 467 42 q 455 -1 467 19 q 426 -21 443 -21 z "},"Ǌ":{"ha":944,"x_min":75,"x_max":846,"o":"m 426 -21 q 313 265 399 -21 q 144 881 215 600 l 144 425 q 156 226 144 367 q 165 29 165 74 q 150 8 165 17 q 115 -1 135 -1 q 86 21 86 -1 l 89 61 q 92 119 92 106 q 83 353 92 193 q 75 550 75 515 l 75 728 q 79 856 75 771 q 85 983 85 929 l 85 992 q 115 1061 85 1061 q 161 1000 133 1061 q 278 642 207 900 q 372 256 318 492 q 394 160 371 261 l 396 153 q 399 394 396 288 l 401 636 l 401 1047 q 446 1082 407 1082 q 483 1028 483 1082 l 483 1019 q 475 979 475 1003 q 471 724 475 894 q 467 465 467 551 l 467 42 q 455 -1 467 19 q 426 -21 443 -21 m 671 -132 q 635 -121 649 -132 q 621 -89 621 -110 q 638 -57 621 -74 q 675 -32 654 -40 q 713 50 696 -6 q 731 164 731 106 l 732 232 q 733 299 733 261 l 732 356 l 725 496 q 694 981 715 771 q 676 976 690 978 q 635 969 654 969 q 610 980 621 969 q 600 1004 600 990 q 765 1053 600 1053 l 783 1053 q 814 1051 803 1053 q 835 1040 825 1049 q 846 1015 846 1032 q 788 979 846 979 q 787 979 788 979 q 786 981 786 979 l 783 981 l 765 981 l 765 969 q 774 863 765 933 q 781 754 781 782 q 794 485 781 656 q 806 214 806 324 l 806 158 l 806 103 q 770 -45 806 19 q 671 -132 735 -110 z "},"Ń":{"ha":572,"x_min":75,"x_max":492,"o":"m 426 -21 q 313 265 399 -21 q 144 881 215 600 l 144 425 q 156 226 144 367 q 165 29 165 74 q 150 8 165 17 q 115 -1 135 -1 q 86 21 86 -1 l 89 61 q 92 119 92 106 q 83 353 92 193 q 75 550 75 515 l 75 728 q 79 856 75 771 q 85 983 85 929 l 85 992 q 115 1061 85 1061 q 161 1000 133 1061 q 278 642 207 900 q 372 256 318 492 q 394 160 371 261 l 396 153 q 399 394 396 288 l 401 636 l 401 1047 q 446 1082 407 1082 q 483 1028 483 1082 l 483 1019 q 475 979 475 1003 q 471 724 475 894 q 467 465 467 551 l 467 42 q 455 -1 467 19 q 426 -21 443 -21 m 268 1076 q 253 1081 260 1076 q 246 1094 246 1086 q 253 1108 246 1101 l 275 1128 q 353 1196 282 1135 l 435 1267 q 447 1269 440 1269 q 478 1253 464 1269 q 492 1218 492 1236 q 482 1196 492 1201 q 279 1079 432 1157 q 268 1076 276 1076 z "},"Ň":{"ha":572,"x_min":75,"x_max":483,"o":"m 426 -21 q 313 265 399 -21 q 144 881 215 600 l 144 425 q 156 226 144 367 q 165 29 165 74 q 150 8 165 17 q 115 -1 135 -1 q 86 21 86 -1 l 89 61 q 92 119 92 106 q 83 353 92 193 q 75 550 75 515 l 75 728 q 79 856 75 771 q 85 983 85 929 l 85 992 q 115 1061 85 1061 q 161 1000 133 1061 q 278 642 207 900 q 372 256 318 492 q 394 160 371 261 l 396 153 q 399 394 396 288 l 401 636 l 401 1047 q 446 1082 407 1082 q 483 1028 483 1082 l 483 1019 q 475 979 475 1003 q 471 724 475 894 q 467 465 467 551 l 467 42 q 455 -1 467 19 q 426 -21 443 -21 m 307 1088 q 260 1141 290 1088 q 205 1260 229 1194 q 181 1350 181 1325 q 191 1369 181 1361 q 214 1378 201 1378 q 249 1338 229 1378 q 283 1235 263 1306 l 301 1171 q 307 1217 306 1204 q 313 1263 308 1229 q 324 1325 317 1297 q 363 1382 335 1382 q 383 1374 375 1382 q 392 1353 392 1365 q 386 1342 392 1349 l 381 1332 l 381 1307 l 361 1231 q 342 1132 342 1150 q 307 1088 342 1088 z "},"Ņ":{"ha":572,"x_min":75,"x_max":483,"o":"m 426 -21 q 313 265 399 -21 q 144 881 215 600 l 144 425 q 156 226 144 367 q 165 29 165 74 q 150 8 165 17 q 115 -1 135 -1 q 86 21 86 -1 l 89 61 q 92 119 92 106 q 83 353 92 193 q 75 550 75 515 l 75 728 q 79 856 75 771 q 85 983 85 929 l 85 992 q 115 1061 85 1061 q 161 1000 133 1061 q 278 642 207 900 q 372 256 318 492 q 394 160 371 261 l 396 153 q 399 394 396 288 l 401 636 l 401 1047 q 446 1082 407 1082 q 483 1028 483 1082 l 483 1019 q 475 979 475 1003 q 471 724 475 894 q 467 465 467 551 l 467 42 q 455 -1 467 19 q 426 -21 443 -21 m 217 -368 q 206 -357 206 -368 q 251 -259 206 -347 q 329 -118 296 -171 q 336 -115 331 -115 q 357 -125 346 -115 q 368 -146 368 -135 q 343 -219 368 -174 q 284 -308 318 -265 q 228 -365 250 -350 q 219 -368 222 -368 l 217 -368 z "},"Ṇ":{"ha":572,"x_min":75,"x_max":483,"o":"m 426 -21 q 313 265 399 -21 q 144 881 215 600 l 144 425 q 156 226 144 367 q 165 29 165 74 q 150 8 165 17 q 115 -1 135 -1 q 86 21 86 -1 l 89 61 q 92 119 92 106 q 83 353 92 193 q 75 550 75 515 l 75 728 q 79 856 75 771 q 85 983 85 929 l 85 992 q 115 1061 85 1061 q 161 1000 133 1061 q 278 642 207 900 q 372 256 318 492 q 394 160 371 261 l 396 153 q 399 394 396 288 l 401 636 l 401 1047 q 446 1082 407 1082 q 483 1028 483 1082 l 483 1019 q 475 979 475 1003 q 471 724 475 894 q 467 465 467 551 l 467 42 q 455 -1 467 19 q 426 -21 443 -21 m 282 -233 q 249 -218 264 -233 q 235 -183 235 -203 q 251 -147 235 -162 q 288 -131 267 -131 q 322 -147 307 -131 q 336 -183 336 -162 q 321 -219 336 -206 q 282 -233 306 -233 z "},"Ǹ":{"ha":572,"x_min":75,"x_max":483,"o":"m 426 -21 q 313 265 399 -21 q 144 881 215 600 l 144 425 q 156 226 144 367 q 165 29 165 74 q 150 8 165 17 q 115 -1 135 -1 q 86 21 86 -1 l 89 61 q 92 119 92 106 q 83 353 92 193 q 75 550 75 515 l 75 728 q 79 856 75 771 q 85 983 85 929 l 85 992 q 115 1061 85 1061 q 161 1000 133 1061 q 278 642 207 900 q 372 256 318 492 q 394 160 371 261 l 396 153 q 399 394 396 288 l 401 636 l 401 1047 q 446 1082 407 1082 q 483 1028 483 1082 l 483 1019 q 475 979 475 1003 q 471 724 475 894 q 467 465 467 551 l 467 42 q 455 -1 467 19 q 426 -21 443 -21 m 347 1082 q 267 1101 332 1082 q 147 1140 203 1119 q 92 1169 92 1161 q 107 1205 92 1186 q 138 1224 122 1224 q 203 1194 146 1224 q 308 1134 260 1165 q 357 1092 357 1103 q 347 1082 357 1082 z "},"Ŋ":{"ha":646,"x_min":117,"x_max":525,"o":"m 365 -262 q 329 -252 343 -262 q 315 -221 315 -242 q 327 -188 315 -203 q 358 -165 339 -174 q 400 -142 385 -151 q 426 -117 415 -132 q 439 -76 439 -100 l 439 -28 l 439 22 q 328 354 399 110 q 188 881 257 599 l 188 425 q 197 226 188 349 q 207 29 207 74 q 192 8 207 17 q 158 -1 176 -1 q 128 21 128 -1 l 131 61 q 135 119 135 94 q 125 353 135 203 q 117 550 117 515 l 117 728 q 121 856 117 771 q 126 983 126 929 l 126 992 q 157 1061 126 1061 q 203 1000 175 1061 q 319 642 249 900 q 414 256 360 492 l 436 160 l 438 153 q 440 394 438 288 l 443 636 l 443 1047 q 489 1082 451 1082 q 525 1028 525 1082 l 525 1019 l 519 1008 q 508 979 508 989 l 508 29 l 508 -22 q 506 -82 508 -64 q 500 -118 503 -103 q 490 -146 497 -133 q 478 -169 483 -161 q 458 -189 472 -176 q 435 -208 446 -201 l 365 -262 z "},"Ɲ":{"ha":572,"x_min":-29,"x_max":483,"o":"m 22 -262 q -15 -251 0 -262 q -29 -221 -29 -240 q -17 -188 -29 -203 q 15 -165 -4 -174 q 35 -155 19 -162 q 63 -137 51 -147 q 83 -117 75 -128 q 94 -76 94 -99 l 96 -28 l 96 22 l 92 119 q 83 353 92 193 q 75 550 75 515 l 75 728 q 79 856 75 771 q 85 983 85 929 l 85 992 q 115 1061 85 1061 q 161 1000 133 1061 q 278 642 207 900 q 372 256 318 492 q 394 160 371 261 l 396 153 q 399 394 396 288 l 401 636 l 401 1047 q 446 1082 407 1082 q 483 1028 483 1082 l 483 1019 q 475 979 475 1003 q 471 724 475 894 q 467 465 467 551 l 467 42 q 455 -1 467 19 q 426 -21 443 -21 q 313 265 399 -21 q 144 881 215 600 l 144 425 q 156 226 144 367 q 165 29 165 74 q 161 -82 165 -51 q 158 -103 160 -89 q 154 -127 157 -118 q 146 -146 151 -136 q 133 -169 138 -162 q 115 -189 128 -176 q 90 -208 99 -204 l 22 -262 z "},"ǋ":{"ha":925,"x_min":75,"x_max":890,"o":"m 426 -21 q 313 265 399 -21 q 144 881 215 600 l 144 425 q 156 226 144 367 q 165 29 165 74 q 150 8 165 17 q 115 -1 135 -1 q 86 21 86 -1 l 89 61 q 92 119 92 106 q 83 353 92 193 q 75 550 75 515 l 75 728 q 79 856 75 771 q 85 983 85 929 l 85 992 q 115 1061 85 1061 q 161 1000 133 1061 q 278 642 207 900 q 372 256 318 492 q 394 160 371 261 l 396 153 q 399 394 396 288 l 401 636 l 401 1047 q 446 1082 407 1082 q 483 1028 483 1082 l 483 1019 q 475 979 475 1003 q 471 724 475 894 q 467 465 467 551 l 467 42 q 455 -1 467 19 q 426 -21 443 -21 m 585 -131 q 569 -114 569 -131 l 569 -103 q 571 -90 571 -97 q 590 -76 571 -85 q 681 -31 657 -56 q 719 126 719 13 q 713 482 719 218 q 704 836 704 714 l 704 842 q 691 843 700 842 q 671 844 682 844 q 631 851 646 847 q 601 865 610 857 q 599 876 599 871 q 613 899 599 889 q 643 908 628 908 q 801 899 713 908 q 890 876 890 889 q 880 853 890 863 q 853 844 869 844 l 782 844 q 789 551 782 771 q 796 260 796 389 l 796 111 q 789 29 796 63 q 750 -60 779 -22 q 658 -121 719 -103 q 585 -131 628 -131 z "},"Ñ":{"ha":572,"x_min":75,"x_max":483,"o":"m 426 -21 q 313 265 399 -21 q 144 881 215 600 l 144 425 q 156 226 144 367 q 165 29 165 74 q 150 8 165 17 q 115 -1 135 -1 q 86 21 86 -1 l 89 61 q 92 119 92 106 q 83 353 92 193 q 75 550 75 515 l 75 728 q 79 856 75 771 q 85 983 85 929 l 85 992 q 115 1061 85 1061 q 161 1000 133 1061 q 278 642 207 900 q 372 256 318 492 q 394 160 371 261 l 396 153 q 399 394 396 288 l 401 636 l 401 1047 q 446 1082 407 1082 q 483 1028 483 1082 l 483 1019 q 475 979 475 1003 q 471 724 475 894 q 467 465 467 551 l 467 42 q 455 -1 467 19 q 426 -21 443 -21 m 358 1081 q 299 1090 324 1081 q 264 1111 274 1099 q 240 1132 254 1124 q 210 1140 226 1140 q 196 1129 200 1136 q 194 1114 192 1122 l 194 1111 q 174 1086 194 1093 q 138 1097 151 1086 q 124 1126 124 1107 q 151 1184 124 1161 q 225 1207 179 1207 q 285 1179 240 1207 q 342 1151 329 1151 q 362 1160 354 1151 q 371 1179 369 1168 q 381 1199 374 1190 q 401 1207 389 1207 q 435 1197 424 1207 q 447 1171 447 1186 q 421 1108 447 1135 q 358 1081 394 1081 z "},"O":{"ha":493,"x_min":61,"x_max":419,"o":"m 265 -39 q 197 -14 228 -39 q 144 54 167 11 q 85 260 104 129 q 64 468 71 350 l 63 542 l 63 617 q 61 704 61 653 q 68 851 61 788 q 96 983 74 918 q 160 1064 118 1040 q 210 1075 185 1075 q 326 1017 283 1075 q 389 871 374 951 q 414 685 411 774 q 419 499 419 586 l 419 419 q 413 331 419 396 q 407 243 407 279 l 407 238 q 399 146 399 199 q 382 65 399 107 q 335 -6 365 24 q 265 -39 304 -39 m 268 38 q 315 89 296 38 q 340 201 332 135 q 353 350 347 267 q 356 443 356 386 l 354 571 q 338 758 351 646 q 296 928 326 854 q 261 982 282 963 q 217 1001 240 1001 q 165 947 182 1001 q 138 822 144 890 q 128 682 129 749 l 126 636 q 125 583 125 617 l 125 578 q 144 349 125 485 q 210 86 167 164 q 268 38 238 38 z "},"Ó":{"ha":493,"x_min":61,"x_max":419,"o":"m 265 -39 q 197 -14 228 -39 q 144 54 167 11 q 85 260 104 129 q 64 468 71 350 l 63 542 l 63 617 q 61 704 61 653 q 68 851 61 788 q 96 983 74 918 q 160 1064 118 1040 q 210 1075 185 1075 q 326 1017 283 1075 q 389 871 374 951 q 414 685 411 774 q 419 499 419 586 l 419 419 q 413 331 419 396 q 407 243 407 279 l 407 238 q 399 146 399 199 q 382 65 399 107 q 335 -6 365 24 q 265 -39 304 -39 m 268 38 q 315 89 296 38 q 340 201 332 135 q 353 350 347 267 q 356 443 356 386 l 354 571 q 338 758 351 646 q 296 928 326 854 q 261 982 282 963 q 217 1001 240 1001 q 165 947 182 1001 q 138 822 144 890 q 128 682 129 749 l 126 636 q 125 583 125 617 l 125 578 q 144 349 125 485 q 210 86 167 164 q 268 38 238 38 m 194 1096 q 179 1101 186 1096 q 172 1114 172 1106 q 179 1128 172 1121 l 201 1147 q 279 1215 208 1154 l 361 1286 q 374 1289 367 1289 q 404 1272 390 1289 q 418 1238 418 1256 q 408 1215 418 1221 q 206 1099 358 1176 q 194 1096 203 1096 z "},"Ŏ":{"ha":493,"x_min":61,"x_max":419,"o":"m 265 -39 q 197 -14 228 -39 q 144 54 167 11 q 85 260 104 129 q 64 468 71 350 l 63 542 l 63 617 q 61 704 61 653 q 68 851 61 788 q 96 983 74 918 q 160 1064 118 1040 q 210 1075 185 1075 q 326 1017 283 1075 q 389 871 374 951 q 414 685 411 774 q 419 499 419 586 l 419 419 q 413 331 419 396 q 407 243 407 279 l 407 238 q 399 146 399 199 q 382 65 399 107 q 335 -6 365 24 q 265 -39 304 -39 m 268 38 q 315 89 296 38 q 340 201 332 135 q 353 350 347 267 q 356 443 356 386 l 354 571 q 338 758 351 646 q 296 928 326 854 q 261 982 282 963 q 217 1001 240 1001 q 165 947 182 1001 q 138 822 144 890 q 128 682 129 749 l 126 636 q 125 583 125 617 l 125 578 q 144 349 125 485 q 210 86 167 164 q 268 38 238 38 m 246 1118 q 190 1133 214 1118 q 153 1174 165 1147 q 128 1283 128 1222 q 135 1298 128 1292 q 154 1304 143 1304 q 182 1286 169 1304 q 201 1243 194 1268 q 219 1200 208 1218 q 242 1182 231 1182 q 276 1203 264 1182 q 289 1246 289 1224 q 297 1286 289 1274 q 328 1299 306 1299 q 354 1288 343 1299 q 365 1264 365 1278 q 363 1229 365 1246 q 322 1149 351 1179 q 246 1118 293 1118 z "},"Ǒ":{"ha":493,"x_min":61,"x_max":419,"o":"m 265 -39 q 197 -14 228 -39 q 144 54 167 11 q 85 260 104 129 q 64 468 71 350 l 63 542 l 63 617 q 61 704 61 653 q 68 851 61 788 q 96 983 74 918 q 160 1064 118 1040 q 210 1075 185 1075 q 326 1017 283 1075 q 389 871 374 951 q 414 685 411 774 q 419 499 419 586 l 419 419 q 413 331 419 396 q 407 243 407 279 l 407 238 q 399 146 399 199 q 382 65 399 107 q 335 -6 365 24 q 265 -39 304 -39 m 268 38 q 315 89 296 38 q 340 201 332 135 q 353 350 347 267 q 356 443 356 386 l 354 571 q 338 758 351 646 q 296 928 326 854 q 261 982 282 963 q 217 1001 240 1001 q 165 947 182 1001 q 138 822 144 890 q 128 682 129 749 l 126 636 q 125 583 125 617 l 125 578 q 144 349 125 485 q 210 86 167 164 q 268 38 238 38 m 233 1107 q 186 1160 217 1107 q 131 1279 156 1214 q 107 1369 107 1344 q 117 1389 107 1381 q 140 1397 128 1397 q 175 1357 156 1397 q 210 1254 189 1325 l 228 1190 q 233 1236 232 1224 q 239 1283 235 1249 q 250 1344 243 1317 q 289 1401 261 1401 q 310 1393 301 1401 q 318 1372 318 1385 q 313 1361 318 1368 l 307 1351 l 307 1326 l 288 1250 q 268 1151 268 1169 q 233 1107 268 1107 z "},"Ô":{"ha":493,"x_min":61,"x_max":419,"o":"m 265 -39 q 197 -14 228 -39 q 144 54 167 11 q 85 260 104 129 q 64 468 71 350 l 63 542 l 63 617 q 61 704 61 653 q 68 851 61 788 q 96 983 74 918 q 160 1064 118 1040 q 210 1075 185 1075 q 326 1017 283 1075 q 389 871 374 951 q 414 685 411 774 q 419 499 419 586 l 419 419 q 413 331 419 396 q 407 243 407 279 l 407 238 q 399 146 399 199 q 382 65 399 107 q 335 -6 365 24 q 265 -39 304 -39 m 268 38 q 315 89 296 38 q 340 201 332 135 q 353 350 347 267 q 356 443 356 386 l 354 571 q 338 758 351 646 q 296 928 326 854 q 261 982 282 963 q 217 1001 240 1001 q 165 947 182 1001 q 138 822 144 890 q 128 682 129 749 l 126 636 q 125 583 125 617 l 125 578 q 144 349 125 485 q 210 86 167 164 q 268 38 238 38 m 328 1094 q 311 1104 314 1094 l 257 1292 l 186 1114 q 167 1104 182 1104 q 142 1112 153 1104 q 132 1132 132 1119 q 135 1144 132 1140 l 183 1267 q 200 1304 189 1278 q 217 1340 211 1331 q 249 1374 232 1365 q 268 1376 260 1376 q 288 1364 279 1376 q 322 1269 307 1333 l 340 1203 q 358 1136 353 1153 q 360 1124 360 1132 q 350 1103 360 1111 q 328 1094 340 1094 z "},"Ố":{"ha":493,"x_min":61,"x_max":556,"o":"m 265 -39 q 197 -14 228 -39 q 144 54 167 11 q 85 260 104 129 q 64 468 71 350 l 63 542 l 63 617 q 61 704 61 653 q 68 851 61 788 q 96 983 74 918 q 160 1064 118 1040 q 210 1075 185 1075 q 326 1017 283 1075 q 389 871 374 951 q 414 685 411 774 q 419 499 419 586 l 419 419 q 413 331 419 396 q 407 243 407 279 l 407 238 q 399 146 399 199 q 382 65 399 107 q 335 -6 365 24 q 265 -39 304 -39 m 268 38 q 315 89 296 38 q 340 201 332 135 q 353 350 347 267 q 356 443 356 386 l 354 571 q 338 758 351 646 q 296 928 326 854 q 261 982 282 963 q 217 1001 240 1001 q 165 947 182 1001 q 138 822 144 890 q 128 682 129 749 l 126 636 q 125 583 125 617 l 125 578 q 144 349 125 485 q 210 86 167 164 q 268 38 238 38 m 293 1088 q 276 1097 279 1088 l 222 1285 l 151 1107 q 132 1097 147 1097 q 108 1105 118 1097 q 97 1125 97 1113 q 100 1138 97 1133 l 149 1260 q 165 1297 154 1271 q 182 1333 176 1324 q 214 1367 197 1358 q 233 1369 225 1369 q 253 1357 244 1369 q 288 1263 272 1326 l 306 1196 q 324 1129 318 1146 q 325 1117 325 1125 q 315 1096 325 1104 q 293 1088 306 1088 m 332 1238 q 317 1242 324 1238 q 310 1256 310 1247 q 317 1269 310 1263 l 339 1289 q 417 1357 346 1296 l 499 1428 q 511 1431 504 1431 q 542 1414 528 1431 q 556 1379 556 1397 q 546 1357 556 1363 q 343 1240 496 1318 q 332 1238 340 1238 z "},"Ộ":{"ha":493,"x_min":61,"x_max":419,"o":"m 265 -39 q 197 -14 228 -39 q 144 54 167 11 q 85 260 104 129 q 64 468 71 350 l 63 542 l 63 617 q 61 704 61 653 q 68 851 61 788 q 96 983 74 918 q 160 1064 118 1040 q 210 1075 185 1075 q 326 1017 283 1075 q 389 871 374 951 q 414 685 411 774 q 419 499 419 586 l 419 419 q 413 331 419 396 q 407 243 407 279 l 407 238 q 399 146 399 199 q 382 65 399 107 q 335 -6 365 24 q 265 -39 304 -39 m 268 38 q 315 89 296 38 q 340 201 332 135 q 353 350 347 267 q 356 443 356 386 l 354 571 q 338 758 351 646 q 296 928 326 854 q 261 982 282 963 q 217 1001 240 1001 q 165 947 182 1001 q 138 822 144 890 q 128 682 129 749 l 126 636 q 125 583 125 617 l 125 578 q 144 349 125 485 q 210 86 167 164 q 268 38 238 38 m 328 1094 q 311 1104 314 1094 l 257 1292 l 186 1114 q 167 1104 182 1104 q 142 1112 153 1104 q 132 1132 132 1119 q 135 1144 132 1140 l 183 1267 q 200 1304 189 1278 q 217 1340 211 1331 q 249 1374 232 1365 q 268 1376 260 1376 q 288 1364 279 1376 q 322 1269 307 1333 l 340 1203 q 358 1136 353 1153 q 360 1124 360 1132 q 350 1103 360 1111 q 328 1094 340 1094 m 243 -233 q 210 -218 225 -233 q 196 -183 196 -203 q 212 -147 196 -162 q 249 -131 228 -131 q 283 -147 268 -131 q 297 -183 297 -162 q 282 -219 297 -206 q 243 -233 267 -233 z "},"Ồ":{"ha":493,"x_min":-108,"x_max":419,"o":"m 265 -39 q 197 -14 228 -39 q 144 54 167 11 q 85 260 104 129 q 64 468 71 350 l 63 542 l 63 617 q 61 704 61 653 q 68 851 61 788 q 96 983 74 918 q 160 1064 118 1040 q 210 1075 185 1075 q 326 1017 283 1075 q 389 871 374 951 q 414 685 411 774 q 419 499 419 586 l 419 419 q 413 331 419 396 q 407 243 407 279 l 407 238 q 399 146 399 199 q 382 65 399 107 q 335 -6 365 24 q 265 -39 304 -39 m 268 38 q 315 89 296 38 q 340 201 332 135 q 353 350 347 267 q 356 443 356 386 l 354 571 q 338 758 351 646 q 296 928 326 854 q 261 982 282 963 q 217 1001 240 1001 q 165 947 182 1001 q 138 822 144 890 q 128 682 129 749 l 126 636 q 125 583 125 617 l 125 578 q 144 349 125 485 q 210 86 167 164 q 268 38 238 38 m 296 1088 q 279 1097 282 1088 l 225 1285 l 154 1107 q 135 1097 150 1097 q 110 1105 121 1097 q 100 1125 100 1113 q 103 1138 100 1133 l 151 1260 q 168 1297 157 1271 q 185 1333 179 1324 q 217 1367 200 1358 q 236 1369 228 1369 q 256 1357 247 1369 q 290 1263 275 1326 l 308 1196 q 326 1129 321 1146 q 328 1117 328 1125 q 318 1096 328 1104 q 296 1088 308 1088 m -538 1506 q -619 1496 -552 1500 q -746 1492 -686 1491 q -808 1500 -805 1493 q -806 1539 -813 1516 q -783 1567 -798 1562 q -712 1562 -775 1570 q -592 1541 -648 1554 q -532 1518 -536 1528 q -538 1506 -529 1509 z "},"Ổ":{"ha":493,"x_min":61,"x_max":589,"o":"m 265 -39 q 197 -14 228 -39 q 144 54 167 11 q 85 260 104 129 q 64 468 71 350 l 63 542 l 63 617 q 61 704 61 653 q 68 851 61 788 q 96 983 74 918 q 160 1064 118 1040 q 210 1075 185 1075 q 326 1017 283 1075 q 389 871 374 951 q 414 685 411 774 q 419 499 419 586 l 419 419 q 413 331 419 396 q 407 243 407 279 l 407 238 q 399 146 399 199 q 382 65 399 107 q 335 -6 365 24 q 265 -39 304 -39 m 268 38 q 315 89 296 38 q 340 201 332 135 q 353 350 347 267 q 356 443 356 386 l 354 571 q 338 758 351 646 q 296 928 326 854 q 261 982 282 963 q 217 1001 240 1001 q 165 947 182 1001 q 138 822 144 890 q 128 682 129 749 l 126 636 q 125 583 125 617 l 125 578 q 144 349 125 485 q 210 86 167 164 q 268 38 238 38 m 307 1088 q 290 1097 293 1088 l 236 1285 l 165 1107 q 146 1097 161 1097 q 122 1105 132 1097 q 111 1125 111 1113 q 114 1138 111 1133 l 163 1260 q 179 1297 168 1271 q 196 1333 190 1324 q 228 1367 211 1358 q 247 1369 239 1369 q 267 1357 258 1369 q 301 1263 286 1326 l 319 1196 q 338 1129 332 1146 q 339 1117 339 1125 q 329 1096 339 1104 q 307 1088 319 1088 m 431 1226 q 399 1249 407 1226 q 419 1309 399 1293 q 476 1332 440 1325 q 507 1341 497 1336 q 517 1357 517 1346 q 497 1392 517 1378 q 442 1406 478 1406 q 392 1394 410 1406 q 374 1365 374 1383 q 382 1351 374 1364 q 368 1336 382 1349 q 344 1324 354 1324 q 316 1333 326 1324 q 306 1354 306 1343 l 306 1367 q 340 1440 306 1414 q 439 1465 374 1465 q 558 1433 526 1465 q 589 1357 589 1400 q 569 1306 589 1319 q 511 1283 549 1293 q 476 1274 488 1279 q 465 1256 465 1268 l 465 1231 q 438 1229 439 1231 q 431 1226 432 1226 z "},"Ỗ":{"ha":493,"x_min":61,"x_max":419,"o":"m 265 -39 q 197 -14 228 -39 q 144 54 167 11 q 85 260 104 129 q 64 468 71 350 l 63 542 l 63 617 q 61 704 61 653 q 68 851 61 788 q 96 983 74 918 q 160 1064 118 1040 q 210 1075 185 1075 q 326 1017 283 1075 q 389 871 374 951 q 414 685 411 774 q 419 499 419 586 l 419 419 q 413 331 419 396 q 407 243 407 279 l 407 238 q 399 146 399 199 q 382 65 399 107 q 335 -6 365 24 q 265 -39 304 -39 m 268 38 q 315 89 296 38 q 340 201 332 135 q 353 350 347 267 q 356 443 356 386 l 354 571 q 338 758 351 646 q 296 928 326 854 q 261 982 282 963 q 217 1001 240 1001 q 165 947 182 1001 q 138 822 144 890 q 128 682 129 749 l 126 636 q 125 583 125 617 l 125 578 q 144 349 125 485 q 210 86 167 164 q 268 38 238 38 m 328 1094 q 311 1104 314 1094 l 257 1292 l 186 1114 q 167 1104 182 1104 q 142 1112 153 1104 q 132 1132 132 1119 q 135 1144 132 1140 l 183 1267 q 200 1304 189 1278 q 217 1340 211 1331 q 249 1374 232 1365 q 268 1376 260 1376 q 288 1364 279 1376 q 322 1269 307 1333 l 340 1203 q 358 1136 353 1153 q 360 1124 360 1132 q 350 1103 360 1111 q 328 1094 340 1094 m 318 1404 q 258 1413 283 1404 q 224 1435 233 1422 q 200 1456 214 1447 q 169 1464 186 1464 q 156 1453 160 1460 q 154 1438 151 1446 l 154 1435 q 133 1410 154 1417 q 97 1420 111 1410 q 83 1450 83 1431 q 111 1508 83 1485 q 185 1531 139 1531 q 244 1503 200 1531 q 301 1475 289 1475 q 322 1483 314 1475 q 331 1503 329 1492 q 341 1522 333 1514 q 361 1531 349 1531 q 395 1520 383 1531 q 407 1494 407 1510 q 381 1431 407 1458 q 318 1404 354 1404 z "},"Ȍ":{"ha":493,"x_min":13,"x_max":419,"o":"m 265 -39 q 197 -14 228 -39 q 144 54 167 11 q 85 260 104 129 q 64 468 71 350 l 63 542 l 63 617 q 61 704 61 653 q 68 851 61 788 q 96 983 74 918 q 160 1064 118 1040 q 210 1075 185 1075 q 326 1017 283 1075 q 389 871 374 951 q 414 685 411 774 q 419 499 419 586 l 419 419 q 413 331 419 396 q 407 243 407 279 l 407 238 q 399 146 399 199 q 382 65 399 107 q 335 -6 365 24 q 265 -39 304 -39 m 268 38 q 315 89 296 38 q 340 201 332 135 q 353 350 347 267 q 356 443 356 386 l 354 571 q 338 758 351 646 q 296 928 326 854 q 261 982 282 963 q 217 1001 240 1001 q 165 947 182 1001 q 138 822 144 890 q 128 682 129 749 l 126 636 q 125 583 125 617 l 125 578 q 144 349 125 485 q 210 86 167 164 q 268 38 238 38 m 239 1108 q 25 1310 28 1306 l 13 1332 q 28 1358 17 1347 q 53 1368 39 1368 q 114 1314 64 1368 q 210 1197 167 1256 q 253 1125 253 1139 q 239 1108 253 1108 m 404 1097 q 268 1251 331 1168 q 228 1328 228 1304 q 240 1341 228 1335 q 263 1347 251 1347 q 309 1296 272 1347 q 379 1187 346 1244 q 414 1113 413 1129 l 404 1097 z "},"Ö":{"ha":493,"x_min":61,"x_max":419,"o":"m 265 -39 q 197 -14 228 -39 q 144 54 167 11 q 85 260 104 129 q 64 468 71 350 l 63 542 l 63 617 q 61 704 61 653 q 68 851 61 788 q 96 983 74 918 q 160 1064 118 1040 q 210 1075 185 1075 q 326 1017 283 1075 q 389 871 374 951 q 414 685 411 774 q 419 499 419 586 l 419 419 q 413 331 419 396 q 407 243 407 279 l 407 238 q 399 146 399 199 q 382 65 399 107 q 335 -6 365 24 q 265 -39 304 -39 m 268 38 q 315 89 296 38 q 340 201 332 135 q 353 350 347 267 q 356 443 356 386 l 354 571 q 338 758 351 646 q 296 928 326 854 q 261 982 282 963 q 217 1001 240 1001 q 165 947 182 1001 q 138 822 144 890 q 128 682 129 749 l 126 636 q 125 583 125 617 l 125 578 q 144 349 125 485 q 210 86 167 164 q 268 38 238 38 m 131 1108 q 98 1124 113 1108 q 83 1158 83 1139 q 99 1195 83 1179 q 136 1211 115 1211 q 170 1195 156 1211 q 185 1160 185 1179 q 169 1123 185 1138 q 131 1108 154 1108 m 354 1101 q 322 1117 336 1101 q 307 1151 307 1132 q 323 1188 307 1172 q 360 1204 339 1204 q 394 1188 379 1204 q 410 1153 410 1172 q 394 1116 410 1131 q 354 1101 378 1101 z "},"Ȫ":{"ha":493,"x_min":51,"x_max":439,"o":"m 265 -39 q 197 -14 228 -39 q 144 54 167 11 q 85 260 104 129 q 64 468 71 350 l 63 542 l 63 617 q 61 704 61 653 q 68 851 61 788 q 96 983 74 918 q 160 1064 118 1040 q 210 1075 185 1075 q 326 1017 283 1075 q 389 871 374 951 q 414 685 411 774 q 419 499 419 586 l 419 419 q 413 331 419 396 q 407 243 407 279 l 407 238 q 399 146 399 199 q 382 65 399 107 q 335 -6 365 24 q 265 -39 304 -39 m 268 38 q 315 89 296 38 q 340 201 332 135 q 353 350 347 267 q 356 443 356 386 l 354 571 q 338 758 351 646 q 296 928 326 854 q 261 982 282 963 q 217 1001 240 1001 q 165 947 182 1001 q 138 822 144 890 q 128 682 129 749 l 126 636 q 125 583 125 617 l 125 578 q 144 349 125 485 q 210 86 167 164 q 268 38 238 38 m 131 1108 q 98 1124 113 1108 q 83 1158 83 1139 q 99 1195 83 1179 q 136 1211 115 1211 q 170 1195 156 1211 q 185 1160 185 1179 q 169 1123 185 1138 q 131 1108 154 1108 m 354 1101 q 322 1117 336 1101 q 307 1151 307 1132 q 323 1188 307 1172 q 360 1204 339 1204 q 394 1188 379 1204 q 410 1153 410 1172 q 394 1116 410 1131 q 354 1101 378 1101 m 107 1288 q 51 1332 51 1288 q 60 1354 51 1346 q 83 1363 69 1363 l 288 1363 l 329 1365 q 372 1367 349 1367 q 439 1326 439 1367 q 428 1303 439 1311 q 400 1294 418 1294 q 254 1290 353 1294 l 107 1288 z "},"Ȯ":{"ha":493,"x_min":61,"x_max":419,"o":"m 265 -39 q 197 -14 228 -39 q 144 54 167 11 q 85 260 104 129 q 64 468 71 350 l 63 542 l 63 617 q 61 704 61 653 q 68 851 61 788 q 96 983 74 918 q 160 1064 118 1040 q 210 1075 185 1075 q 326 1017 283 1075 q 389 871 374 951 q 414 685 411 774 q 419 499 419 586 l 419 419 q 413 331 419 396 q 407 243 407 279 l 407 238 q 399 146 399 199 q 382 65 399 107 q 335 -6 365 24 q 265 -39 304 -39 m 268 38 q 315 89 296 38 q 340 201 332 135 q 353 350 347 267 q 356 443 356 386 l 354 571 q 338 758 351 646 q 296 928 326 854 q 261 982 282 963 q 217 1001 240 1001 q 165 947 182 1001 q 138 822 144 890 q 128 682 129 749 l 126 636 q 125 583 125 617 l 125 578 q 144 349 125 485 q 210 86 167 164 q 268 38 238 38 m 208 1129 q 176 1144 190 1129 q 163 1179 163 1160 q 178 1216 163 1200 q 214 1232 193 1232 q 249 1216 233 1232 q 264 1181 264 1200 q 248 1144 264 1158 q 208 1129 232 1129 z "},"Ȱ":{"ha":493,"x_min":19,"x_max":419,"o":"m 265 -39 q 197 -14 228 -39 q 144 54 167 11 q 85 260 104 129 q 64 468 71 350 l 63 542 l 63 617 q 61 704 61 653 q 68 851 61 788 q 96 983 74 918 q 160 1064 118 1040 q 210 1075 185 1075 q 326 1017 283 1075 q 389 871 374 951 q 414 685 411 774 q 419 499 419 586 l 419 419 q 413 331 419 396 q 407 243 407 279 l 407 238 q 399 146 399 199 q 382 65 399 107 q 335 -6 365 24 q 265 -39 304 -39 m 268 38 q 315 89 296 38 q 340 201 332 135 q 353 350 347 267 q 356 443 356 386 l 354 571 q 338 758 351 646 q 296 928 326 854 q 261 982 282 963 q 217 1001 240 1001 q 165 947 182 1001 q 138 822 144 890 q 128 682 129 749 l 126 636 q 125 583 125 617 l 125 578 q 144 349 125 485 q 210 86 167 164 q 268 38 238 38 m 208 1129 q 176 1144 190 1129 q 163 1179 163 1160 q 178 1216 163 1200 q 214 1232 193 1232 q 249 1216 233 1232 q 264 1181 264 1200 q 248 1144 264 1158 q 208 1129 232 1129 m 75 1294 q 19 1339 19 1294 q 28 1361 19 1353 q 51 1369 38 1369 l 256 1369 l 297 1372 q 340 1374 317 1374 q 407 1333 407 1374 q 397 1310 407 1318 q 368 1301 386 1301 q 222 1297 321 1301 l 75 1294 z "},"Ọ":{"ha":493,"x_min":61,"x_max":419,"o":"m 265 -39 q 197 -14 228 -39 q 144 54 167 11 q 85 260 104 129 q 64 468 71 350 l 63 542 l 63 617 q 61 704 61 653 q 68 851 61 788 q 96 983 74 918 q 160 1064 118 1040 q 210 1075 185 1075 q 326 1017 283 1075 q 389 871 374 951 q 414 685 411 774 q 419 499 419 586 l 419 419 q 413 331 419 396 q 407 243 407 279 l 407 238 q 399 146 399 199 q 382 65 399 107 q 335 -6 365 24 q 265 -39 304 -39 m 268 38 q 315 89 296 38 q 340 201 332 135 q 353 350 347 267 q 356 443 356 386 l 354 571 q 338 758 351 646 q 296 928 326 854 q 261 982 282 963 q 217 1001 240 1001 q 165 947 182 1001 q 138 822 144 890 q 128 682 129 749 l 126 636 q 125 583 125 617 l 125 578 q 144 349 125 485 q 210 86 167 164 q 268 38 238 38 m 243 -233 q 210 -218 225 -233 q 196 -183 196 -203 q 212 -147 196 -162 q 249 -131 228 -131 q 283 -147 268 -131 q 297 -183 297 -162 q 282 -219 297 -206 q 243 -233 267 -233 z "},"Ò":{"ha":493,"x_min":18,"x_max":419,"o":"m 265 -39 q 197 -14 228 -39 q 144 54 167 11 q 85 260 104 129 q 64 468 71 350 l 63 542 l 63 617 q 61 704 61 653 q 68 851 61 788 q 96 983 74 918 q 160 1064 118 1040 q 210 1075 185 1075 q 326 1017 283 1075 q 389 871 374 951 q 414 685 411 774 q 419 499 419 586 l 419 419 q 413 331 419 396 q 407 243 407 279 l 407 238 q 399 146 399 199 q 382 65 399 107 q 335 -6 365 24 q 265 -39 304 -39 m 268 38 q 315 89 296 38 q 340 201 332 135 q 353 350 347 267 q 356 443 356 386 l 354 571 q 338 758 351 646 q 296 928 326 854 q 261 982 282 963 q 217 1001 240 1001 q 165 947 182 1001 q 138 822 144 890 q 128 682 129 749 l 126 636 q 125 583 125 617 l 125 578 q 144 349 125 485 q 210 86 167 164 q 268 38 238 38 m 274 1101 q 194 1120 258 1101 q 74 1160 129 1139 q 18 1189 18 1181 q 33 1224 18 1206 q 64 1243 49 1243 q 129 1214 72 1243 q 235 1153 186 1185 q 283 1111 283 1122 q 274 1101 283 1101 z "},"Ỏ":{"ha":493,"x_min":61,"x_max":419,"o":"m 265 -39 q 197 -14 228 -39 q 144 54 167 11 q 85 260 104 129 q 64 468 71 350 l 63 542 l 63 617 q 61 704 61 653 q 68 851 61 788 q 96 983 74 918 q 160 1064 118 1040 q 210 1075 185 1075 q 326 1017 283 1075 q 389 871 374 951 q 414 685 411 774 q 419 499 419 586 l 419 419 q 413 331 419 396 q 407 243 407 279 l 407 238 q 399 146 399 199 q 382 65 399 107 q 335 -6 365 24 q 265 -39 304 -39 m 268 38 q 315 89 296 38 q 340 201 332 135 q 353 350 347 267 q 356 443 356 386 l 354 571 q 338 758 351 646 q 296 928 326 854 q 261 982 282 963 q 217 1001 240 1001 q 165 947 182 1001 q 138 822 144 890 q 128 682 129 749 l 126 636 q 125 583 125 617 l 125 578 q 144 349 125 485 q 210 86 167 164 q 268 38 238 38 m 215 1103 q 183 1125 192 1103 q 204 1185 183 1169 q 261 1208 225 1201 q 292 1217 282 1213 q 301 1233 301 1222 q 282 1268 301 1254 q 226 1282 263 1282 q 176 1271 194 1282 q 158 1242 158 1260 q 167 1228 158 1240 q 153 1213 167 1225 q 129 1200 139 1200 q 101 1210 111 1200 q 90 1231 90 1219 l 90 1243 q 124 1316 90 1290 q 224 1342 158 1342 q 342 1309 311 1342 q 374 1233 374 1276 q 353 1183 374 1196 q 296 1160 333 1169 q 261 1150 272 1156 q 250 1132 250 1144 l 250 1107 q 222 1106 224 1107 q 215 1103 217 1103 z "},"Ơ":{"ha":517,"x_min":61,"x_max":489,"o":"m 489 1128 q 446 1037 489 1071 q 349 1003 403 1003 l 336 1003 q 389 871 374 947 q 414 685 411 774 q 419 499 419 586 l 419 419 q 413 331 419 396 q 407 243 407 279 l 407 238 q 399 146 399 199 q 382 65 399 107 q 335 -6 365 24 q 265 -39 304 -39 q 197 -14 228 -39 q 144 54 167 11 q 85 260 104 129 q 64 468 71 350 l 63 542 l 63 617 q 61 704 61 653 q 68 851 61 788 q 96 983 74 918 q 160 1064 118 1040 q 210 1075 185 1075 q 250 1069 233 1075 l 250 1071 q 291 1065 263 1068 q 336 1063 319 1063 q 386 1074 374 1063 q 399 1107 399 1085 q 393 1137 399 1119 q 388 1160 388 1154 q 401 1178 388 1172 q 435 1185 414 1185 q 476 1171 464 1185 q 489 1128 489 1157 m 354 571 q 338 758 351 646 q 296 928 326 854 q 261 982 282 963 q 217 1001 240 1001 q 165 947 182 1001 q 138 822 144 890 q 128 682 129 749 l 126 636 q 125 583 125 617 l 125 578 q 144 349 125 485 q 210 86 167 164 q 268 38 238 38 q 315 89 296 38 q 340 201 332 135 q 353 350 347 267 q 356 443 356 386 l 354 571 z "},"Ớ":{"ha":517,"x_min":61,"x_max":489,"o":"m 489 1128 q 446 1037 489 1071 q 349 1003 403 1003 l 336 1003 q 389 871 374 947 q 414 685 411 774 q 419 499 419 586 l 419 419 q 413 331 419 396 q 407 243 407 279 l 407 238 q 399 146 399 199 q 382 65 399 107 q 335 -6 365 24 q 265 -39 304 -39 q 197 -14 228 -39 q 144 54 167 11 q 85 260 104 129 q 64 468 71 350 l 63 542 l 63 617 q 61 704 61 653 q 68 851 61 788 q 96 983 74 918 q 160 1064 118 1040 q 210 1075 185 1075 q 250 1069 233 1075 l 250 1071 q 291 1065 263 1068 q 336 1063 319 1063 q 386 1074 374 1063 q 399 1107 399 1085 q 393 1137 399 1119 q 388 1160 388 1154 q 401 1178 388 1172 q 435 1185 414 1185 q 476 1171 464 1185 q 489 1128 489 1157 m 354 571 q 338 758 351 646 q 296 928 326 854 q 261 982 282 963 q 217 1001 240 1001 q 165 947 182 1001 q 138 822 144 890 q 128 682 129 749 l 126 636 q 125 583 125 617 l 125 578 q 144 349 125 485 q 210 86 167 164 q 268 38 238 38 q 315 89 296 38 q 340 201 332 135 q 353 350 347 267 q 356 443 356 386 l 354 571 m 193 1124 q 178 1128 185 1124 q 171 1142 171 1133 q 178 1156 171 1149 l 200 1175 q 278 1243 207 1182 l 360 1314 q 372 1317 365 1317 q 403 1300 389 1317 q 417 1265 417 1283 q 407 1243 417 1249 q 204 1126 357 1204 q 193 1124 201 1124 z "},"Ợ":{"ha":517,"x_min":61,"x_max":489,"o":"m 489 1128 q 446 1037 489 1071 q 349 1003 403 1003 l 336 1003 q 389 871 374 947 q 414 685 411 774 q 419 499 419 586 l 419 419 q 413 331 419 396 q 407 243 407 279 l 407 238 q 399 146 399 199 q 382 65 399 107 q 335 -6 365 24 q 265 -39 304 -39 q 197 -14 228 -39 q 144 54 167 11 q 85 260 104 129 q 64 468 71 350 l 63 542 l 63 617 q 61 704 61 653 q 68 851 61 788 q 96 983 74 918 q 160 1064 118 1040 q 210 1075 185 1075 q 250 1069 233 1075 l 250 1071 q 291 1065 263 1068 q 336 1063 319 1063 q 386 1074 374 1063 q 399 1107 399 1085 q 393 1137 399 1119 q 388 1160 388 1154 q 401 1178 388 1172 q 435 1185 414 1185 q 476 1171 464 1185 q 489 1128 489 1157 m 354 571 q 338 758 351 646 q 296 928 326 854 q 261 982 282 963 q 217 1001 240 1001 q 165 947 182 1001 q 138 822 144 890 q 128 682 129 749 l 126 636 q 125 583 125 617 l 125 578 q 144 349 125 485 q 210 86 167 164 q 268 38 238 38 q 315 89 296 38 q 340 201 332 135 q 353 350 347 267 q 356 443 356 386 l 354 571 m 254 -233 q 222 -218 236 -233 q 207 -183 207 -203 q 223 -147 207 -162 q 260 -131 239 -131 q 294 -147 279 -131 q 308 -183 308 -162 q 293 -219 308 -206 q 254 -233 278 -233 z "},"Ờ":{"ha":517,"x_min":17,"x_max":489,"o":"m 489 1128 q 446 1037 489 1071 q 349 1003 403 1003 l 336 1003 q 389 871 374 947 q 414 685 411 774 q 419 499 419 586 l 419 419 q 413 331 419 396 q 407 243 407 279 l 407 238 q 399 146 399 199 q 382 65 399 107 q 335 -6 365 24 q 265 -39 304 -39 q 197 -14 228 -39 q 144 54 167 11 q 85 260 104 129 q 64 468 71 350 l 63 542 l 63 617 q 61 704 61 653 q 68 851 61 788 q 96 983 74 918 q 160 1064 118 1040 q 210 1075 185 1075 q 250 1069 233 1075 l 250 1071 q 291 1065 263 1068 q 336 1063 319 1063 q 386 1074 374 1063 q 399 1107 399 1085 q 393 1137 399 1119 q 388 1160 388 1154 q 401 1178 388 1172 q 435 1185 414 1185 q 476 1171 464 1185 q 489 1128 489 1157 m 354 571 q 338 758 351 646 q 296 928 326 854 q 261 982 282 963 q 217 1001 240 1001 q 165 947 182 1001 q 138 822 144 890 q 128 682 129 749 l 126 636 q 125 583 125 617 l 125 578 q 144 349 125 485 q 210 86 167 164 q 268 38 238 38 q 315 89 296 38 q 340 201 332 135 q 353 350 347 267 q 356 443 356 386 l 354 571 m 272 1129 q 192 1148 257 1129 q 72 1188 128 1167 q 17 1217 17 1208 q 32 1252 17 1233 q 63 1271 47 1271 q 128 1242 71 1271 q 233 1181 185 1213 q 282 1139 282 1150 q 272 1129 282 1129 z "},"Ở":{"ha":517,"x_min":61,"x_max":489,"o":"m 489 1128 q 446 1037 489 1071 q 349 1003 403 1003 l 336 1003 q 389 871 374 947 q 414 685 411 774 q 419 499 419 586 l 419 419 q 413 331 419 396 q 407 243 407 279 l 407 238 q 399 146 399 199 q 382 65 399 107 q 335 -6 365 24 q 265 -39 304 -39 q 197 -14 228 -39 q 144 54 167 11 q 85 260 104 129 q 64 468 71 350 l 63 542 l 63 617 q 61 704 61 653 q 68 851 61 788 q 96 983 74 918 q 160 1064 118 1040 q 210 1075 185 1075 q 250 1069 233 1075 l 250 1071 q 291 1065 263 1068 q 336 1063 319 1063 q 386 1074 374 1063 q 399 1107 399 1085 q 393 1137 399 1119 q 388 1160 388 1154 q 401 1178 388 1172 q 435 1185 414 1185 q 476 1171 464 1185 q 489 1128 489 1157 m 354 571 q 338 758 351 646 q 296 928 326 854 q 261 982 282 963 q 217 1001 240 1001 q 165 947 182 1001 q 138 822 144 890 q 128 682 129 749 l 126 636 q 125 583 125 617 l 125 578 q 144 349 125 485 q 210 86 167 164 q 268 38 238 38 q 315 89 296 38 q 340 201 332 135 q 353 350 347 267 q 356 443 356 386 l 354 571 m 214 1131 q 182 1153 190 1131 q 203 1213 182 1197 q 260 1236 224 1229 q 290 1245 281 1240 q 300 1261 300 1250 q 281 1296 300 1282 q 225 1310 261 1310 q 175 1299 193 1310 q 157 1269 157 1288 q 165 1256 157 1268 q 151 1240 165 1253 q 128 1228 138 1228 q 99 1238 110 1228 q 89 1258 89 1247 l 89 1271 q 123 1344 89 1318 q 222 1369 157 1369 q 341 1337 310 1369 q 372 1261 372 1304 q 352 1210 372 1224 q 294 1188 332 1197 q 260 1178 271 1183 q 249 1160 249 1172 l 249 1135 q 221 1133 222 1135 q 214 1131 215 1131 z "},"Ỡ":{"ha":517,"x_min":49,"x_max":489,"o":"m 489 1128 q 446 1037 489 1071 q 349 1003 403 1003 l 336 1003 q 389 871 374 947 q 414 685 411 774 q 419 499 419 586 l 419 419 q 413 331 419 396 q 407 243 407 279 l 407 238 q 399 146 399 199 q 382 65 399 107 q 335 -6 365 24 q 265 -39 304 -39 q 197 -14 228 -39 q 144 54 167 11 q 85 260 104 129 q 64 468 71 350 l 63 542 l 63 617 q 61 704 61 653 q 68 851 61 788 q 96 983 74 918 q 160 1064 118 1040 q 210 1075 185 1075 q 250 1069 233 1075 l 250 1071 q 291 1065 263 1068 q 336 1063 319 1063 q 386 1074 374 1063 q 399 1107 399 1085 q 393 1137 399 1119 q 388 1160 388 1154 q 401 1178 388 1172 q 435 1185 414 1185 q 476 1171 464 1185 q 489 1128 489 1157 m 354 571 q 338 758 351 646 q 296 928 326 854 q 261 982 282 963 q 217 1001 240 1001 q 165 947 182 1001 q 138 822 144 890 q 128 682 129 749 l 126 636 q 125 583 125 617 l 125 578 q 144 349 125 485 q 210 86 167 164 q 268 38 238 38 q 315 89 296 38 q 340 201 332 135 q 353 350 347 267 q 356 443 356 386 l 354 571 m 283 1128 q 224 1137 249 1128 q 189 1158 199 1146 q 165 1179 179 1171 q 135 1188 151 1188 q 121 1176 125 1183 q 119 1161 117 1169 l 119 1158 q 99 1133 119 1140 q 63 1144 76 1133 q 49 1174 49 1154 q 76 1231 49 1208 q 150 1254 104 1254 q 210 1226 165 1254 q 267 1199 254 1199 q 287 1207 279 1199 q 296 1226 294 1215 q 306 1246 299 1238 q 326 1254 314 1254 q 360 1244 349 1254 q 372 1218 372 1233 q 346 1155 372 1182 q 283 1128 319 1128 z "},"Ő":{"ha":493,"x_min":61,"x_max":593,"o":"m 265 -39 q 197 -14 228 -39 q 144 54 167 11 q 85 260 104 129 q 64 468 71 350 l 63 542 l 63 617 q 61 704 61 653 q 68 851 61 788 q 96 983 74 918 q 160 1064 118 1040 q 210 1075 185 1075 q 326 1017 283 1075 q 389 871 374 951 q 414 685 411 774 q 419 499 419 586 l 419 419 q 413 331 419 396 q 407 243 407 279 l 407 238 q 399 146 399 199 q 382 65 399 107 q 335 -6 365 24 q 265 -39 304 -39 m 268 38 q 315 89 296 38 q 340 201 332 135 q 353 350 347 267 q 356 443 356 386 l 354 571 q 338 758 351 646 q 296 928 326 854 q 261 982 282 963 q 217 1001 240 1001 q 165 947 182 1001 q 138 822 144 890 q 128 682 129 749 l 126 636 q 125 583 125 617 l 125 578 q 144 349 125 485 q 210 86 167 164 q 268 38 238 38 m 115 1103 q 161 1193 117 1122 q 258 1331 206 1264 q 319 1392 308 1392 q 342 1384 332 1392 q 353 1367 353 1376 q 304 1274 353 1338 q 193 1153 256 1210 q 115 1094 138 1101 l 115 1103 m 304 1103 q 290 1121 290 1103 q 349 1204 290 1138 q 471 1332 414 1278 q 550 1392 535 1392 q 576 1382 564 1392 q 593 1360 589 1372 q 526 1283 585 1339 q 400 1173 468 1228 q 304 1103 332 1118 z "},"Ȏ":{"ha":493,"x_min":61,"x_max":419,"o":"m 265 -39 q 197 -14 228 -39 q 144 54 167 11 q 85 260 104 129 q 64 468 71 350 l 63 542 l 63 617 q 61 704 61 653 q 68 851 61 788 q 96 983 74 918 q 160 1064 118 1040 q 210 1075 185 1075 q 326 1017 283 1075 q 389 871 374 951 q 414 685 411 774 q 419 499 419 586 l 419 419 q 413 331 419 396 q 407 243 407 279 l 407 238 q 399 146 399 199 q 382 65 399 107 q 335 -6 365 24 q 265 -39 304 -39 m 268 38 q 315 89 296 38 q 340 201 332 135 q 353 350 347 267 q 356 443 356 386 l 354 571 q 338 758 351 646 q 296 928 326 854 q 261 982 282 963 q 217 1001 240 1001 q 165 947 182 1001 q 138 822 144 890 q 128 682 129 749 l 126 636 q 125 583 125 617 l 125 578 q 144 349 125 485 q 210 86 167 164 q 268 38 238 38 m 93 1115 q 118 1225 93 1175 q 155 1265 131 1250 q 211 1279 179 1279 q 255 1272 238 1279 q 285 1249 272 1265 q 306 1217 299 1231 q 322 1179 313 1203 l 325 1174 l 328 1168 l 325 1163 q 324 1157 325 1157 l 331 1135 q 319 1110 331 1121 q 293 1099 308 1099 q 263 1111 271 1099 q 254 1151 254 1124 q 244 1192 254 1168 q 222 1215 233 1215 l 193 1215 q 160 1144 172 1201 q 145 1108 156 1122 q 119 1093 135 1093 l 93 1115 z "},"Ō":{"ha":493,"x_min":18,"x_max":419,"o":"m 265 -39 q 197 -14 228 -39 q 144 54 167 11 q 85 260 104 129 q 64 468 71 350 l 63 542 l 63 617 q 61 704 61 653 q 68 851 61 788 q 96 983 74 918 q 160 1064 118 1040 q 210 1075 185 1075 q 326 1017 283 1075 q 389 871 374 951 q 414 685 411 774 q 419 499 419 586 l 419 419 q 413 331 419 396 q 407 243 407 279 l 407 238 q 399 146 399 199 q 382 65 399 107 q 335 -6 365 24 q 265 -39 304 -39 m 268 38 q 315 89 296 38 q 340 201 332 135 q 353 350 347 267 q 356 443 356 386 l 354 571 q 338 758 351 646 q 296 928 326 854 q 261 982 282 963 q 217 1001 240 1001 q 165 947 182 1001 q 138 822 144 890 q 128 682 129 749 l 126 636 q 125 583 125 617 l 125 578 q 144 349 125 485 q 210 86 167 164 q 268 38 238 38 m 74 1133 q 18 1178 18 1133 q 27 1200 18 1192 q 50 1208 36 1208 l 254 1208 l 296 1211 q 339 1213 315 1213 q 406 1172 406 1213 q 395 1149 406 1157 q 367 1140 385 1140 q 221 1136 319 1140 l 74 1133 z "},"Ǫ":{"ha":493,"x_min":61,"x_max":419,"o":"m 265 -39 q 197 -14 228 -39 q 144 54 167 11 q 85 260 104 129 q 64 468 71 350 l 63 542 l 63 617 q 61 704 61 653 q 68 851 61 788 q 96 983 74 918 q 160 1064 118 1040 q 210 1075 185 1075 q 326 1017 283 1075 q 389 871 374 951 q 414 685 411 774 q 419 499 419 586 l 419 419 q 413 331 419 396 q 407 243 407 279 l 407 238 q 399 146 399 199 q 382 65 399 107 q 335 -6 365 24 q 265 -39 304 -39 m 268 38 q 315 89 296 38 q 340 201 332 135 q 353 350 347 267 q 356 443 356 386 l 354 571 q 338 758 351 646 q 296 928 326 854 q 261 982 282 963 q 217 1001 240 1001 q 165 947 182 1001 q 138 822 144 890 q 128 682 129 749 l 126 636 q 125 583 125 617 l 125 578 q 144 349 125 485 q 210 86 167 164 q 268 38 238 38 m 242 -249 q 186 -223 206 -249 q 167 -165 167 -197 q 201 -69 167 -114 q 292 8 236 -24 l 349 8 q 228 -156 228 -85 q 253 -190 228 -190 q 304 -168 274 -190 l 319 -208 q 285 -235 310 -222 q 242 -249 261 -249 z "},"Ø":{"ha":494,"x_min":61,"x_max":419,"o":"m 83 -151 l 125 97 q 78 305 93 183 q 63 542 63 426 l 63 617 q 61 704 61 653 q 68 853 61 788 q 96 983 74 921 q 160 1064 119 1040 q 210 1075 185 1075 q 294 1047 261 1075 l 325 1219 l 379 1219 l 336 1004 q 407 767 392 924 q 417 640 415 697 q 419 497 419 582 l 419 457 l 419 419 q 413 331 419 396 q 407 243 407 279 l 407 238 q 399 146 399 199 q 382 65 399 107 q 335 -6 365 24 q 265 -39 304 -39 q 210 -22 233 -39 q 163 32 186 -4 l 114 -190 l 83 -151 m 279 960 q 217 1001 253 1001 q 165 947 182 1001 q 138 822 144 890 q 128 682 129 749 l 126 636 q 125 583 125 617 l 125 578 q 133 437 125 528 q 156 268 142 346 l 279 960 m 268 38 q 315 89 296 38 q 340 201 332 135 q 353 350 347 267 q 356 443 356 386 q 313 881 356 735 l 181 163 q 268 38 215 38 z "},"Ǿ":{"ha":494,"x_min":18,"x_max":419,"o":"m 83 -151 l 125 97 q 78 305 93 183 q 63 542 63 426 l 63 617 q 61 704 61 653 q 68 853 61 788 q 96 983 74 921 q 160 1064 119 1040 q 210 1075 185 1075 q 294 1047 261 1075 l 325 1219 l 379 1219 l 336 1004 q 407 767 392 924 q 417 640 415 697 q 419 497 419 582 l 419 457 l 419 419 q 413 331 419 396 q 407 243 407 279 l 407 238 q 399 146 399 199 q 382 65 399 107 q 335 -6 365 24 q 265 -39 304 -39 q 210 -22 233 -39 q 163 32 186 -4 l 114 -190 l 83 -151 m 279 960 q 217 1001 253 1001 q 165 947 182 1001 q 138 822 144 890 q 128 682 129 749 l 126 636 q 125 583 125 617 l 125 578 q 133 437 125 528 q 156 268 142 346 l 279 960 m 268 38 q 315 89 296 38 q 340 201 332 135 q 353 350 347 267 q 356 443 356 386 q 313 881 356 735 l 181 163 q 268 38 215 38 m 40 1090 q 25 1095 32 1090 q 18 1108 18 1100 q 25 1122 18 1115 l 47 1142 q 125 1210 54 1149 l 207 1281 q 219 1283 213 1283 q 250 1267 236 1283 q 264 1232 264 1250 q 254 1210 264 1215 q 51 1093 204 1171 q 40 1090 49 1090 z "},"Õ":{"ha":493,"x_min":50,"x_max":419,"o":"m 265 -39 q 197 -14 228 -39 q 144 54 167 11 q 85 260 104 129 q 64 468 71 350 l 63 542 l 63 617 q 61 704 61 653 q 68 851 61 788 q 96 983 74 918 q 160 1064 118 1040 q 210 1075 185 1075 q 326 1017 283 1075 q 389 871 374 951 q 414 685 411 774 q 419 499 419 586 l 419 419 q 413 331 419 396 q 407 243 407 279 l 407 238 q 399 146 399 199 q 382 65 399 107 q 335 -6 365 24 q 265 -39 304 -39 m 268 38 q 315 89 296 38 q 340 201 332 135 q 353 350 347 267 q 356 443 356 386 l 354 571 q 338 758 351 646 q 296 928 326 854 q 261 982 282 963 q 217 1001 240 1001 q 165 947 182 1001 q 138 822 144 890 q 128 682 129 749 l 126 636 q 125 583 125 617 l 125 578 q 144 349 125 485 q 210 86 167 164 q 268 38 238 38 m 285 1100 q 225 1109 250 1100 q 190 1131 200 1118 q 167 1151 181 1143 q 136 1160 153 1160 q 122 1149 126 1156 q 121 1133 118 1142 l 121 1131 q 100 1106 121 1113 q 64 1116 78 1106 q 50 1146 50 1126 q 78 1203 50 1181 q 151 1226 106 1226 q 211 1199 167 1226 q 268 1171 256 1171 q 288 1179 281 1171 q 297 1199 296 1188 q 308 1218 300 1210 q 328 1226 315 1226 q 362 1216 350 1226 q 374 1190 374 1206 q 347 1127 374 1154 q 285 1100 321 1100 z "},"Ȭ":{"ha":493,"x_min":18,"x_max":419,"o":"m 265 -39 q 197 -14 228 -39 q 144 54 167 11 q 85 260 104 129 q 64 468 71 350 l 63 542 l 63 617 q 61 704 61 653 q 68 851 61 788 q 96 983 74 918 q 160 1064 118 1040 q 210 1075 185 1075 q 326 1017 283 1075 q 389 871 374 951 q 414 685 411 774 q 419 499 419 586 l 419 419 q 413 331 419 396 q 407 243 407 279 l 407 238 q 399 146 399 199 q 382 65 399 107 q 335 -6 365 24 q 265 -39 304 -39 m 268 38 q 315 89 296 38 q 340 201 332 135 q 353 350 347 267 q 356 443 356 386 l 354 571 q 338 758 351 646 q 296 928 326 854 q 261 982 282 963 q 217 1001 240 1001 q 165 947 182 1001 q 138 822 144 890 q 128 682 129 749 l 126 636 q 125 583 125 617 l 125 578 q 144 349 125 485 q 210 86 167 164 q 268 38 238 38 m 285 1100 q 225 1109 250 1100 q 190 1131 200 1118 q 167 1151 181 1143 q 136 1160 153 1160 q 122 1149 126 1156 q 121 1133 118 1142 l 121 1131 q 100 1106 121 1113 q 64 1116 78 1106 q 50 1146 50 1126 q 78 1203 50 1181 q 151 1226 106 1226 q 211 1199 167 1226 q 268 1171 256 1171 q 288 1179 281 1171 q 297 1199 296 1188 q 308 1218 300 1210 q 328 1226 315 1226 q 362 1216 350 1226 q 374 1190 374 1206 q 347 1127 374 1154 q 285 1100 321 1100 m 74 1325 q 18 1369 18 1325 q 27 1392 18 1383 q 50 1400 36 1400 l 254 1400 l 296 1403 q 339 1404 315 1404 q 406 1364 406 1404 q 395 1340 406 1349 q 367 1332 385 1332 q 221 1328 319 1332 l 74 1325 z "},"Œ":{"ha":790,"x_min":61,"x_max":765,"o":"m 531 -15 q 497 -6 513 -15 q 481 18 481 4 l 481 22 q 407 6 429 6 q 232 46 308 6 q 129 149 171 79 q 99 217 113 178 q 79 296 86 257 q 63 464 65 365 q 61 549 61 489 q 64 672 61 614 q 81 821 67 743 q 98 890 88 860 q 126 956 108 919 q 164 1006 143 986 q 214 1039 185 1026 q 279 1051 243 1051 q 388 1043 344 1051 q 467 1013 432 1035 l 488 1042 q 518 1039 504 1042 q 550 1035 539 1035 l 653 1035 q 671 1036 664 1035 l 688 1038 q 719 997 719 1018 q 707 975 719 983 q 678 967 694 967 l 603 969 l 531 972 q 540 832 531 919 q 550 690 550 722 l 549 654 q 547 619 547 639 q 550 581 547 603 l 592 579 l 599 579 l 614 579 l 629 579 q 676 554 660 579 q 638 511 676 511 l 604 513 q 571 514 589 514 l 551 514 q 556 281 551 435 q 561 54 561 143 q 651 58 608 58 l 674 58 q 765 17 765 58 l 765 13 l 750 -11 q 640 -12 689 -11 l 531 -15 m 371 76 q 465 90 421 76 q 493 114 493 100 q 481 535 493 260 q 465 929 468 771 q 300 983 418 983 q 234 967 264 983 q 185 922 204 951 q 136 786 146 861 q 125 649 125 714 l 125 603 l 125 556 l 125 510 q 144 319 136 486 q 164 210 149 263 q 201 157 179 158 q 278 98 233 119 q 371 76 322 76 z "},"P":{"ha":400,"x_min":68,"x_max":339,"o":"m 131 -7 q 106 6 115 -7 q 97 39 97 19 l 100 272 q 104 535 104 442 q 68 1031 104 858 q 121 1063 89 1063 q 215 1040 172 1063 q 285 978 257 1017 q 339 797 339 897 q 294 611 339 693 q 165 483 250 529 l 168 343 l 171 269 q 172 201 172 246 q 176 50 176 108 q 165 8 176 24 q 131 -7 154 -7 m 163 550 q 242 658 217 601 q 268 785 268 714 l 268 786 q 261 867 268 818 q 246 900 257 883 q 233 919 235 917 q 182 963 224 933 l 146 989 q 154 769 146 918 l 163 550 z "},"Ṗ":{"ha":400,"x_min":68,"x_max":339,"o":"m 131 -7 q 106 6 115 -7 q 97 39 97 19 l 100 272 q 104 535 104 442 q 68 1031 104 858 q 121 1063 89 1063 q 215 1040 172 1063 q 285 978 257 1017 q 339 797 339 897 q 294 611 339 693 q 165 483 250 529 l 168 343 l 171 269 q 172 201 172 246 q 176 50 176 108 q 165 8 176 24 q 131 -7 154 -7 m 163 550 q 242 658 217 601 q 268 785 268 714 l 268 786 q 261 867 268 818 q 246 900 257 883 q 233 919 235 917 q 182 963 224 933 l 146 989 q 154 769 146 918 l 163 550 m 196 1110 q 164 1125 178 1110 q 150 1160 150 1140 q 165 1197 150 1181 q 201 1213 181 1213 q 236 1197 221 1213 q 251 1161 251 1181 q 235 1124 251 1139 q 196 1110 219 1110 z "},"Þ":{"ha":364,"x_min":64,"x_max":322,"o":"m 114 -7 q 90 6 99 -7 q 81 39 81 19 q 74 460 81 147 q 65 879 65 739 l 64 1008 q 99 1050 64 1050 q 146 965 146 1050 l 146 939 l 144 918 q 244 868 201 910 q 306 768 286 826 q 322 654 322 713 q 278 469 322 551 q 149 340 233 386 l 151 246 l 154 197 q 160 50 160 113 q 114 -7 160 -7 m 146 407 q 226 515 200 458 q 251 643 251 572 q 242 732 251 700 q 214 788 233 764 q 147 847 190 813 l 143 847 l 144 628 l 146 407 z "},"Q":{"ha":553,"x_min":61,"x_max":464,"o":"m 403 -192 q 344 -172 379 -192 l 344 -171 q 292 -110 307 -154 q 274 -25 282 -74 q 267 14 268 8 l 210 14 q 101 142 136 63 q 76 218 86 175 q 64 303 67 261 q 61 389 61 328 l 64 503 q 68 615 68 578 l 67 660 l 67 714 q 72 847 67 797 q 101 974 81 917 q 168 1057 124 1033 q 219 1069 192 1069 q 289 1054 257 1069 q 344 1013 321 1039 q 406 868 382 968 q 425 685 422 778 q 426 589 426 656 l 426 514 q 425 447 425 482 l 425 385 q 409 190 425 260 q 340 47 393 121 l 346 19 q 364 -65 354 -35 q 399 -115 378 -115 l 404 -115 q 443 -118 429 -115 q 464 -149 464 -125 q 403 -192 464 -192 m 260 56 q 297 74 269 74 l 297 72 q 349 222 349 119 l 349 596 q 344 744 349 685 q 319 890 339 822 q 295 947 310 925 q 258 985 281 969 q 208 1000 235 1000 q 167 928 183 1000 q 132 569 139 818 q 129 443 129 472 q 136 306 129 383 q 172 142 143 221 q 208 80 186 103 q 260 54 231 57 l 260 56 z "},"R":{"ha":401,"x_min":78,"x_max":374,"o":"m 340 -14 q 289 24 314 -14 l 289 28 q 264 192 285 101 q 203 410 243 282 q 151 582 172 506 l 151 35 q 144 2 151 13 q 114 -8 136 -8 q 88 2 97 -8 q 78 29 78 13 l 78 40 l 81 449 q 83 856 83 629 l 83 1026 q 90 1049 83 1043 q 119 1056 97 1056 q 183 1042 154 1056 q 233 1006 213 1029 q 289 889 276 957 q 294 825 294 861 q 291 779 294 804 q 286 747 288 754 q 274 706 283 733 q 261 669 264 678 l 244 631 l 231 594 q 248 468 232 544 q 283 326 264 392 q 333 174 297 281 l 374 51 l 374 49 q 369 8 374 25 q 340 -14 365 -14 m 149 644 q 196 699 168 664 l 217 818 q 218 838 218 825 q 203 931 218 878 q 181 973 194 956 q 154 992 168 990 l 151 853 q 147 708 147 760 q 149 644 147 660 z "},"Ŕ":{"ha":401,"x_min":78,"x_max":374,"o":"m 340 -14 q 289 24 314 -14 l 289 28 q 264 192 285 101 q 203 410 243 282 q 151 582 172 506 l 151 35 q 144 2 151 13 q 114 -8 136 -8 q 88 2 97 -8 q 78 29 78 13 l 78 40 l 81 449 q 83 856 83 629 l 83 1026 q 90 1049 83 1043 q 119 1056 97 1056 q 183 1042 154 1056 q 233 1006 213 1029 q 289 889 276 957 q 294 825 294 861 q 291 779 294 804 q 286 747 288 754 q 274 706 283 733 q 261 669 264 678 l 244 631 l 231 594 q 248 468 232 544 q 283 326 264 392 q 333 174 297 281 l 374 51 l 374 49 q 369 8 374 25 q 340 -14 365 -14 m 149 644 q 196 699 168 664 l 217 818 q 218 838 218 825 q 203 931 218 878 q 181 973 194 956 q 154 992 168 990 l 151 853 q 147 708 147 760 q 149 644 147 660 m 108 1076 q 93 1081 100 1076 q 86 1094 86 1086 q 93 1108 86 1101 l 115 1128 q 193 1196 122 1135 l 275 1267 q 288 1269 281 1269 q 318 1253 304 1269 q 332 1218 332 1236 q 322 1196 332 1201 q 119 1079 272 1157 q 108 1076 117 1076 z "},"Ř":{"ha":401,"x_min":21,"x_max":374,"o":"m 340 -14 q 289 24 314 -14 l 289 28 q 264 192 285 101 q 203 410 243 282 q 151 582 172 506 l 151 35 q 144 2 151 13 q 114 -8 136 -8 q 88 2 97 -8 q 78 29 78 13 l 78 40 l 81 449 q 83 856 83 629 l 83 1026 q 90 1049 83 1043 q 119 1056 97 1056 q 183 1042 154 1056 q 233 1006 213 1029 q 289 889 276 957 q 294 825 294 861 q 291 779 294 804 q 286 747 288 754 q 274 706 283 733 q 261 669 264 678 l 244 631 l 231 594 q 248 468 232 544 q 283 326 264 392 q 333 174 297 281 l 374 51 l 374 49 q 369 8 374 25 q 340 -14 365 -14 m 149 644 q 196 699 168 664 l 217 818 q 218 838 218 825 q 203 931 218 878 q 181 973 194 956 q 154 992 168 990 l 151 853 q 147 708 147 760 q 149 644 147 660 m 147 1088 q 100 1141 131 1088 q 45 1260 69 1194 q 21 1350 21 1325 q 31 1369 21 1361 q 54 1378 42 1378 q 89 1338 69 1378 q 124 1235 103 1306 l 142 1171 q 147 1217 146 1204 q 153 1263 149 1229 q 164 1325 157 1297 q 203 1382 175 1382 q 224 1374 215 1382 q 232 1353 232 1365 q 226 1342 232 1349 l 221 1332 l 221 1307 l 201 1231 q 182 1132 182 1150 q 147 1088 182 1088 z "},"Ŗ":{"ha":401,"x_min":78,"x_max":374,"o":"m 340 -14 q 289 24 314 -14 l 289 28 q 264 192 285 101 q 203 410 243 282 q 151 582 172 506 l 151 35 q 144 2 151 13 q 114 -8 136 -8 q 88 2 97 -8 q 78 29 78 13 l 78 40 l 81 449 q 83 856 83 629 l 83 1026 q 90 1049 83 1043 q 119 1056 97 1056 q 183 1042 154 1056 q 233 1006 213 1029 q 289 889 276 957 q 294 825 294 861 q 291 779 294 804 q 286 747 288 754 q 274 706 283 733 q 261 669 264 678 l 244 631 l 231 594 q 248 468 232 544 q 283 326 264 392 q 333 174 297 281 l 374 51 l 374 49 q 369 8 374 25 q 340 -14 365 -14 m 149 644 q 196 699 168 664 l 217 818 q 218 838 218 825 q 203 931 218 878 q 181 973 194 956 q 154 992 168 990 l 151 853 q 147 708 147 760 q 149 644 147 660 m 132 -368 q 121 -357 121 -368 q 166 -259 121 -347 q 244 -118 211 -171 q 251 -115 246 -115 q 272 -125 261 -115 q 283 -146 283 -135 q 258 -219 283 -174 q 199 -308 233 -265 q 143 -365 165 -350 q 135 -368 138 -368 l 132 -368 z "},"Ȑ":{"ha":401,"x_min":-74,"x_max":374,"o":"m 340 -14 q 289 24 314 -14 l 289 28 q 264 192 285 101 q 203 410 243 282 q 151 582 172 506 l 151 35 q 144 2 151 13 q 114 -8 136 -8 q 88 2 97 -8 q 78 29 78 13 l 78 40 l 81 449 q 83 856 83 629 l 83 1026 q 90 1049 83 1043 q 119 1056 97 1056 q 183 1042 154 1056 q 233 1006 213 1029 q 289 889 276 957 q 294 825 294 861 q 291 779 294 804 q 286 747 288 754 q 274 706 283 733 q 261 669 264 678 l 244 631 l 231 594 q 248 468 232 544 q 283 326 264 392 q 333 174 297 281 l 374 51 l 374 49 q 369 8 374 25 q 340 -14 365 -14 m 149 644 q 196 699 168 664 l 217 818 q 218 838 218 825 q 203 931 218 878 q 181 973 194 956 q 154 992 168 990 l 151 853 q 147 708 147 760 q 149 644 147 660 m 153 1089 q -61 1290 -58 1286 l -74 1313 q -58 1338 -69 1328 q -33 1349 -47 1349 q 28 1294 -22 1349 q 124 1178 81 1236 q 167 1106 167 1119 q 153 1089 167 1089 m 318 1078 q 182 1232 244 1149 q 142 1308 142 1285 q 153 1322 142 1315 q 176 1328 165 1328 q 223 1276 186 1328 q 293 1167 260 1225 q 328 1093 326 1110 l 318 1078 z "},"Ȓ":{"ha":401,"x_min":7,"x_max":374,"o":"m 340 -14 q 289 24 314 -14 l 289 28 q 264 192 285 101 q 203 410 243 282 q 151 582 172 506 l 151 35 q 144 2 151 13 q 114 -8 136 -8 q 88 2 97 -8 q 78 29 78 13 l 78 40 l 81 449 q 83 856 83 629 l 83 1026 q 90 1049 83 1043 q 119 1056 97 1056 q 183 1042 154 1056 q 233 1006 213 1029 q 289 889 276 957 q 294 825 294 861 q 291 779 294 804 q 286 747 288 754 q 274 706 283 733 q 261 669 264 678 l 244 631 l 231 594 q 248 468 232 544 q 283 326 264 392 q 333 174 297 281 l 374 51 l 374 49 q 369 8 374 25 q 340 -14 365 -14 m 149 644 q 196 699 168 664 l 217 818 q 218 838 218 825 q 203 931 218 878 q 181 973 194 956 q 154 992 168 990 l 151 853 q 147 708 147 760 q 149 644 147 660 m 7 1096 q 32 1206 7 1156 q 69 1245 44 1231 q 125 1260 93 1260 q 169 1253 151 1260 q 199 1229 186 1246 q 219 1197 213 1211 q 236 1160 226 1183 l 239 1154 l 242 1149 l 239 1143 q 238 1138 239 1138 l 244 1115 q 233 1090 244 1101 q 207 1079 222 1079 q 176 1092 185 1079 q 168 1132 168 1104 q 158 1172 168 1149 q 136 1196 147 1196 l 107 1196 q 74 1125 86 1182 q 59 1088 69 1103 q 33 1074 49 1074 l 7 1096 z "},"S":{"ha":426,"x_min":54,"x_max":351,"o":"m 163 -31 q 76 -12 113 -31 q 54 17 54 0 q 63 44 54 33 q 86 54 71 54 q 126 43 100 54 q 163 32 156 32 q 210 55 189 32 q 244 115 232 78 q 269 240 269 185 q 251 366 269 300 q 200 494 232 432 l 178 539 q 124 649 143 608 q 92 736 106 689 q 71 865 71 803 q 88 960 71 915 q 140 1035 106 1004 q 226 1068 175 1068 q 275 1053 251 1068 q 308 1017 299 1039 l 285 988 q 231 1001 249 988 q 187 977 206 999 q 158 928 168 956 q 150 875 150 901 q 165 767 150 822 q 203 664 179 713 l 300 469 q 338 357 324 419 q 351 232 351 294 q 307 60 351 140 q 246 -6 283 18 q 163 -31 208 -31 z "},"Ś":{"ha":426,"x_min":54,"x_max":406,"o":"m 163 -31 q 76 -12 113 -31 q 54 17 54 0 q 63 44 54 33 q 86 54 71 54 q 126 43 100 54 q 163 32 156 32 q 210 55 189 32 q 244 115 232 78 q 269 240 269 185 q 251 366 269 300 q 200 494 232 432 l 178 539 q 124 649 143 608 q 92 736 106 689 q 71 865 71 803 q 88 960 71 915 q 140 1035 106 1004 q 226 1068 175 1068 q 275 1053 251 1068 q 308 1017 299 1039 l 285 988 q 231 1001 249 988 q 187 977 206 999 q 158 928 168 956 q 150 875 150 901 q 165 767 150 822 q 203 664 179 713 l 300 469 q 338 357 324 419 q 351 232 351 294 q 307 60 351 140 q 246 -6 283 18 q 163 -31 208 -31 m 182 1103 q 167 1108 174 1103 q 160 1121 160 1113 q 167 1135 160 1128 l 189 1154 q 267 1222 196 1161 l 349 1293 q 361 1296 354 1296 q 392 1279 378 1296 q 406 1244 406 1263 q 396 1222 406 1228 q 193 1106 346 1183 q 182 1103 190 1103 z "},"Š":{"ha":426,"x_min":54,"x_max":351,"o":"m 163 -31 q 76 -12 113 -31 q 54 17 54 0 q 63 44 54 33 q 86 54 71 54 q 126 43 100 54 q 163 32 156 32 q 210 55 189 32 q 244 115 232 78 q 269 240 269 185 q 251 366 269 300 q 200 494 232 432 l 178 539 q 124 649 143 608 q 92 736 106 689 q 71 865 71 803 q 88 960 71 915 q 140 1035 106 1004 q 226 1068 175 1068 q 275 1053 251 1068 q 308 1017 299 1039 l 285 988 q 231 1001 249 988 q 187 977 206 999 q 158 928 168 956 q 150 875 150 901 q 165 767 150 822 q 203 664 179 713 l 300 469 q 338 357 324 419 q 351 232 351 294 q 307 60 351 140 q 246 -6 283 18 q 163 -31 208 -31 m 221 1114 q 174 1167 204 1114 q 119 1286 143 1221 q 94 1376 94 1351 q 105 1396 94 1388 q 128 1404 115 1404 q 163 1364 143 1404 q 197 1261 176 1332 l 215 1197 q 221 1243 219 1231 q 226 1290 222 1256 q 238 1351 231 1324 q 276 1408 249 1408 q 297 1400 289 1408 q 306 1379 306 1392 q 300 1368 306 1375 l 294 1358 l 294 1333 l 275 1257 q 256 1158 256 1176 q 221 1114 256 1114 z "},"Ş":{"ha":426,"x_min":54,"x_max":351,"o":"m 163 -31 q 76 -12 113 -31 q 54 17 54 0 q 63 44 54 33 q 86 54 71 54 q 126 43 100 54 q 163 32 156 32 q 210 55 189 32 q 244 115 232 78 q 269 240 269 185 q 251 366 269 300 q 200 494 232 432 l 178 539 q 124 649 143 608 q 92 736 106 689 q 71 865 71 803 q 88 960 71 915 q 140 1035 106 1004 q 226 1068 175 1068 q 275 1053 251 1068 q 308 1017 299 1039 l 285 988 q 231 1001 249 988 q 187 977 206 999 q 158 928 168 956 q 150 875 150 901 q 165 767 150 822 q 203 664 179 713 l 300 469 q 338 357 324 419 q 351 232 351 294 q 307 60 351 140 q 246 -6 283 18 q 163 -31 208 -31 m 164 -304 q 123 -294 142 -304 q 104 -267 104 -283 q 119 -253 104 -253 q 142 -260 125 -253 q 164 -267 158 -267 q 203 -238 188 -267 q 218 -171 218 -210 q 197 -108 218 -125 l 179 -111 l 160 -114 q 122 -86 139 -114 q 133 -6 133 -57 l 133 10 l 174 15 q 168 -56 168 -26 q 269 -194 269 -61 q 255 -242 269 -217 q 215 -286 240 -268 q 164 -304 190 -304 z "},"Ŝ":{"ha":426,"x_min":54,"x_max":351,"o":"m 163 -31 q 76 -12 113 -31 q 54 17 54 0 q 63 44 54 33 q 86 54 71 54 q 126 43 100 54 q 163 32 156 32 q 210 55 189 32 q 244 115 232 78 q 269 240 269 185 q 251 366 269 300 q 200 494 232 432 l 178 539 q 124 649 143 608 q 92 736 106 689 q 71 865 71 803 q 88 960 71 915 q 140 1035 106 1004 q 226 1068 175 1068 q 275 1053 251 1068 q 308 1017 299 1039 l 285 988 q 231 1001 249 988 q 187 977 206 999 q 158 928 168 956 q 150 875 150 901 q 165 767 150 822 q 203 664 179 713 l 300 469 q 338 357 324 419 q 351 232 351 294 q 307 60 351 140 q 246 -6 283 18 q 163 -31 208 -31 m 315 1101 q 299 1111 301 1101 l 244 1299 l 174 1121 q 154 1111 169 1111 q 130 1119 140 1111 q 119 1139 119 1126 q 122 1151 119 1147 l 171 1274 q 188 1311 176 1285 q 204 1347 199 1338 q 236 1381 219 1372 q 256 1383 247 1383 q 275 1371 267 1383 q 310 1276 294 1340 l 328 1210 q 346 1143 340 1160 q 347 1131 347 1139 q 338 1110 347 1118 q 315 1101 328 1101 z "},"Ș":{"ha":426,"x_min":54,"x_max":351,"o":"m 163 -31 q 76 -12 113 -31 q 54 17 54 0 q 63 44 54 33 q 86 54 71 54 q 126 43 100 54 q 163 32 156 32 q 210 55 189 32 q 244 115 232 78 q 269 240 269 185 q 251 366 269 300 q 200 494 232 432 l 178 539 q 124 649 143 608 q 92 736 106 689 q 71 865 71 803 q 88 960 71 915 q 140 1035 106 1004 q 226 1068 175 1068 q 275 1053 251 1068 q 308 1017 299 1039 l 285 988 q 231 1001 249 988 q 187 977 206 999 q 158 928 168 956 q 150 875 150 901 q 165 767 150 822 q 203 664 179 713 l 300 469 q 338 357 324 419 q 351 232 351 294 q 307 60 351 140 q 246 -6 283 18 q 163 -31 208 -31 m 83 -368 q 72 -357 72 -368 q 117 -259 72 -347 q 196 -118 163 -171 q 203 -115 197 -115 q 224 -125 213 -115 q 235 -146 235 -135 q 210 -219 235 -174 q 151 -308 185 -265 q 94 -365 117 -350 q 86 -368 89 -368 l 83 -368 z "},"Ṡ":{"ha":426,"x_min":54,"x_max":351,"o":"m 163 -31 q 76 -12 113 -31 q 54 17 54 0 q 63 44 54 33 q 86 54 71 54 q 126 43 100 54 q 163 32 156 32 q 210 55 189 32 q 244 115 232 78 q 269 240 269 185 q 251 366 269 300 q 200 494 232 432 l 178 539 q 124 649 143 608 q 92 736 106 689 q 71 865 71 803 q 88 960 71 915 q 140 1035 106 1004 q 226 1068 175 1068 q 275 1053 251 1068 q 308 1017 299 1039 l 285 988 q 231 1001 249 988 q 187 977 206 999 q 158 928 168 956 q 150 875 150 901 q 165 767 150 822 q 203 664 179 713 l 300 469 q 338 357 324 419 q 351 232 351 294 q 307 60 351 140 q 246 -6 283 18 q 163 -31 208 -31 m 196 1136 q 164 1151 178 1136 q 150 1186 150 1167 q 165 1223 150 1207 q 201 1239 181 1239 q 236 1223 221 1239 q 251 1188 251 1207 q 235 1151 251 1165 q 196 1136 219 1136 z "},"ẞ":{"ha":449,"x_min":64,"x_max":368,"o":"m 108 -32 q 68 3 68 -32 l 71 183 q 75 365 75 304 q 69 606 75 463 l 67 685 l 64 847 q 79 964 64 904 q 142 1060 96 1029 q 199 1075 168 1075 q 263 1052 235 1075 q 304 990 290 1029 q 328 847 328 918 q 242 582 328 725 q 342 466 315 526 q 368 301 368 406 q 335 151 368 222 q 244 33 303 81 l 242 32 l 233 31 q 211 38 221 31 q 201 56 201 44 q 251 136 201 72 q 285 203 271 164 q 300 278 300 242 q 288 400 300 347 q 258 481 276 453 q 222 524 238 508 q 205 540 218 528 q 185 562 192 553 q 179 579 179 571 q 200 638 179 590 q 242 758 224 696 q 260 864 260 819 q 247 943 260 897 q 228 983 240 968 q 199 999 215 999 q 167 986 181 999 q 146 953 154 974 q 132 878 132 913 q 143 456 132 756 q 153 31 153 192 q 143 -16 153 0 q 108 -32 133 -32 z "},"Ə":{"ha":619,"x_min":61,"x_max":551,"o":"m 292 -14 q 116 65 171 -14 q 61 307 61 144 l 61 350 q 113 540 61 471 q 261 608 164 608 l 271 608 l 461 600 q 463 715 463 649 q 419 933 463 847 q 299 1019 375 1019 q 118 924 219 1019 q 106 918 114 918 q 86 929 93 918 q 79 956 79 940 l 79 960 q 90 975 82 968 q 311 1071 208 1071 q 440 1020 385 1071 q 524 882 494 969 q 551 692 551 796 l 551 436 q 519 192 551 293 q 428 38 488 90 q 292 -14 369 -14 m 272 40 q 313 46 292 40 q 421 152 385 65 q 457 401 457 239 l 457 407 q 460 547 457 464 l 265 547 q 226 544 239 547 q 196 528 213 540 q 154 399 164 503 q 149 281 149 335 q 272 40 149 40 z "},"T":{"ha":364,"x_min":3,"x_max":303,"o":"m 188 -10 q 155 10 167 -10 q 143 60 143 31 q 149 172 143 106 l 151 208 l 154 282 q 144 499 154 331 q 135 715 135 667 q 135 731 135 719 q 136 768 136 743 q 138 836 138 796 q 124 965 138 938 q 88 961 115 965 l 49 958 q 17 969 31 958 q 3 996 3 979 q 36 1025 3 1013 q 201 1049 85 1042 q 258 1051 249 1051 q 289 1040 275 1051 q 303 1013 303 1029 q 291 985 303 996 q 261 975 279 975 l 236 976 q 211 978 225 978 l 197 978 q 207 807 207 883 l 206 718 q 204 628 204 678 q 210 468 204 561 q 217 308 217 353 q 222 183 217 256 q 228 58 228 110 q 188 -10 228 -10 z "},"Ŧ":{"ha":475,"x_min":76,"x_max":464,"o":"m 397 624 q 464 582 464 624 q 453 558 464 567 q 425 550 443 550 l 294 547 l 299 468 q 304 308 304 375 q 311 183 304 274 l 314 142 l 317 58 q 276 -10 317 -10 q 244 10 256 -10 q 232 60 232 31 q 236 172 232 97 q 242 282 242 238 q 232 499 242 364 l 229 546 l 132 543 q 76 588 76 543 q 107 618 76 618 l 226 618 q 224 715 224 696 l 225 768 l 225 836 q 213 965 225 936 q 176 961 201 965 l 138 958 q 106 969 119 958 q 92 996 92 979 q 125 1025 92 1013 q 289 1049 174 1042 q 347 1051 336 1051 q 378 1040 364 1051 q 392 1013 392 1029 q 380 985 392 994 q 349 975 368 975 l 324 976 q 300 978 314 978 l 286 978 q 294 807 294 897 q 293 718 294 757 l 292 628 l 292 618 l 311 618 l 354 621 l 397 624 z "},"Ť":{"ha":364,"x_min":3,"x_max":303,"o":"m 188 -10 q 155 10 167 -10 q 143 60 143 31 q 149 172 143 106 l 151 208 l 154 282 q 144 499 154 331 q 135 715 135 667 q 135 731 135 719 q 136 768 136 743 q 138 836 138 796 q 124 965 138 938 q 88 961 115 965 l 49 958 q 17 969 31 958 q 3 996 3 979 q 36 1025 3 1013 q 201 1049 85 1042 q 258 1051 249 1051 q 289 1040 275 1051 q 303 1013 303 1029 q 291 985 303 996 q 261 975 279 975 l 236 976 q 211 978 225 978 l 197 978 q 207 807 207 883 l 206 718 q 204 628 204 678 q 210 468 204 561 q 217 308 217 353 q 222 183 217 256 q 228 58 228 110 q 188 -10 228 -10 m 203 1088 q 156 1141 186 1088 q 101 1260 125 1194 q 76 1350 76 1325 q 87 1369 76 1361 q 110 1378 97 1378 q 144 1338 125 1378 q 179 1235 158 1306 l 197 1171 q 203 1217 201 1204 q 208 1263 204 1229 q 219 1325 213 1297 q 258 1382 231 1382 q 279 1374 271 1382 q 288 1353 288 1365 q 282 1342 288 1349 l 276 1332 l 276 1307 l 257 1231 q 238 1132 238 1150 q 203 1088 238 1088 z "},"Ţ":{"ha":364,"x_min":3,"x_max":303,"o":"m 188 -10 q 155 10 167 -10 q 143 60 143 31 q 149 172 143 106 l 151 208 l 154 282 q 144 499 154 331 q 135 715 135 667 q 135 731 135 719 q 136 768 136 743 q 138 836 138 796 q 124 965 138 938 q 88 961 115 965 l 49 958 q 17 969 31 958 q 3 996 3 979 q 36 1025 3 1013 q 201 1049 85 1042 q 258 1051 249 1051 q 289 1040 275 1051 q 303 1013 303 1029 q 291 985 303 996 q 261 975 279 975 l 236 976 q 211 978 225 978 l 197 978 q 207 807 207 883 l 206 718 q 204 628 204 678 q 210 468 204 561 q 217 308 217 353 q 222 183 217 256 q 228 58 228 110 q 188 -10 228 -10 m 193 -304 q 152 -294 171 -304 q 133 -267 133 -283 q 149 -253 133 -253 q 171 -260 154 -253 q 193 -267 188 -267 q 232 -238 217 -267 q 247 -171 247 -210 q 226 -108 247 -125 l 208 -111 l 189 -114 q 151 -86 168 -114 q 163 -6 163 -57 l 163 10 l 203 15 q 197 -56 197 -26 q 299 -194 299 -61 q 284 -242 299 -217 q 244 -286 269 -268 q 193 -304 219 -304 z "},"Ț":{"ha":364,"x_min":3,"x_max":303,"o":"m 188 -10 q 155 10 167 -10 q 143 60 143 31 q 149 172 143 106 l 151 208 l 154 282 q 144 499 154 331 q 135 715 135 667 q 135 731 135 719 q 136 768 136 743 q 138 836 138 796 q 124 965 138 938 q 88 961 115 965 l 49 958 q 17 969 31 958 q 3 996 3 979 q 36 1025 3 1013 q 201 1049 85 1042 q 258 1051 249 1051 q 289 1040 275 1051 q 303 1013 303 1029 q 291 985 303 996 q 261 975 279 975 l 236 976 q 211 978 225 978 l 197 978 q 207 807 207 883 l 206 718 q 204 628 204 678 q 210 468 204 561 q 217 308 217 353 q 222 183 217 256 q 228 58 228 110 q 188 -10 228 -10 m 113 -368 q 101 -357 101 -368 q 147 -259 101 -347 q 225 -118 192 -171 q 232 -115 226 -115 q 253 -125 242 -115 q 264 -146 264 -135 q 239 -219 264 -174 q 180 -308 214 -265 q 124 -365 146 -350 q 115 -368 118 -368 l 113 -368 z "},"Ṫ":{"ha":364,"x_min":3,"x_max":303,"o":"m 188 -10 q 155 10 167 -10 q 143 60 143 31 q 149 172 143 106 l 151 208 l 154 282 q 144 499 154 331 q 135 715 135 667 q 135 731 135 719 q 136 768 136 743 q 138 836 138 796 q 124 965 138 938 q 88 961 115 965 l 49 958 q 17 969 31 958 q 3 996 3 979 q 36 1025 3 1013 q 201 1049 85 1042 q 258 1051 249 1051 q 289 1040 275 1051 q 303 1013 303 1029 q 291 985 303 996 q 261 975 279 975 l 236 976 q 211 978 225 978 l 197 978 q 207 807 207 883 l 206 718 q 204 628 204 678 q 210 468 204 561 q 217 308 217 353 q 222 183 217 256 q 228 58 228 110 q 188 -10 228 -10 m 178 1110 q 146 1125 160 1110 q 132 1160 132 1140 q 147 1197 132 1181 q 183 1213 163 1213 q 218 1197 203 1213 q 233 1161 233 1181 q 217 1124 233 1139 q 178 1110 201 1110 z "},"U":{"ha":557,"x_min":64,"x_max":463,"o":"m 325 -25 q 189 50 239 -25 q 113 238 135 126 q 81 490 88 356 q 74 756 74 613 l 74 871 q 75 974 75 919 q 64 1001 64 985 q 76 1031 64 1018 q 104 1044 89 1044 q 154 946 154 1044 q 161 704 154 882 q 168 463 168 526 q 181 390 175 444 q 188 301 188 336 q 197 226 188 271 q 225 135 207 181 q 272 55 243 86 q 333 24 301 24 q 366 36 353 24 q 383 72 379 49 q 392 149 392 111 l 392 419 q 382 550 392 471 q 374 682 374 638 l 374 692 q 372 732 374 714 l 371 772 q 367 890 371 811 q 361 1010 361 961 q 377 1036 361 1025 q 413 1047 393 1047 l 447 1015 l 447 992 q 442 951 447 975 q 436 907 436 913 q 450 558 436 781 q 463 196 463 325 q 449 74 463 126 q 426 22 440 42 q 386 -11 411 3 q 325 -25 363 -25 z "},"Ú":{"ha":557,"x_min":64,"x_max":463,"o":"m 325 -25 q 189 50 239 -25 q 113 238 135 126 q 81 490 88 356 q 74 756 74 613 l 74 871 q 75 974 75 919 q 64 1001 64 985 q 76 1031 64 1018 q 104 1044 89 1044 q 154 946 154 1044 q 161 704 154 882 q 168 463 168 526 q 181 390 175 444 q 188 301 188 336 q 197 226 188 271 q 225 135 207 181 q 272 55 243 86 q 333 24 301 24 q 366 36 353 24 q 383 72 379 49 q 392 149 392 111 l 392 419 q 382 550 392 471 q 374 682 374 638 l 374 692 q 372 732 374 714 l 371 772 q 367 890 371 811 q 361 1010 361 961 q 377 1036 361 1025 q 413 1047 393 1047 l 447 1015 l 447 992 q 442 951 447 975 q 436 907 436 913 q 450 558 436 781 q 463 196 463 325 q 449 74 463 126 q 426 22 440 42 q 386 -11 411 3 q 325 -25 363 -25 m 233 1076 q 218 1081 225 1076 q 211 1094 211 1086 q 218 1108 211 1101 l 240 1128 q 318 1196 247 1135 l 400 1267 q 413 1269 406 1269 q 443 1253 429 1269 q 457 1218 457 1236 q 447 1196 457 1201 q 244 1079 397 1157 q 233 1076 242 1076 z "},"Ŭ":{"ha":557,"x_min":64,"x_max":463,"o":"m 325 -25 q 189 50 239 -25 q 113 238 135 126 q 81 490 88 356 q 74 756 74 613 l 74 871 q 75 974 75 919 q 64 1001 64 985 q 76 1031 64 1018 q 104 1044 89 1044 q 154 946 154 1044 q 161 704 154 882 q 168 463 168 526 q 181 390 175 444 q 188 301 188 336 q 197 226 188 271 q 225 135 207 181 q 272 55 243 86 q 333 24 301 24 q 366 36 353 24 q 383 72 379 49 q 392 149 392 111 l 392 419 q 382 550 392 471 q 374 682 374 638 l 374 692 q 372 732 374 714 l 371 772 q 367 890 371 811 q 361 1010 361 961 q 377 1036 361 1025 q 413 1047 393 1047 l 447 1015 l 447 992 q 442 951 447 975 q 436 907 436 913 q 450 558 436 781 q 463 196 463 325 q 449 74 463 126 q 426 22 440 42 q 386 -11 411 3 q 325 -25 363 -25 m 285 1099 q 228 1113 253 1099 q 192 1154 204 1128 q 167 1264 167 1203 q 174 1278 167 1272 q 193 1285 182 1285 q 221 1267 208 1285 q 240 1224 233 1249 q 258 1181 247 1199 q 281 1163 269 1163 q 315 1183 303 1163 q 328 1226 328 1204 q 336 1267 328 1254 q 367 1279 344 1279 q 393 1269 382 1279 q 404 1244 404 1258 q 401 1210 404 1226 q 361 1129 390 1160 q 285 1099 332 1099 z "},"Ǔ":{"ha":557,"x_min":64,"x_max":463,"o":"m 325 -25 q 189 50 239 -25 q 113 238 135 126 q 81 490 88 356 q 74 756 74 613 l 74 871 q 75 974 75 919 q 64 1001 64 985 q 76 1031 64 1018 q 104 1044 89 1044 q 154 946 154 1044 q 161 704 154 882 q 168 463 168 526 q 181 390 175 444 q 188 301 188 336 q 197 226 188 271 q 225 135 207 181 q 272 55 243 86 q 333 24 301 24 q 366 36 353 24 q 383 72 379 49 q 392 149 392 111 l 392 419 q 382 550 392 471 q 374 682 374 638 l 374 692 q 372 732 374 714 l 371 772 q 367 890 371 811 q 361 1010 361 961 q 377 1036 361 1025 q 413 1047 393 1047 l 447 1015 l 447 992 q 442 951 447 975 q 436 907 436 913 q 450 558 436 781 q 463 196 463 325 q 449 74 463 126 q 426 22 440 42 q 386 -11 411 3 q 325 -25 363 -25 m 272 1088 q 225 1141 256 1088 q 170 1260 194 1194 q 146 1350 146 1325 q 156 1369 146 1361 q 179 1378 167 1378 q 214 1338 194 1378 q 249 1235 228 1306 l 267 1171 q 272 1217 271 1204 q 278 1263 274 1229 q 289 1325 282 1297 q 328 1382 300 1382 q 349 1374 340 1382 q 357 1353 357 1365 q 351 1342 357 1349 l 346 1332 l 346 1307 l 326 1231 q 307 1132 307 1150 q 272 1088 307 1088 z "},"Û":{"ha":557,"x_min":64,"x_max":463,"o":"m 325 -25 q 189 50 239 -25 q 113 238 135 126 q 81 490 88 356 q 74 756 74 613 l 74 871 q 75 974 75 919 q 64 1001 64 985 q 76 1031 64 1018 q 104 1044 89 1044 q 154 946 154 1044 q 161 704 154 882 q 168 463 168 526 q 181 390 175 444 q 188 301 188 336 q 197 226 188 271 q 225 135 207 181 q 272 55 243 86 q 333 24 301 24 q 366 36 353 24 q 383 72 379 49 q 392 149 392 111 l 392 419 q 382 550 392 471 q 374 682 374 638 l 374 692 q 372 732 374 714 l 371 772 q 367 890 371 811 q 361 1010 361 961 q 377 1036 361 1025 q 413 1047 393 1047 l 447 1015 l 447 992 q 442 951 447 975 q 436 907 436 913 q 450 558 436 781 q 463 196 463 325 q 449 74 463 126 q 426 22 440 42 q 386 -11 411 3 q 325 -25 363 -25 m 367 1075 q 350 1085 353 1075 l 296 1272 l 225 1094 q 206 1085 221 1085 q 181 1092 192 1085 q 171 1113 171 1100 q 174 1125 171 1121 l 222 1247 q 239 1285 228 1258 q 256 1321 250 1311 q 288 1354 271 1346 q 307 1357 299 1357 q 326 1344 318 1357 q 361 1250 346 1314 l 379 1183 q 397 1117 392 1133 q 399 1104 399 1113 q 389 1083 399 1092 q 367 1075 379 1075 z "},"Ȕ":{"ha":557,"x_min":51,"x_max":463,"o":"m 325 -25 q 189 50 239 -25 q 113 238 135 126 q 81 490 88 356 q 74 756 74 613 l 74 871 q 75 974 75 919 q 64 1001 64 985 q 76 1031 64 1018 q 104 1044 89 1044 q 154 946 154 1044 q 161 704 154 882 q 168 463 168 526 q 181 390 175 444 q 188 301 188 336 q 197 226 188 271 q 225 135 207 181 q 272 55 243 86 q 333 24 301 24 q 366 36 353 24 q 383 72 379 49 q 392 149 392 111 l 392 419 q 382 550 392 471 q 374 682 374 638 l 374 692 q 372 732 374 714 l 371 772 q 367 890 371 811 q 361 1010 361 961 q 377 1036 361 1025 q 413 1047 393 1047 l 447 1015 l 447 992 q 442 951 447 975 q 436 907 436 913 q 450 558 436 781 q 463 196 463 325 q 449 74 463 126 q 426 22 440 42 q 386 -11 411 3 q 325 -25 363 -25 m 278 1089 q 64 1290 67 1286 l 51 1313 q 67 1338 56 1328 q 92 1349 78 1349 q 153 1294 103 1349 q 249 1178 206 1236 q 292 1106 292 1119 q 278 1089 292 1089 m 443 1078 q 307 1232 369 1149 q 267 1308 267 1285 q 278 1322 267 1315 q 301 1328 290 1328 q 348 1276 311 1328 q 418 1167 385 1225 q 453 1093 451 1110 l 443 1078 z "},"Ü":{"ha":557,"x_min":64,"x_max":463,"o":"m 325 -25 q 189 50 239 -25 q 113 238 135 126 q 81 490 88 356 q 74 756 74 613 l 74 871 q 75 974 75 919 q 64 1001 64 985 q 76 1031 64 1018 q 104 1044 89 1044 q 154 946 154 1044 q 161 704 154 882 q 168 463 168 526 q 181 390 175 444 q 188 301 188 336 q 197 226 188 271 q 225 135 207 181 q 272 55 243 86 q 333 24 301 24 q 366 36 353 24 q 383 72 379 49 q 392 149 392 111 l 392 419 q 382 550 392 471 q 374 682 374 638 l 374 692 q 372 732 374 714 l 371 772 q 367 890 371 811 q 361 1010 361 961 q 377 1036 361 1025 q 413 1047 393 1047 l 447 1015 l 447 992 q 442 951 447 975 q 436 907 436 913 q 450 558 436 781 q 463 196 463 325 q 449 74 463 126 q 426 22 440 42 q 386 -11 411 3 q 325 -25 363 -25 m 169 1089 q 137 1104 151 1089 q 122 1139 122 1119 q 138 1176 122 1160 q 175 1192 154 1192 q 209 1176 194 1192 q 224 1140 224 1160 q 208 1103 224 1118 q 169 1089 193 1089 m 393 1082 q 360 1097 375 1082 q 346 1132 346 1113 q 362 1169 346 1153 q 399 1185 378 1185 q 433 1169 418 1185 q 449 1133 449 1153 q 433 1097 449 1111 q 393 1082 417 1082 z "},"Ụ":{"ha":557,"x_min":64,"x_max":463,"o":"m 325 -25 q 189 50 239 -25 q 113 238 135 126 q 81 490 88 356 q 74 756 74 613 l 74 871 q 75 974 75 919 q 64 1001 64 985 q 76 1031 64 1018 q 104 1044 89 1044 q 154 946 154 1044 q 161 704 154 882 q 168 463 168 526 q 181 390 175 444 q 188 301 188 336 q 197 226 188 271 q 225 135 207 181 q 272 55 243 86 q 333 24 301 24 q 366 36 353 24 q 383 72 379 49 q 392 149 392 111 l 392 419 q 382 550 392 471 q 374 682 374 638 l 374 692 q 372 732 374 714 l 371 772 q 367 890 371 811 q 361 1010 361 961 q 377 1036 361 1025 q 413 1047 393 1047 l 447 1015 l 447 992 q 442 951 447 975 q 436 907 436 913 q 450 558 436 781 q 463 196 463 325 q 449 74 463 126 q 426 22 440 42 q 386 -11 411 3 q 325 -25 363 -25 m 275 -233 q 242 -218 257 -233 q 228 -183 228 -203 q 244 -147 228 -162 q 281 -131 260 -131 q 315 -147 300 -131 q 329 -183 329 -162 q 314 -219 329 -206 q 275 -233 299 -233 z "},"Ù":{"ha":557,"x_min":57,"x_max":463,"o":"m 325 -25 q 189 50 239 -25 q 113 238 135 126 q 81 490 88 356 q 74 756 74 613 l 74 871 q 75 974 75 919 q 64 1001 64 985 q 76 1031 64 1018 q 104 1044 89 1044 q 154 946 154 1044 q 161 704 154 882 q 168 463 168 526 q 181 390 175 444 q 188 301 188 336 q 197 226 188 271 q 225 135 207 181 q 272 55 243 86 q 333 24 301 24 q 366 36 353 24 q 383 72 379 49 q 392 149 392 111 l 392 419 q 382 550 392 471 q 374 682 374 638 l 374 692 q 372 732 374 714 l 371 772 q 367 890 371 811 q 361 1010 361 961 q 377 1036 361 1025 q 413 1047 393 1047 l 447 1015 l 447 992 q 442 951 447 975 q 436 907 436 913 q 450 558 436 781 q 463 196 463 325 q 449 74 463 126 q 426 22 440 42 q 386 -11 411 3 q 325 -25 363 -25 m 313 1082 q 233 1101 297 1082 q 113 1140 168 1119 q 57 1169 57 1161 q 72 1205 57 1186 q 103 1224 88 1224 q 168 1194 111 1224 q 274 1134 225 1165 q 322 1092 322 1103 q 313 1082 322 1082 z "},"Ủ":{"ha":557,"x_min":64,"x_max":463,"o":"m 325 -25 q 189 50 239 -25 q 113 238 135 126 q 81 490 88 356 q 74 756 74 613 l 74 871 q 75 974 75 919 q 64 1001 64 985 q 76 1031 64 1018 q 104 1044 89 1044 q 154 946 154 1044 q 161 704 154 882 q 168 463 168 526 q 181 390 175 444 q 188 301 188 336 q 197 226 188 271 q 225 135 207 181 q 272 55 243 86 q 333 24 301 24 q 366 36 353 24 q 383 72 379 49 q 392 149 392 111 l 392 419 q 382 550 392 471 q 374 682 374 638 l 374 692 q 372 732 374 714 l 371 772 q 367 890 371 811 q 361 1010 361 961 q 377 1036 361 1025 q 413 1047 393 1047 l 447 1015 l 447 992 q 442 951 447 975 q 436 907 436 913 q 450 558 436 781 q 463 196 463 325 q 449 74 463 126 q 426 22 440 42 q 386 -11 411 3 q 325 -25 363 -25 m 254 1083 q 222 1106 231 1083 q 243 1166 222 1150 q 300 1189 264 1182 q 331 1198 321 1193 q 340 1214 340 1203 q 321 1249 340 1235 q 265 1263 301 1263 q 215 1251 233 1263 q 197 1222 197 1240 q 206 1208 197 1221 q 192 1193 206 1206 q 168 1181 178 1181 q 140 1190 150 1181 q 129 1211 129 1200 l 129 1224 q 163 1297 129 1271 q 263 1322 197 1322 q 381 1290 350 1322 q 413 1214 413 1257 q 392 1163 413 1176 q 335 1140 372 1150 q 300 1131 311 1136 q 289 1113 289 1125 l 289 1088 q 261 1086 263 1088 q 254 1083 256 1083 z "},"Ư":{"ha":592,"x_min":64,"x_max":564,"o":"m 325 -25 q 189 50 239 -25 q 113 238 135 126 q 81 490 88 356 q 74 756 74 613 l 74 871 q 75 974 75 919 q 64 1001 64 985 q 76 1031 64 1018 q 104 1044 89 1044 q 154 946 154 1044 q 161 704 154 882 q 168 463 168 526 q 181 390 175 444 q 188 301 188 336 q 197 226 188 271 q 225 135 207 181 q 272 55 243 86 q 333 24 301 24 q 366 36 353 24 q 383 72 379 49 q 392 149 392 111 l 392 419 q 382 550 392 471 q 374 682 374 638 l 374 692 q 372 732 374 714 l 371 772 q 367 890 371 811 q 361 1010 361 961 q 377 1036 361 1025 q 413 1047 393 1047 l 447 1015 l 447 992 q 442 951 447 975 q 436 907 436 913 q 450 558 436 781 q 463 196 463 325 q 449 74 463 126 q 426 22 440 42 q 386 -11 411 3 q 325 -25 363 -25 m 446 957 q 401 968 415 957 l 401 1024 q 433 1015 415 1015 q 463 1028 451 1015 q 474 1060 474 1040 q 468 1090 474 1072 q 463 1113 463 1107 q 511 1138 463 1138 q 564 1081 564 1138 q 528 991 564 1025 q 446 957 492 957 z "},"Ứ":{"ha":592,"x_min":64,"x_max":564,"o":"m 325 -25 q 189 50 239 -25 q 113 238 135 126 q 81 490 88 356 q 74 756 74 613 l 74 871 q 75 974 75 919 q 64 1001 64 985 q 76 1031 64 1018 q 104 1044 89 1044 q 154 946 154 1044 q 161 704 154 882 q 168 463 168 526 q 181 390 175 444 q 188 301 188 336 q 197 226 188 271 q 225 135 207 181 q 272 55 243 86 q 333 24 301 24 q 366 36 353 24 q 383 72 379 49 q 392 149 392 111 l 392 419 q 382 550 392 471 q 374 682 374 638 l 374 692 q 372 732 374 714 l 371 772 q 367 890 371 811 q 361 1010 361 961 q 377 1036 361 1025 q 413 1047 393 1047 l 447 1015 l 447 992 q 442 951 447 975 q 436 907 436 913 q 450 558 436 781 q 463 196 463 325 q 449 74 463 126 q 426 22 440 42 q 386 -11 411 3 q 325 -25 363 -25 m 446 957 q 401 968 415 957 l 401 1024 q 433 1015 415 1015 q 463 1028 451 1015 q 474 1060 474 1040 q 468 1090 474 1072 q 463 1113 463 1107 q 511 1138 463 1138 q 564 1081 564 1138 q 528 991 564 1025 q 446 957 492 957 m 233 1076 q 218 1081 225 1076 q 211 1094 211 1086 q 218 1108 211 1101 l 240 1128 q 318 1196 247 1135 l 400 1267 q 413 1269 406 1269 q 443 1253 429 1269 q 457 1218 457 1236 q 447 1196 457 1201 q 244 1079 397 1157 q 233 1076 242 1076 z "},"Ự":{"ha":592,"x_min":64,"x_max":564,"o":"m 325 -25 q 189 50 239 -25 q 113 238 135 126 q 81 490 88 356 q 74 756 74 613 l 74 871 q 75 974 75 919 q 64 1001 64 985 q 76 1031 64 1018 q 104 1044 89 1044 q 154 946 154 1044 q 161 704 154 882 q 168 463 168 526 q 181 390 175 444 q 188 301 188 336 q 197 226 188 271 q 225 135 207 181 q 272 55 243 86 q 333 24 301 24 q 366 36 353 24 q 383 72 379 49 q 392 149 392 111 l 392 419 q 382 550 392 471 q 374 682 374 638 l 374 692 q 372 732 374 714 l 371 772 q 367 890 371 811 q 361 1010 361 961 q 377 1036 361 1025 q 413 1047 393 1047 l 447 1015 l 447 992 q 442 951 447 975 q 436 907 436 913 q 450 558 436 781 q 463 196 463 325 q 449 74 463 126 q 426 22 440 42 q 386 -11 411 3 q 325 -25 363 -25 m 446 957 q 401 968 415 957 l 401 1024 q 433 1015 415 1015 q 463 1028 451 1015 q 474 1060 474 1040 q 468 1090 474 1072 q 463 1113 463 1107 q 511 1138 463 1138 q 564 1081 564 1138 q 528 991 564 1025 q 446 957 492 957 m 275 -233 q 242 -218 257 -233 q 228 -183 228 -203 q 244 -147 228 -162 q 281 -131 260 -131 q 315 -147 300 -131 q 329 -183 329 -162 q 314 -219 329 -206 q 275 -233 299 -233 z "},"Ừ":{"ha":592,"x_min":57,"x_max":564,"o":"m 325 -25 q 189 50 239 -25 q 113 238 135 126 q 81 490 88 356 q 74 756 74 613 l 74 871 q 75 974 75 919 q 64 1001 64 985 q 76 1031 64 1018 q 104 1044 89 1044 q 154 946 154 1044 q 161 704 154 882 q 168 463 168 526 q 181 390 175 444 q 188 301 188 336 q 197 226 188 271 q 225 135 207 181 q 272 55 243 86 q 333 24 301 24 q 366 36 353 24 q 383 72 379 49 q 392 149 392 111 l 392 419 q 382 550 392 471 q 374 682 374 638 l 374 692 q 372 732 374 714 l 371 772 q 367 890 371 811 q 361 1010 361 961 q 377 1036 361 1025 q 413 1047 393 1047 l 447 1015 l 447 992 q 442 951 447 975 q 436 907 436 913 q 450 558 436 781 q 463 196 463 325 q 449 74 463 126 q 426 22 440 42 q 386 -11 411 3 q 325 -25 363 -25 m 446 957 q 401 968 415 957 l 401 1024 q 433 1015 415 1015 q 463 1028 451 1015 q 474 1060 474 1040 q 468 1090 474 1072 q 463 1113 463 1107 q 511 1138 463 1138 q 564 1081 564 1138 q 528 991 564 1025 q 446 957 492 957 m 313 1082 q 233 1101 297 1082 q 113 1140 168 1119 q 57 1169 57 1161 q 72 1205 57 1186 q 103 1224 88 1224 q 168 1194 111 1224 q 274 1134 225 1165 q 322 1092 322 1103 q 313 1082 322 1082 z "},"Ử":{"ha":592,"x_min":64,"x_max":564,"o":"m 325 -25 q 189 50 239 -25 q 113 238 135 126 q 81 490 88 356 q 74 756 74 613 l 74 871 q 75 974 75 919 q 64 1001 64 985 q 76 1031 64 1018 q 104 1044 89 1044 q 154 946 154 1044 q 161 704 154 882 q 168 463 168 526 q 181 390 175 444 q 188 301 188 336 q 197 226 188 271 q 225 135 207 181 q 272 55 243 86 q 333 24 301 24 q 366 36 353 24 q 383 72 379 49 q 392 149 392 111 l 392 419 q 382 550 392 471 q 374 682 374 638 l 374 692 q 372 732 374 714 l 371 772 q 367 890 371 811 q 361 1010 361 961 q 377 1036 361 1025 q 413 1047 393 1047 l 447 1015 l 447 992 q 442 951 447 975 q 436 907 436 913 q 450 558 436 781 q 463 196 463 325 q 449 74 463 126 q 426 22 440 42 q 386 -11 411 3 q 325 -25 363 -25 m 446 957 q 401 968 415 957 l 401 1024 q 433 1015 415 1015 q 463 1028 451 1015 q 474 1060 474 1040 q 468 1090 474 1072 q 463 1113 463 1107 q 511 1138 463 1138 q 564 1081 564 1138 q 528 991 564 1025 q 446 957 492 957 m 254 1083 q 222 1106 231 1083 q 243 1166 222 1150 q 300 1189 264 1182 q 331 1198 321 1193 q 340 1214 340 1203 q 321 1249 340 1235 q 265 1263 301 1263 q 215 1251 233 1263 q 197 1222 197 1240 q 206 1208 197 1221 q 192 1193 206 1206 q 168 1181 178 1181 q 140 1190 150 1181 q 129 1211 129 1200 l 129 1224 q 163 1297 129 1271 q 263 1322 197 1322 q 381 1290 350 1322 q 413 1214 413 1257 q 392 1163 413 1176 q 335 1140 372 1150 q 300 1131 311 1136 q 289 1113 289 1125 l 289 1088 q 261 1086 263 1088 q 254 1083 256 1083 z "},"Ữ":{"ha":592,"x_min":64,"x_max":564,"o":"m 325 -25 q 189 50 239 -25 q 113 238 135 126 q 81 490 88 356 q 74 756 74 613 l 74 871 q 75 974 75 919 q 64 1001 64 985 q 76 1031 64 1018 q 104 1044 89 1044 q 154 946 154 1044 q 161 704 154 882 q 168 463 168 526 q 181 390 175 444 q 188 301 188 336 q 197 226 188 271 q 225 135 207 181 q 272 55 243 86 q 333 24 301 24 q 366 36 353 24 q 383 72 379 49 q 392 149 392 111 l 392 419 q 382 550 392 471 q 374 682 374 638 l 374 692 q 372 732 374 714 l 371 772 q 367 890 371 811 q 361 1010 361 961 q 377 1036 361 1025 q 413 1047 393 1047 l 447 1015 l 447 992 q 442 951 447 975 q 436 907 436 913 q 450 558 436 781 q 463 196 463 325 q 449 74 463 126 q 426 22 440 42 q 386 -11 411 3 q 325 -25 363 -25 m 446 957 q 401 968 415 957 l 401 1024 q 433 1015 415 1015 q 463 1028 451 1015 q 474 1060 474 1040 q 468 1090 474 1072 q 463 1113 463 1107 q 511 1138 463 1138 q 564 1081 564 1138 q 528 991 564 1025 q 446 957 492 957 m 324 1081 q 264 1090 289 1081 q 229 1111 239 1099 q 206 1132 219 1124 q 175 1140 192 1140 q 161 1129 165 1136 q 160 1114 157 1122 l 160 1111 q 139 1086 160 1093 q 103 1097 117 1086 q 89 1126 89 1107 q 117 1184 89 1161 q 190 1207 144 1207 q 250 1179 206 1207 q 307 1151 294 1151 q 327 1160 319 1151 q 336 1179 335 1168 q 347 1199 339 1190 q 367 1207 354 1207 q 401 1197 389 1207 q 413 1171 413 1186 q 386 1108 413 1135 q 324 1081 360 1081 z "},"Ű":{"ha":557,"x_min":64,"x_max":615,"o":"m 325 -25 q 189 50 239 -25 q 113 238 135 126 q 81 490 88 356 q 74 756 74 613 l 74 871 q 75 974 75 919 q 64 1001 64 985 q 76 1031 64 1018 q 104 1044 89 1044 q 154 946 154 1044 q 161 704 154 882 q 168 463 168 526 q 181 390 175 444 q 188 301 188 336 q 197 226 188 271 q 225 135 207 181 q 272 55 243 86 q 333 24 301 24 q 366 36 353 24 q 383 72 379 49 q 392 149 392 111 l 392 419 q 382 550 392 471 q 374 682 374 638 l 374 692 q 372 732 374 714 l 371 772 q 367 890 371 811 q 361 1010 361 961 q 377 1036 361 1025 q 413 1047 393 1047 l 447 1015 l 447 992 q 442 951 447 975 q 436 907 436 913 q 450 558 436 781 q 463 196 463 325 q 449 74 463 126 q 426 22 440 42 q 386 -11 411 3 q 325 -25 363 -25 m 138 1082 q 183 1172 139 1101 q 281 1310 228 1243 q 342 1371 331 1371 q 365 1363 354 1371 q 375 1346 375 1356 q 326 1253 375 1317 q 215 1132 278 1189 q 138 1074 160 1081 l 138 1082 m 326 1082 q 313 1100 313 1082 q 371 1183 313 1117 q 493 1311 436 1257 q 572 1371 557 1371 q 599 1361 586 1371 q 615 1339 611 1351 q 549 1263 607 1318 q 422 1152 490 1207 q 326 1082 354 1097 z "},"Ȗ":{"ha":557,"x_min":64,"x_max":463,"o":"m 325 -25 q 189 50 239 -25 q 113 238 135 126 q 81 490 88 356 q 74 756 74 613 l 74 871 q 75 974 75 919 q 64 1001 64 985 q 76 1031 64 1018 q 104 1044 89 1044 q 154 946 154 1044 q 161 704 154 882 q 168 463 168 526 q 181 390 175 444 q 188 301 188 336 q 197 226 188 271 q 225 135 207 181 q 272 55 243 86 q 333 24 301 24 q 366 36 353 24 q 383 72 379 49 q 392 149 392 111 l 392 419 q 382 550 392 471 q 374 682 374 638 l 374 692 q 372 732 374 714 l 371 772 q 367 890 371 811 q 361 1010 361 961 q 377 1036 361 1025 q 413 1047 393 1047 l 447 1015 l 447 992 q 442 951 447 975 q 436 907 436 913 q 450 558 436 781 q 463 196 463 325 q 449 74 463 126 q 426 22 440 42 q 386 -11 411 3 q 325 -25 363 -25 m 132 1096 q 157 1206 132 1156 q 194 1245 169 1231 q 250 1260 218 1260 q 294 1253 276 1260 q 324 1229 311 1246 q 344 1197 338 1211 q 361 1160 351 1183 l 364 1154 l 367 1149 l 364 1143 q 363 1138 364 1138 l 369 1115 q 358 1090 369 1101 q 332 1079 347 1079 q 301 1092 310 1079 q 293 1132 293 1104 q 283 1172 293 1149 q 261 1196 272 1196 l 232 1196 q 199 1125 211 1182 q 184 1088 194 1103 q 158 1074 174 1074 l 132 1096 z "}}}
